<mxfile host="65bd71144e">
    <diagram id="fP2OyQ8nInNhad6exS0n" name="第 1 页">
        <mxGraphModel dx="1571" dy="1740" grid="1" gridSize="10" guides="1" tooltips="1" connect="1" arrows="1" fold="1" page="1" pageScale="1" pageWidth="827" pageHeight="1169" math="0" shadow="0">
            <root>
                <mxCell id="0"/>
                <mxCell id="1" parent="0"/>
                <UserObject label="" mermaidData="{&#10;  &quot;data&quot;: &quot;graph TD;\n    Start --&gt; Loop;\n    Loop --&gt; Request;\n    Request --&gt; |成功| JSONConversion;\n    Request --&gt; |失败| ErrorHandler;\n    JSONConversion --&gt; DataFrameConversion;\n    DataFrameConversion --&gt; ExcelWriter;\n    ExcelWriter --&gt; End;\n    ErrorHandler --&gt; End;\n    End --&gt; Done;\n\n    Start[开始] --&gt; Loop[循环每只股票名称];\n    Loop --&gt; Request[发送HTTP请求获取股票历史数据];\n    Request --&gt; |成功| JSONConversion[将请求到的数据转换为JSON格式];\n    Request --&gt; |失败| ErrorHandler[处理请求失败情况];\n    JSONConversion --&gt; DataFrameConversion[将获取的JSON数据转换为DataFrame对象];\n    DataFrameConversion --&gt; ExcelWriter[将DataFrame数据存入Excel文件];\n    ExcelWriter --&gt; End[结束当前股票数据获取];\n    ErrorHandler --&gt; End[结束当前股票数据获取];\n    End --&gt; Done[完成所有股票数据获取];&quot;,&#10;  &quot;config&quot;: {&#10;    &quot;theme&quot;: &quot;neutral&quot;,&#10;    &quot;arrowMarkerAbsolute&quot;: false,&#10;    &quot;flowchart&quot;: {&#10;      &quot;htmlLabels&quot;: false&#10;    },&#10;    &quot;sequence&quot;: {&#10;      &quot;diagramMarginX&quot;: 50,&#10;      &quot;diagramMarginY&quot;: 10,&#10;      &quot;actorMargin&quot;: 50,&#10;      &quot;width&quot;: 150,&#10;      &quot;height&quot;: 65,&#10;      &quot;boxMargin&quot;: 10,&#10;      &quot;boxTextMargin&quot;: 5,&#10;      &quot;noteMargin&quot;: 10,&#10;      &quot;messageMargin&quot;: 35,&#10;      &quot;mirrorActors&quot;: true,&#10;      &quot;bottomMarginAdj&quot;: 1,&#10;      &quot;useMaxWidth&quot;: true,&#10;      &quot;rightAngles&quot;: false,&#10;      &quot;showSequenceNumbers&quot;: false&#10;    },&#10;    &quot;gantt&quot;: {&#10;      &quot;titleTopMargin&quot;: 25,&#10;      &quot;barHeight&quot;: 20,&#10;      &quot;barGap&quot;: 4,&#10;      &quot;topPadding&quot;: 50,&#10;      &quot;leftPadding&quot;: 75,&#10;      &quot;gridLineStartPadding&quot;: 35,&#10;      &quot;fontSize&quot;: 11,&#10;      &quot;fontFamily&quot;: &quot;\&quot;Open-Sans\&quot;, \&quot;sans-serif\&quot;&quot;,&#10;      &quot;numberSectionStyles&quot;: 4,&#10;      &quot;axisFormat&quot;: &quot;%Y-%m-%d&quot;&#10;    }&#10;  }&#10;}" id="2">
                    <mxCell style="shape=image;noLabel=1;verticalAlign=top;imageAspect=1;image=data:image/svg+xml,PHN2ZyB2aWV3Qm94PSIwIDAgNDk1LjUzMjgyMTY1NTI3MzQ0IDcxMC4wMDAwMTE0NDQwOTE4IiBzdHlsZT0ibWF4LXdpZHRoOiA0OTUuNTMyODIxNjU1MjczNDRweDsiIGhlaWdodD0iNzEwLjAwMDAxMTQ0NDA5MTgiIGFyaWEtbGFiZWxsZWRieT0iY2hhcnQtdGl0bGUtZ2VNZXJtYWlkT3V0cHV0LTE3MTM3OTI0MTAwMDUgY2hhcnQtZGVzYy1nZU1lcm1haWRPdXRwdXQtMTcxMzc5MjQxMDAwNSIgcm9sZT0iaW1nIiB4bWxuczp4bGluaz0iaHR0cDovL3d3dy53My5vcmcvMTk5OS94bGluayIgeG1sbnM9Imh0dHA6Ly93d3cudzMub3JnLzIwMDAvc3ZnIiB3aWR0aD0iMTAwJSIgaWQ9ImdlTWVybWFpZE91dHB1dC0xNzEzNzkyNDEwMDA1Ij48dGl0bGUgaWQ9ImNoYXJ0LXRpdGxlLWdlTWVybWFpZE91dHB1dC0xNzEzNzkyNDEwMDA1Ij48L3RpdGxlPjxkZXNjIGlkPSJjaGFydC1kZXNjLWdlTWVybWFpZE91dHB1dC0xNzEzNzkyNDEwMDA1Ij48L2Rlc2M+PHN0eWxlPiNnZU1lcm1haWRPdXRwdXQtMTcxMzc5MjQxMDAwNSB7Zm9udC1mYW1pbHk6InRyZWJ1Y2hldCBtcyIsdmVyZGFuYSxhcmlhbCxzYW5zLXNlcmlmO2ZvbnQtc2l6ZToxNnB4O2ZpbGw6IzAwMDAwMDt9I2dlTWVybWFpZE91dHB1dC0xNzEzNzkyNDEwMDA1IC5lcnJvci1pY29ue2ZpbGw6IzU1MjIyMjt9I2dlTWVybWFpZE91dHB1dC0xNzEzNzkyNDEwMDA1IC5lcnJvci10ZXh0e2ZpbGw6IzU1MjIyMjtzdHJva2U6IzU1MjIyMjt9I2dlTWVybWFpZE91dHB1dC0xNzEzNzkyNDEwMDA1IC5lZGdlLXRoaWNrbmVzcy1ub3JtYWx7c3Ryb2tlLXdpZHRoOjJweDt9I2dlTWVybWFpZE91dHB1dC0xNzEzNzkyNDEwMDA1IC5lZGdlLXRoaWNrbmVzcy10aGlja3tzdHJva2Utd2lkdGg6My41cHg7fSNnZU1lcm1haWRPdXRwdXQtMTcxMzc5MjQxMDAwNSAuZWRnZS1wYXR0ZXJuLXNvbGlke3N0cm9rZS1kYXNoYXJyYXk6MDt9I2dlTWVybWFpZE91dHB1dC0xNzEzNzkyNDEwMDA1IC5lZGdlLXBhdHRlcm4tZGFzaGVke3N0cm9rZS1kYXNoYXJyYXk6Mzt9I2dlTWVybWFpZE91dHB1dC0xNzEzNzkyNDEwMDA1IC5lZGdlLXBhdHRlcm4tZG90dGVke3N0cm9rZS1kYXNoYXJyYXk6Mjt9I2dlTWVybWFpZE91dHB1dC0xNzEzNzkyNDEwMDA1IC5tYXJrZXJ7ZmlsbDojNjY2O3N0cm9rZTojNjY2O30jZ2VNZXJtYWlkT3V0cHV0LTE3MTM3OTI0MTAwMDUgLm1hcmtlci5jcm9zc3tzdHJva2U6IzY2Njt9I2dlTWVybWFpZE91dHB1dC0xNzEzNzkyNDEwMDA1IHN2Z3tmb250LWZhbWlseToidHJlYnVjaGV0IG1zIix2ZXJkYW5hLGFyaWFsLHNhbnMtc2VyaWY7Zm9udC1zaXplOjE2cHg7fSNnZU1lcm1haWRPdXRwdXQtMTcxMzc5MjQxMDAwNSAubGFiZWx7Zm9udC1mYW1pbHk6InRyZWJ1Y2hldCBtcyIsdmVyZGFuYSxhcmlhbCxzYW5zLXNlcmlmO2NvbG9yOiMwMDAwMDA7fSNnZU1lcm1haWRPdXRwdXQtMTcxMzc5MjQxMDAwNSAuY2x1c3Rlci1sYWJlbCB0ZXh0e2ZpbGw6IzMzMzt9I2dlTWVybWFpZE91dHB1dC0xNzEzNzkyNDEwMDA1IC5jbHVzdGVyLWxhYmVsIHNwYW57Y29sb3I6IzMzMzt9I2dlTWVybWFpZE91dHB1dC0xNzEzNzkyNDEwMDA1IC5sYWJlbCB0ZXh0LCNnZU1lcm1haWRPdXRwdXQtMTcxMzc5MjQxMDAwNSBzcGFue2ZpbGw6IzAwMDAwMDtjb2xvcjojMDAwMDAwO30jZ2VNZXJtYWlkT3V0cHV0LTE3MTM3OTI0MTAwMDUgLm5vZGUgcmVjdCwjZ2VNZXJtYWlkT3V0cHV0LTE3MTM3OTI0MTAwMDUgLm5vZGUgY2lyY2xlLCNnZU1lcm1haWRPdXRwdXQtMTcxMzc5MjQxMDAwNSAubm9kZSBlbGxpcHNlLCNnZU1lcm1haWRPdXRwdXQtMTcxMzc5MjQxMDAwNSAubm9kZSBwb2x5Z29uLCNnZU1lcm1haWRPdXRwdXQtMTcxMzc5MjQxMDAwNSAubm9kZSBwYXRoe2ZpbGw6I2VlZTtzdHJva2U6Izk5OTtzdHJva2Utd2lkdGg6MXB4O30jZ2VNZXJtYWlkT3V0cHV0LTE3MTM3OTI0MTAwMDUgLm5vZGUgLmxhYmVse3RleHQtYWxpZ246Y2VudGVyO30jZ2VNZXJtYWlkT3V0cHV0LTE3MTM3OTI0MTAwMDUgLm5vZGUuY2xpY2thYmxle2N1cnNvcjpwb2ludGVyO30jZ2VNZXJtYWlkT3V0cHV0LTE3MTM3OTI0MTAwMDUgLmFycm93aGVhZFBhdGh7ZmlsbDojMzMzMzMzO30jZ2VNZXJtYWlkT3V0cHV0LTE3MTM3OTI0MTAwMDUgLmVkZ2VQYXRoIC5wYXRoe3N0cm9rZTojNjY2O3N0cm9rZS13aWR0aDoyLjBweDt9I2dlTWVybWFpZE91dHB1dC0xNzEzNzkyNDEwMDA1IC5mbG93Y2hhcnQtbGlua3tzdHJva2U6IzY2NjtmaWxsOm5vbmU7fSNnZU1lcm1haWRPdXRwdXQtMTcxMzc5MjQxMDAwNSAuZWRnZUxhYmVse2JhY2tncm91bmQtY29sb3I6d2hpdGU7dGV4dC1hbGlnbjpjZW50ZXI7fSNnZU1lcm1haWRPdXRwdXQtMTcxMzc5MjQxMDAwNSAuZWRnZUxhYmVsIHJlY3R7b3BhY2l0eTowLjU7YmFja2dyb3VuZC1jb2xvcjp3aGl0ZTtmaWxsOndoaXRlO30jZ2VNZXJtYWlkT3V0cHV0LTE3MTM3OTI0MTAwMDUgLmNsdXN0ZXIgcmVjdHtmaWxsOmhzbCgwLCAwJSwgOTguOTIxNTY4NjI3NSUpO3N0cm9rZTojNzA3MDcwO3N0cm9rZS13aWR0aDoxcHg7fSNnZU1lcm1haWRPdXRwdXQtMTcxMzc5MjQxMDAwNSAuY2x1c3RlciB0ZXh0e2ZpbGw6IzMzMzt9I2dlTWVybWFpZE91dHB1dC0xNzEzNzkyNDEwMDA1IC5jbHVzdGVyIHNwYW57Y29sb3I6IzMzMzt9I2dlTWVybWFpZE91dHB1dC0xNzEzNzkyNDEwMDA1IGRpdi5tZXJtYWlkVG9vbHRpcHtwb3NpdGlvbjphYnNvbHV0ZTt0ZXh0LWFsaWduOmNlbnRlcjttYXgtd2lkdGg6MjAwcHg7cGFkZGluZzoycHg7Zm9udC1mYW1pbHk6InRyZWJ1Y2hldCBtcyIsdmVyZGFuYSxhcmlhbCxzYW5zLXNlcmlmO2ZvbnQtc2l6ZToxMnB4O2JhY2tncm91bmQ6aHNsKC0xNjAsIDAlLCA5My4zMzMzMzMzMzMzJSk7Ym9yZGVyOjFweCBzb2xpZCAjNzA3MDcwO2JvcmRlci1yYWRpdXM6MnB4O3BvaW50ZXItZXZlbnRzOm5vbmU7ei1pbmRleDoxMDA7fSNnZU1lcm1haWRPdXRwdXQtMTcxMzc5MjQxMDAwNSA6cm9vdHstLW1lcm1haWQtZm9udC1mYW1pbHk6InRyZWJ1Y2hldCBtcyIsdmVyZGFuYSxhcmlhbCxzYW5zLXNlcmlmO308L3N0eWxlPjxnIHRyYW5zZm9ybT0idHJhbnNsYXRlKDAsIDApIj48ZyBjbGFzcz0ib3V0cHV0Ij48ZyBjbGFzcz0iY2x1c3RlcnMiPjwvZz48ZyBjbGFzcz0iZWRnZVBhdGhzIj48ZyBzdHlsZT0ib3BhY2l0eTogMTsiIGlkPSJMLVN0YXJ0LUxvb3AiIGNsYXNzPSJlZGdlUGF0aCBMUy1TdGFydCBMRS1Mb29wIj48cGF0aCBzdHlsZT0iZmlsbDpub25lIiBtYXJrZXItZW5kPSJ1cmwoI2Fycm93aGVhZDYwKSIgZD0iTTI4NC4yMDA2NDUwOTAyMzA3NSw0Ni40MDAwMDE1MjU4Nzg5MDZMMjgzLjI1Nzk2MDM0MDI4ODMsNTAuNTY2NjY4MTkyNTQ1NTdDMjgyLjMxNTI3NTU5MDM0NTksNTQuNzMzMzM0ODU5MjEyMjQsMjgwLjQyOTkwNjA5MDQ2MTAzLDYzLjA2NjY2ODE5MjU0NTU3LDI4MC40Mjk5MDYwOTA0NjExLDcxLjQwMDAwMTUyNTg3ODlDMjgwLjQyOTkwNjA5MDQ2MTAzLDc5LjczMzMzNDg1OTIxMjIzLDI4Mi4zMTUyNzU1OTAzNDU5LDg4LjA2NjY2ODE5MjU0NTU4LDI4My4yNTc5NjAzNDAyODgzLDkyLjIzMzMzNDg1OTIxMjIzTDI4NC4yMDA2NDUwOTAyMzA3NSw5Ni40MDAwMDE1MjU4Nzg5IiBjbGFzcz0icGF0aCI+PC9wYXRoPjxkZWZzPjxtYXJrZXIgb3JpZW50PSJhdXRvIiBtYXJrZXJIZWlnaHQ9IjYiIG1hcmtlcldpZHRoPSI4IiBtYXJrZXJVbml0cz0ic3Ryb2tlV2lkdGgiIHJlZlk9IjUiIHJlZlg9IjkiIHZpZXdCb3g9IjAgMCAxMCAxMCIgaWQ9ImFycm93aGVhZDYwIj48cGF0aCBzdHlsZT0ic3Ryb2tlLXdpZHRoOiAxOyBzdHJva2UtZGFzaGFycmF5OiAxLCAwOyIgY2xhc3M9ImFycm93aGVhZFBhdGgiIGQ9Ik0gMCAwIEwgMTAgNSBMIDAgMTAgeiI+PC9wYXRoPjwvbWFya2VyPjwvZGVmcz48L2c+PGcgc3R5bGU9Im9wYWNpdHk6IDE7IiBpZD0iTC1Mb29wLVJlcXVlc3QiIGNsYXNzPSJlZGdlUGF0aCBMUy1Mb29wIExFLVJlcXVlc3QiPjxwYXRoIHN0eWxlPSJmaWxsOm5vbmUiIG1hcmtlci1lbmQ9InVybCgjYXJyb3doZWFkNjEpIiBkPSJNMjg0LjIwMDY0NTA5MDIzMDc1LDEzNC44MDAwMDMwNTE3NTc4TDI4My4yNTc5NjAzNDAyODgzLDEzOC45NjY2Njk3MTg0MjQ0N0MyODIuMzE1Mjc1NTkwMzQ1OSwxNDMuMTMzMzM2Mzg1MDkxMTYsMjgwLjQyOTkwNjA5MDQ2MTAzLDE1MS40NjY2Njk3MTg0MjQ0NywyODAuNDI5OTA2MDkwNDYxMSwxNTkuODAwMDAzMDUxNzU3OEMyODAuNDI5OTA2MDkwNDYxMDMsMTY4LjEzMzMzNjM4NTA5MTE2LDI4Mi4zMTUyNzU1OTAzNDU5LDE3Ni40NjY2Njk3MTg0MjQ0NywyODMuMjU3OTYwMzQwMjg4MywxODAuNjMzMzM2Mzg1MDkxMTZMMjg0LjIwMDY0NTA5MDIzMDc1LDE4NC44MDAwMDMwNTE3NTc4IiBjbGFzcz0icGF0aCI+PC9wYXRoPjxkZWZzPjxtYXJrZXIgb3JpZW50PSJhdXRvIiBtYXJrZXJIZWlnaHQ9IjYiIG1hcmtlcldpZHRoPSI4IiBtYXJrZXJVbml0cz0ic3Ryb2tlV2lkdGgiIHJlZlk9IjUiIHJlZlg9IjkiIHZpZXdCb3g9IjAgMCAxMCAxMCIgaWQ9ImFycm93aGVhZDYxIj48cGF0aCBzdHlsZT0ic3Ryb2tlLXdpZHRoOiAxOyBzdHJva2UtZGFzaGFycmF5OiAxLCAwOyIgY2xhc3M9ImFycm93aGVhZFBhdGgiIGQ9Ik0gMCAwIEwgMTAgNSBMIDAgMTAgeiI+PC9wYXRoPjwvbWFya2VyPjwvZGVmcz48L2c+PGcgc3R5bGU9Im9wYWNpdHk6IDE7IiBpZD0iTC1SZXF1ZXN0LUpTT05Db252ZXJzaW9uIiBjbGFzcz0iZWRnZVBhdGggTFMtUmVxdWVzdCBMRS1KU09OQ29udmVyc2lvbiI+PHBhdGggc3R5bGU9ImZpbGw6bm9uZSIgbWFya2VyLWVuZD0idXJsKCNhcnJvd2hlYWQ2MikiIGQ9Ik0yMzQuMjU2NjEyOTgwOTg0MiwyMjMuMjAwMDA0NTc3NjM2NzJMMjE4LjEzOTg4NjM4OTY5MTQ0LDIyOC45MDAwMDQ1NDU4NDc1N0MyMDIuMDIzMTU5Nzk4Mzk4NjQsMjM0LjYwMDAwNDUxNDA1ODQ0LDE2OS43ODk3MDY2MTU4MTMxLDI0Ni4wMDAwMDQ0NTA0ODAxMywxNTYuNDkwOTU3NDY1OTc5NjgsMjU3LjQwMDAwNDM4NjkwMTg2QzE0My4xOTIyMDgzMTYxNDYyNCwyNjguODAwMDA0MzIzMzIzNTUsMTQ4LjgyODE2MzE5OTA2NDk2LDI4MC4yMDAwMDQyNTk3NDUzLDE1MS42NDYxNDA2NDA1MjQzLDI4NS45MDAwMDQyMjc5NTYxTDE1NC40NjQxMTgwODE5ODM2NiwyOTEuNjAwMDA0MTk2MTY3IiBjbGFzcz0icGF0aCI+PC9wYXRoPjxkZWZzPjxtYXJrZXIgb3JpZW50PSJhdXRvIiBtYXJrZXJIZWlnaHQ9IjYiIG1hcmtlcldpZHRoPSI4IiBtYXJrZXJVbml0cz0ic3Ryb2tlV2lkdGgiIHJlZlk9IjUiIHJlZlg9IjkiIHZpZXdCb3g9IjAgMCAxMCAxMCIgaWQ9ImFycm93aGVhZDYyIj48cGF0aCBzdHlsZT0ic3Ryb2tlLXdpZHRoOiAxOyBzdHJva2UtZGFzaGFycmF5OiAxLCAwOyIgY2xhc3M9ImFycm93aGVhZFBhdGgiIGQ9Ik0gMCAwIEwgMTAgNSBMIDAgMTAgeiI+PC9wYXRoPjwvbWFya2VyPjwvZGVmcz48L2c+PGcgc3R5bGU9Im9wYWNpdHk6IDE7IiBpZD0iTC1SZXF1ZXN0LUVycm9ySGFuZGxlciIgY2xhc3M9ImVkZ2VQYXRoIExTLVJlcXVlc3QgTEUtRXJyb3JIYW5kbGVyIj48cGF0aCBzdHlsZT0iZmlsbDpub25lIiBtYXJrZXItZW5kPSJ1cmwoI2Fycm93aGVhZDYzKSIgZD0iTTMyMy44NDgxOTAyNjA2MTk5LDIyMy4yMDAwMDQ1Nzc2MzY3MkwzMzQuMzI4OTYxOTY4OTkzOTUsMjI4LjkwMDAwNDU0NTg0NzU3QzM0NC44MDk3MzM2NzczNjgwNiwyMzQuNjAwMDA0NTE0MDU4NDQsMzY1Ljc3MTI3NzA5NDExNjE2LDI0Ni4wMDAwMDQ0NTA0ODAxMywzNzYuMjUyMDQ4ODAyNDkwMiwyNjAuNjAwMDA0NTE0MDU4NEMzODYuNzMyODIwNTEwODY0MjYsMjc1LjIwMDAwNDU3NzYzNjcsMzg2LjczMjgyMDUxMDg2NDI2LDI5My4wMDAwMDQ3NjgzNzE2LDM4Ni43MzI4MjA1MTA4NjQyNiwzMTAuODAwMDA0OTU5MTA2NDVDMzg2LjczMjgyMDUxMDg2NDI2LDMyOC42MDAwMDUxNDk4NDEzLDM4Ni43MzI4MjA1MTA4NjQyNiwzNDYuNDAwMDA1MzQwNTc2MiwzODYuNzMyODIwNTEwODY0MjYsMzY0LjIwMDAwNTUzMTMxMTA0QzM4Ni43MzI4MjA1MTA4NjQyNiwzODIuMDAwMDA1NzIyMDQ1OSwzODYuNzMyODIwNTEwODY0MjYsMzk5LjgwMDAwNTkxMjc4MDc2LDM4Ni43MzI4MjA1MTA4NjQyNiw0MTYuMDY2NjcyODAxOTcxNDRDMzg2LjczMjgyMDUxMDg2NDI2LDQzMi4zMzMzMzk2OTExNjIxLDM4Ni43MzI4MjA1MTA4NjQyNiw0NDcuMDY2NjczMjc4ODA4NiwzODkuMjIxNTA4MjE0NzUxNzQsNDU4LjYwMDAwNjczOTI5ODVDMzkxLjcxMDE5NTkxODYzOTE2LDQ3MC4xMzMzNDAxOTk3ODg0LDM5Ni42ODc1NzEzMjY0MTQsNDc4LjQ2NjY3MzUzMzEyMTc2LDM5OS4xNzYyNTkwMzAzMDE1LDQ4Mi42MzMzNDAxOTk3ODg0TDQwMS42NjQ5NDY3MzQxODg5LDQ4Ni44MDAwMDY4NjY0NTUxIiBjbGFzcz0icGF0aCI+PC9wYXRoPjxkZWZzPjxtYXJrZXIgb3JpZW50PSJhdXRvIiBtYXJrZXJIZWlnaHQ9IjYiIG1hcmtlcldpZHRoPSI4IiBtYXJrZXJVbml0cz0ic3Ryb2tlV2lkdGgiIHJlZlk9IjUiIHJlZlg9IjkiIHZpZXdCb3g9IjAgMCAxMCAxMCIgaWQ9ImFycm93aGVhZDYzIj48cGF0aCBzdHlsZT0ic3Ryb2tlLXdpZHRoOiAxOyBzdHJva2UtZGFzaGFycmF5OiAxLCAwOyIgY2xhc3M9ImFycm93aGVhZFBhdGgiIGQ9Ik0gMCAwIEwgMTAgNSBMIDAgMTAgeiI+PC9wYXRoPjwvbWFya2VyPjwvZGVmcz48L2c+PGcgc3R5bGU9Im9wYWNpdHk6IDE7IiBpZD0iTC1KU09OQ29udmVyc2lvbi1EYXRhRnJhbWVDb252ZXJzaW9uIiBjbGFzcz0iZWRnZVBhdGggTFMtSlNPTkNvbnZlcnNpb24gTEUtRGF0YUZyYW1lQ29udmVyc2lvbiI+PHBhdGggc3R5bGU9ImZpbGw6bm9uZSIgbWFya2VyLWVuZD0idXJsKCNhcnJvd2hlYWQ2NCkiIGQ9Ik0xNjAuMzYwNzQ3MzI5NDM1MTYsMzMwLjAwMDAwNTcyMjA0NTlMMTU5LjI5MzMzMTYxNjQ4ODkzLDMzNS43MDAwMDU2OTAyNTY4QzE1OC4yMjU5MTU5MDM1NDI3LDM0MS40MDAwMDU2NTg0Njc2LDE1Ni4wOTEwODQ0Nzc2NTAyNywzNTIuODAwMDA1NTk0ODg5MzQsMTU2LjA5MTA4NDQ3NzY1MDI3LDM2NC4yMDAwMDU1MzEzMTEwNEMxNTYuMDkxMDg0NDc3NjUwMjcsMzc1LjYwMDAwNTQ2NzczMjczLDE1OC4yMjU5MTU5MDM1NDI3LDM4Ny4wMDAwMDU0MDQxNTQ1LDE1OS4yOTMzMzE2MTY0ODg5MywzOTIuNzAwMDA1MzcyMzY1M0wxNjAuMzYwNzQ3MzI5NDM1MTYsMzk4LjQwMDAwNTM0MDU3NjIiIGNsYXNzPSJwYXRoIj48L3BhdGg+PGRlZnM+PG1hcmtlciBvcmllbnQ9ImF1dG8iIG1hcmtlckhlaWdodD0iNiIgbWFya2VyV2lkdGg9IjgiIG1hcmtlclVuaXRzPSJzdHJva2VXaWR0aCIgcmVmWT0iNSIgcmVmWD0iOSIgdmlld0JveD0iMCAwIDEwIDEwIiBpZD0iYXJyb3doZWFkNjQiPjxwYXRoIHN0eWxlPSJzdHJva2Utd2lkdGg6IDE7IHN0cm9rZS1kYXNoYXJyYXk6IDEsIDA7IiBjbGFzcz0iYXJyb3doZWFkUGF0aCIgZD0iTSAwIDAgTCAxMCA1IEwgMCAxMCB6Ij48L3BhdGg+PC9tYXJrZXI+PC9kZWZzPjwvZz48ZyBzdHlsZT0ib3BhY2l0eTogMTsiIGlkPSJMLURhdGFGcmFtZUNvbnZlcnNpb24tRXhjZWxXcml0ZXIiIGNsYXNzPSJlZGdlUGF0aCBMUy1EYXRhRnJhbWVDb252ZXJzaW9uIExFLUV4Y2VsV3JpdGVyIj48cGF0aCBzdHlsZT0iZmlsbDpub25lIiBtYXJrZXItZW5kPSJ1cmwoI2Fycm93aGVhZDY1KSIgZD0iTTE1OS42MTIzNjE1NTE0MTIzNiw0MzYuODAwMDA2ODY2NDU1MUwxNTguNjY5Njc2ODAxNDY5OTMsNDQwLjk2NjY3MzUzMzEyMTc2QzE1Ny43MjY5OTIwNTE1Mjc1LDQ0NS4xMzMzNDAxOTk3ODg0LDE1NS44NDE2MjI1NTE2NDI2Nyw0NTMuNDY2NjczNTMzMTIxNzYsMTU1Ljg0MTYyMjU1MTY0MjY3LDQ2MS44MDAwMDY4NjY0NTUxQzE1NS44NDE2MjI1NTE2NDI2Nyw0NzAuMTMzMzQwMTk5Nzg4NCwxNTcuNzI2OTkyMDUxNTI3NSw0NzguNDY2NjczNTMzMTIxNzYsMTU4LjY2OTY3NjgwMTQ2OTkzLDQ4Mi42MzMzNDAxOTk3ODg0TDE1OS42MTIzNjE1NTE0MTIzNiw0ODYuODAwMDA2ODY2NDU1MSIgY2xhc3M9InBhdGgiPjwvcGF0aD48ZGVmcz48bWFya2VyIG9yaWVudD0iYXV0byIgbWFya2VySGVpZ2h0PSI2IiBtYXJrZXJXaWR0aD0iOCIgbWFya2VyVW5pdHM9InN0cm9rZVdpZHRoIiByZWZZPSI1IiByZWZYPSI5IiB2aWV3Qm94PSIwIDAgMTAgMTAiIGlkPSJhcnJvd2hlYWQ2NSI+PHBhdGggc3R5bGU9InN0cm9rZS13aWR0aDogMTsgc3Ryb2tlLWRhc2hhcnJheTogMSwgMDsiIGNsYXNzPSJhcnJvd2hlYWRQYXRoIiBkPSJNIDAgMCBMIDEwIDUgTCAwIDEwIHoiPjwvcGF0aD48L21hcmtlcj48L2RlZnM+PC9nPjxnIHN0eWxlPSJvcGFjaXR5OiAxOyIgaWQ9IkwtRXhjZWxXcml0ZXItRW5kIiBjbGFzcz0iZWRnZVBhdGggTFMtRXhjZWxXcml0ZXIgTEUtRW5kIj48cGF0aCBzdHlsZT0iZmlsbDpub25lIiBtYXJrZXItZW5kPSJ1cmwoI2Fycm93aGVhZDY2KSIgZD0iTTE1NS4yNjg0NzAwNTEwNjY5NCw1MjUuMjAwMDA4MzkyMzM0TDE1My4zODMxMDA1NTExODIwOCw1MjkuMzY2Njc1MDU5MDAwNkMxNTEuNDk3NzMxMDUxMjk3MjIsNTMzLjUzMzM0MTcyNTY2NzQsMTQ3LjcyNjk5MjA1MTUyNzUzLDU0MS44NjY2NzUwNTkwMDA2LDE1OS40NzE3Mzk1NDI4ODIyNiw1NTAuMjAwMDA4MzkyMzM0QzE3MS4yMTY0ODcwMzQyMzY5Niw1NTguNTMzMzQxNzI1NjY3NCwxOTguNDc2NzIxMDE2NzE2MTQsNTY2Ljg2NjY3NTA1OTAwMDYsMjEyLjEwNjgzODAwNzk1NTcsNTcxLjAzMzM0MTcyNTY2NzRMMjI1LjczNjk1NDk5OTE5NTI2LDU3NS4yMDAwMDgzOTIzMzQiIGNsYXNzPSJwYXRoIj48L3BhdGg+PGRlZnM+PG1hcmtlciBvcmllbnQ9ImF1dG8iIG1hcmtlckhlaWdodD0iNiIgbWFya2VyV2lkdGg9IjgiIG1hcmtlclVuaXRzPSJzdHJva2VXaWR0aCIgcmVmWT0iNSIgcmVmWD0iOSIgdmlld0JveD0iMCAwIDEwIDEwIiBpZD0iYXJyb3doZWFkNjYiPjxwYXRoIHN0eWxlPSJzdHJva2Utd2lkdGg6IDE7IHN0cm9rZS1kYXNoYXJyYXk6IDEsIDA7IiBjbGFzcz0iYXJyb3doZWFkUGF0aCIgZD0iTSAwIDAgTCAxMCA1IEwgMCAxMCB6Ij48L3BhdGg+PC9tYXJrZXI+PC9kZWZzPjwvZz48ZyBzdHlsZT0ib3BhY2l0eTogMTsiIGlkPSJMLUVycm9ySGFuZGxlci1FbmQiIGNsYXNzPSJlZGdlUGF0aCBMUy1FcnJvckhhbmRsZXIgTEUtRW5kIj48cGF0aCBzdHlsZT0iZmlsbDpub25lIiBtYXJrZXItZW5kPSJ1cmwoI2Fycm93aGVhZDY3KSIgZD0iTTM1NC42NjkxMzAwMzgzNTkwNyw1MjUuMjAwMDA4MzkyMzM0TDM0MS45ODE2OTc3OTcwNjE5NCw1MjkuMzY2Njc1MDU5MDAwNkMzMjkuMjk0MjY1NTU1NzY0NzUsNTMzLjUzMzM0MTcyNTY2NzQsMzAzLjkxOTQwMTA3MzE3MDUsNTQxLjg2NjY3NTA1OTAwMDYsMjkyLjE3NDY1MzU4MTgxNTgsNTUwLjIwMDAwODM5MjMzNEMyODAuNDI5OTA2MDkwNDYxMDMsNTU4LjUzMzM0MTcyNTY2NzQsMjgyLjMxNTI3NTU5MDM0NTksNTY2Ljg2NjY3NTA1OTAwMDYsMjgzLjI1Nzk2MDM0MDI4ODMsNTcxLjAzMzM0MTcyNTY2NzRMMjg0LjIwMDY0NTA5MDIzMDc1LDU3NS4yMDAwMDgzOTIzMzQiIGNsYXNzPSJwYXRoIj48L3BhdGg+PGRlZnM+PG1hcmtlciBvcmllbnQ9ImF1dG8iIG1hcmtlckhlaWdodD0iNiIgbWFya2VyV2lkdGg9IjgiIG1hcmtlclVuaXRzPSJzdHJva2VXaWR0aCIgcmVmWT0iNSIgcmVmWD0iOSIgdmlld0JveD0iMCAwIDEwIDEwIiBpZD0iYXJyb3doZWFkNjciPjxwYXRoIHN0eWxlPSJzdHJva2Utd2lkdGg6IDE7IHN0cm9rZS1kYXNoYXJyYXk6IDEsIDA7IiBjbGFzcz0iYXJyb3doZWFkUGF0aCIgZD0iTSAwIDAgTCAxMCA1IEwgMCAxMCB6Ij48L3BhdGg+PC9tYXJrZXI+PC9kZWZzPjwvZz48ZyBzdHlsZT0ib3BhY2l0eTogMTsiIGlkPSJMLUVuZC1Eb25lIiBjbGFzcz0iZWRnZVBhdGggTFMtRW5kIExFLURvbmUiPjxwYXRoIHN0eWxlPSJmaWxsOm5vbmUiIG1hcmtlci1lbmQ9InVybCgjYXJyb3doZWFkNjgpIiBkPSJNMjg0LjIwMDY0NTA5MDIzMDc1LDYxMy42MDAwMDk5MTgyMTI5TDI4My4yNTc5NjAzNDAyODgzLDYxNy43NjY2NzY1ODQ4Nzk1QzI4Mi4zMTUyNzU1OTAzNDU5LDYyMS45MzMzNDMyNTE1NDYzLDI4MC40Mjk5MDYwOTA0NjEwMyw2MzAuMjY2Njc2NTg0ODc5NSwyODAuNDI5OTA2MDkwNDYxMSw2MzguNjAwMDA5OTE4MjEyOUMyODAuNDI5OTA2MDkwNDYxMDMsNjQ2LjkzMzM0MzI1MTU0NjMsMjgyLjMxNTI3NTU5MDM0NTksNjU1LjI2NjY3NjU4NDg3OTUsMjgzLjI1Nzk2MDM0MDI4ODMsNjU5LjQzMzM0MzI1MTU0NjNMMjg0LjIwMDY0NTA5MDIzMDc1LDY2My42MDAwMDk5MTgyMTI5IiBjbGFzcz0icGF0aCI+PC9wYXRoPjxkZWZzPjxtYXJrZXIgb3JpZW50PSJhdXRvIiBtYXJrZXJIZWlnaHQ9IjYiIG1hcmtlcldpZHRoPSI4IiBtYXJrZXJVbml0cz0ic3Ryb2tlV2lkdGgiIHJlZlk9IjUiIHJlZlg9IjkiIHZpZXdCb3g9IjAgMCAxMCAxMCIgaWQ9ImFycm93aGVhZDY4Ij48cGF0aCBzdHlsZT0ic3Ryb2tlLXdpZHRoOiAxOyBzdHJva2UtZGFzaGFycmF5OiAxLCAwOyIgY2xhc3M9ImFycm93aGVhZFBhdGgiIGQ9Ik0gMCAwIEwgMTAgNSBMIDAgMTAgeiI+PC9wYXRoPjwvbWFya2VyPjwvZGVmcz48L2c+PGcgc3R5bGU9Im9wYWNpdHk6IDE7IiBpZD0iTC1TdGFydC1Mb29wIiBjbGFzcz0iZWRnZVBhdGggTFMtU3RhcnQgTEUtTG9vcCI+PHBhdGggc3R5bGU9ImZpbGw6bm9uZSIgbWFya2VyLWVuZD0idXJsKCNhcnJvd2hlYWQ2OSkiIGQ9Ik0yOTIuODg4NDI4MDkwOTIxNiw0Ni40MDAwMDE1MjU4Nzg5MDZMMjkzLjgzMTExMjg0MDg2NCw1MC41NjY2NjgxOTI1NDU1N0MyOTQuNzczNzk3NTkwODA2NDUsNTQuNzMzMzM0ODU5MjEyMjQsMjk2LjY1OTE2NzA5MDY5MTMsNjMuMDY2NjY4MTkyNTQ1NTcsMjk2LjY1OTE2NzA5MDY5MTI2LDcxLjQwMDAwMTUyNTg3ODlDMjk2LjY1OTE2NzA5MDY5MTMsNzkuNzMzMzM0ODU5MjEyMjMsMjk0Ljc3Mzc5NzU5MDgwNjQ1LDg4LjA2NjY2ODE5MjU0NTU4LDI5My44MzExMTI4NDA4NjQsOTIuMjMzMzM0ODU5MjEyMjNMMjkyLjg4ODQyODA5MDkyMTYsOTYuNDAwMDAxNTI1ODc4OSIgY2xhc3M9InBhdGgiPjwvcGF0aD48ZGVmcz48bWFya2VyIG9yaWVudD0iYXV0byIgbWFya2VySGVpZ2h0PSI2IiBtYXJrZXJXaWR0aD0iOCIgbWFya2VyVW5pdHM9InN0cm9rZVdpZHRoIiByZWZZPSI1IiByZWZYPSI5IiB2aWV3Qm94PSIwIDAgMTAgMTAiIGlkPSJhcnJvd2hlYWQ2OSI+PHBhdGggc3R5bGU9InN0cm9rZS13aWR0aDogMTsgc3Ryb2tlLWRhc2hhcnJheTogMSwgMDsiIGNsYXNzPSJhcnJvd2hlYWRQYXRoIiBkPSJNIDAgMCBMIDEwIDUgTCAwIDEwIHoiPjwvcGF0aD48L21hcmtlcj48L2RlZnM+PC9nPjxnIHN0eWxlPSJvcGFjaXR5OiAxOyIgaWQ9IkwtTG9vcC1SZXF1ZXN0IiBjbGFzcz0iZWRnZVBhdGggTFMtTG9vcCBMRS1SZXF1ZXN0Ij48cGF0aCBzdHlsZT0iZmlsbDpub25lIiBtYXJrZXItZW5kPSJ1cmwoI2Fycm93aGVhZDcwKSIgZD0iTTI5Mi44ODg0MjgwOTA5MjE2LDEzNC44MDAwMDMwNTE3NTc4TDI5My44MzExMTI4NDA4NjQsMTM4Ljk2NjY2OTcxODQyNDQ3QzI5NC43NzM3OTc1OTA4MDY0NSwxNDMuMTMzMzM2Mzg1MDkxMTYsMjk2LjY1OTE2NzA5MDY5MTMsMTUxLjQ2NjY2OTcxODQyNDQ3LDI5Ni42NTkxNjcwOTA2OTEyNiwxNTkuODAwMDAzMDUxNzU3OEMyOTYuNjU5MTY3MDkwNjkxMywxNjguMTMzMzM2Mzg1MDkxMTYsMjk0Ljc3Mzc5NzU5MDgwNjQ1LDE3Ni40NjY2Njk3MTg0MjQ0NywyOTMuODMxMTEyODQwODY0LDE4MC42MzMzMzYzODUwOTExNkwyOTIuODg4NDI4MDkwOTIxNiwxODQuODAwMDAzMDUxNzU3OCIgY2xhc3M9InBhdGgiPjwvcGF0aD48ZGVmcz48bWFya2VyIG9yaWVudD0iYXV0byIgbWFya2VySGVpZ2h0PSI2IiBtYXJrZXJXaWR0aD0iOCIgbWFya2VyVW5pdHM9InN0cm9rZVdpZHRoIiByZWZZPSI1IiByZWZYPSI5IiB2aWV3Qm94PSIwIDAgMTAgMTAiIGlkPSJhcnJvd2hlYWQ3MCI+PHBhdGggc3R5bGU9InN0cm9rZS13aWR0aDogMTsgc3Ryb2tlLWRhc2hhcnJheTogMSwgMDsiIGNsYXNzPSJhcnJvd2hlYWRQYXRoIiBkPSJNIDAgMCBMIDEwIDUgTCAwIDEwIHoiPjwvcGF0aD48L21hcmtlcj48L2RlZnM+PC9nPjxnIHN0eWxlPSJvcGFjaXR5OiAxOyIgaWQ9IkwtUmVxdWVzdC1KU09OQ29udmVyc2lvbiIgY2xhc3M9ImVkZ2VQYXRoIExTLVJlcXVlc3QgTEUtSlNPTkNvbnZlcnNpb24iPjxwYXRoIHN0eWxlPSJmaWxsOm5vbmUiIG1hcmtlci1lbmQ9InVybCgjYXJyb3doZWFkNzEpIiBkPSJNMjUzLjI0MDg4MjkyMDUzMjQ0LDIyMy4yMDAwMDQ1Nzc2MzY3MkwyNDIuNzYwMTExMjEyMTU4MzYsMjI4LjkwMDAwNDU0NTg0NzU3QzIzMi4yNzkzMzk1MDM3ODQzLDIzNC42MDAwMDQ1MTQwNTg0NCwyMTEuMzE3Nzk2MDg3MDM2MTksMjQ2LjAwMDAwNDQ1MDQ4MDEzLDE5OC4wMTkwNDY5MzcyMDI4LDI1Ny40MDAwMDQzODY5MDE4NkMxODQuNzIwMjk3Nzg3MzY5NCwyNjguODAwMDA0MzIzMzIzNTUsMTc5LjA4NDM0MjkwNDQ1MDY2LDI4MC4yMDAwMDQyNTk3NDUzLDE3Ni4yNjYzNjU0NjI5OTEzMywyODUuOTAwMDA0MjI3OTU2MUwxNzMuNDQ4Mzg4MDIxNTMxOTcsMjkxLjYwMDAwNDE5NjE2NyIgY2xhc3M9InBhdGgiPjwvcGF0aD48ZGVmcz48bWFya2VyIG9yaWVudD0iYXV0byIgbWFya2VySGVpZ2h0PSI2IiBtYXJrZXJXaWR0aD0iOCIgbWFya2VyVW5pdHM9InN0cm9rZVdpZHRoIiByZWZZPSI1IiByZWZYPSI5IiB2aWV3Qm94PSIwIDAgMTAgMTAiIGlkPSJhcnJvd2hlYWQ3MSI+PHBhdGggc3R5bGU9InN0cm9rZS13aWR0aDogMTsgc3Ryb2tlLWRhc2hhcnJheTogMSwgMDsiIGNsYXNzPSJhcnJvd2hlYWRQYXRoIiBkPSJNIDAgMCBMIDEwIDUgTCAwIDEwIHoiPjwvcGF0aD48L21hcmtlcj48L2RlZnM+PC9nPjxnIHN0eWxlPSJvcGFjaXR5OiAxOyIgaWQ9IkwtUmVxdWVzdC1FcnJvckhhbmRsZXIiIGNsYXNzPSJlZGdlUGF0aCBMUy1SZXF1ZXN0IExFLUVycm9ySGFuZGxlciI+PHBhdGggc3R5bGU9ImZpbGw6bm9uZSIgbWFya2VyLWVuZD0idXJsKCNhcnJvd2hlYWQ3MikiIGQ9Ik0zNDIuODMyNDYwMjAwMTY4MTYsMjIzLjIwMDAwNDU3NzYzNjcyTDM1OC45NDkxODY3OTE0NjA5MywyMjguOTAwMDA0NTQ1ODQ3NTdDMzc1LjA2NTkxMzM4Mjc1MzcsMjM0LjYwMDAwNDUxNDA1ODQ0LDQwNy4yOTkzNjY1NjUzMzkyLDI0Ni4wMDAwMDQ0NTA0ODAxMyw0MjMuNDE2MDkzMTU2NjMyMDMsMjYwLjYwMDAwNDUxNDA1ODRDNDM5LjUzMjgxOTc0NzkyNDgsMjc1LjIwMDAwNDU3NzYzNjcsNDM5LjUzMjgxOTc0NzkyNDgsMjkzLjAwMDAwNDc2ODM3MTYsNDM5LjUzMjgxOTc0NzkyNDgsMzEwLjgwMDAwNDk1OTEwNjQ1QzQzOS41MzI4MTk3NDc5MjQ4LDMyOC42MDAwMDUxNDk4NDEzLDQzOS41MzI4MTk3NDc5MjQ4LDM0Ni40MDAwMDUzNDA1NzYyLDQzOS41MzI4MTk3NDc5MjQ4LDM2NC4yMDAwMDU1MzEzMTEwNEM0MzkuNTMyODE5NzQ3OTI0OCwzODIuMDAwMDA1NzIyMDQ1OSw0MzkuNTMyODE5NzQ3OTI0OCwzOTkuODAwMDA1OTEyNzgwNzYsNDM5LjUzMjgxOTc0NzkyNDgsNDE2LjA2NjY3MjgwMTk3MTQ0QzQzOS41MzI4MTk3NDc5MjQ4LDQzMi4zMzMzMzk2OTExNjIxLDQzOS41MzI4MTk3NDc5MjQ4LDQ0Ny4wNjY2NzMyNzg4MDg2LDQzNy4wNDQxMzIwNDQwMzczLDQ1OC42MDAwMDY3MzkyOTg1QzQzNC41NTU0NDQzNDAxNDk5LDQ3MC4xMzMzNDAxOTk3ODg0LDQyOS41NzgwNjg5MzIzNzUwNiw0NzguNDY2NjczNTMzMTIxNzYsNDI3LjA4OTM4MTIyODQ4NzYsNDgyLjYzMzM0MDE5OTc4ODRMNDI0LjYwMDY5MzUyNDYwMDE2LDQ4Ni44MDAwMDY4NjY0NTUxIiBjbGFzcz0icGF0aCI+PC9wYXRoPjxkZWZzPjxtYXJrZXIgb3JpZW50PSJhdXRvIiBtYXJrZXJIZWlnaHQ9IjYiIG1hcmtlcldpZHRoPSI4IiBtYXJrZXJVbml0cz0ic3Ryb2tlV2lkdGgiIHJlZlk9IjUiIHJlZlg9IjkiIHZpZXdCb3g9IjAgMCAxMCAxMCIgaWQ9ImFycm93aGVhZDcyIj48cGF0aCBzdHlsZT0ic3Ryb2tlLXdpZHRoOiAxOyBzdHJva2UtZGFzaGFycmF5OiAxLCAwOyIgY2xhc3M9ImFycm93aGVhZFBhdGgiIGQ9Ik0gMCAwIEwgMTAgNSBMIDAgMTAgeiI+PC9wYXRoPjwvbWFya2VyPjwvZGVmcz48L2c+PGcgc3R5bGU9Im9wYWNpdHk6IDE7IiBpZD0iTC1KU09OQ29udmVyc2lvbi1EYXRhRnJhbWVDb252ZXJzaW9uIiBjbGFzcz0iZWRnZVBhdGggTFMtSlNPTkNvbnZlcnNpb24gTEUtRGF0YUZyYW1lQ29udmVyc2lvbiI+PHBhdGggc3R5bGU9ImZpbGw6bm9uZSIgbWFya2VyLWVuZD0idXJsKCNhcnJvd2hlYWQ3MykiIGQ9Ik0yMDIuMjA4MjIxMzQ1NTI3MjgsMzMwLjAwMDAwNTcyMjA0NTlMMjEzLjU2NDI3MzkxODE1NzksMzM1LjcwMDAwNTY5MDI1NjhDMjI0LjkyMDMyNjQ5MDc4ODUsMzQxLjQwMDAwNTY1ODQ2NzYsMjQ3LjYzMjQzMTYzNjA0OTc3LDM1Mi44MDAwMDU1OTQ4ODkzNCwyNDcuNjMyNDMxNjM2MDQ5OCwzNjQuMjAwMDA1NTMxMzExMDRDMjQ3LjYzMjQzMTYzNjA0OTc3LDM3NS42MDAwMDU0Njc3MzI3MywyMjQuOTIwMzI2NDkwNzg4NSwzODcuMDAwMDA1NDA0MTU0NSwyMTMuNTY0MjczOTE4MTU3OSwzOTIuNzAwMDA1MzcyMzY1M0wyMDIuMjA4MjIxMzQ1NTI3MjgsMzk4LjQwMDAwNTM0MDU3NjIiIGNsYXNzPSJwYXRoIj48L3BhdGg+PGRlZnM+PG1hcmtlciBvcmllbnQ9ImF1dG8iIG1hcmtlckhlaWdodD0iNiIgbWFya2VyV2lkdGg9IjgiIG1hcmtlclVuaXRzPSJzdHJva2VXaWR0aCIgcmVmWT0iNSIgcmVmWD0iOSIgdmlld0JveD0iMCAwIDEwIDEwIiBpZD0iYXJyb3doZWFkNzMiPjxwYXRoIHN0eWxlPSJzdHJva2Utd2lkdGg6IDE7IHN0cm9rZS1kYXNoYXJyYXk6IDEsIDA7IiBjbGFzcz0iYXJyb3doZWFkUGF0aCIgZD0iTSAwIDAgTCAxMCA1IEwgMCAxMCB6Ij48L3BhdGg+PC9tYXJrZXI+PC9kZWZzPjwvZz48ZyBzdHlsZT0ib3BhY2l0eTogMTsiIGlkPSJMLURhdGFGcmFtZUNvbnZlcnNpb24tRXhjZWxXcml0ZXIiIGNsYXNzPSJlZGdlUGF0aCBMUy1EYXRhRnJhbWVDb252ZXJzaW9uIExFLUV4Y2VsV3JpdGVyIj48cGF0aCBzdHlsZT0iZmlsbDpub25lIiBtYXJrZXItZW5kPSJ1cmwoI2Fycm93aGVhZDc0KSIgZD0iTTIxMy43MzIxNjAxNDIxMDI0Myw0MzYuODAwMDA2ODY2NDU1MUwyMjQuNTM0MjIyODgzNTE0NzMsNDQwLjk2NjY3MzUzMzEyMTc2QzIzNS4zMzYyODU2MjQ5MjcsNDQ1LjEzMzM0MDE5OTc4ODQsMjU2Ljk0MDQxMTEwNzc1MTYsNDUzLjQ2NjY3MzUzMzEyMTc2LDI1Ni45NDA0MTExMDc3NTE2LDQ2MS44MDAwMDY4NjY0NTUxQzI1Ni45NDA0MTExMDc3NTE2LDQ3MC4xMzMzNDAxOTk3ODg0LDIzNS4zMzYyODU2MjQ5MjcsNDc4LjQ2NjY3MzUzMzEyMTc2LDIyNC41MzQyMjI4ODM1MTQ3Myw0ODIuNjMzMzQwMTk5Nzg4NEwyMTMuNzMyMTYwMTQyMTAyNDMsNDg2LjgwMDAwNjg2NjQ1NTEiIGNsYXNzPSJwYXRoIj48L3BhdGg+PGRlZnM+PG1hcmtlciBvcmllbnQ9ImF1dG8iIG1hcmtlckhlaWdodD0iNiIgbWFya2VyV2lkdGg9IjgiIG1hcmtlclVuaXRzPSJzdHJva2VXaWR0aCIgcmVmWT0iNSIgcmVmWD0iOSIgdmlld0JveD0iMCAwIDEwIDEwIiBpZD0iYXJyb3doZWFkNzQiPjxwYXRoIHN0eWxlPSJzdHJva2Utd2lkdGg6IDE7IHN0cm9rZS1kYXNoYXJyYXk6IDEsIDA7IiBjbGFzcz0iYXJyb3doZWFkUGF0aCIgZD0iTSAwIDAgTCAxMCA1IEwgMCAxMCB6Ij48L3BhdGg+PC9tYXJrZXI+PC9kZWZzPjwvZz48ZyBzdHlsZT0ib3BhY2l0eTogMTsiIGlkPSJMLUV4Y2VsV3JpdGVyLUVuZCIgY2xhc3M9ImVkZ2VQYXRoIExTLUV4Y2VsV3JpdGVyIExFLUVuZCI+PHBhdGggc3R5bGU9ImZpbGw6bm9uZSIgbWFya2VyLWVuZD0idXJsKCNhcnJvd2hlYWQ3NSkiIGQ9Ik0yMjIuNDE5OTQzMTQyNzkzMyw1MjUuMjAwMDA4MzkyMzM0TDIzNS4xMDczNzUzODQwOTA0Niw1MjkuMzY2Njc1MDU5MDAwNkMyNDcuNzk0ODA3NjI1Mzg3NTYsNTMzLjUzMzM0MTcyNTY2NzQsMjczLjE2OTY3MjEwNzk4MTg1LDU0MS44NjY2NzUwNTkwMDA2LDI4NC45MTQ0MTk1OTkzMzY1NSw1NTAuMjAwMDA4MzkyMzM0QzI5Ni42NTkxNjcwOTA2OTEzLDU1OC41MzMzNDE3MjU2Njc0LDI5NC43NzM3OTc1OTA4MDY0NSw1NjYuODY2Njc1MDU5MDAwNiwyOTMuODMxMTEyODQwODY0LDU3MS4wMzMzNDE3MjU2Njc0TDI5Mi44ODg0MjgwOTA5MjE2LDU3NS4yMDAwMDgzOTIzMzQiIGNsYXNzPSJwYXRoIj48L3BhdGg+PGRlZnM+PG1hcmtlciBvcmllbnQ9ImF1dG8iIG1hcmtlckhlaWdodD0iNiIgbWFya2VyV2lkdGg9IjgiIG1hcmtlclVuaXRzPSJzdHJva2VXaWR0aCIgcmVmWT0iNSIgcmVmWD0iOSIgdmlld0JveD0iMCAwIDEwIDEwIiBpZD0iYXJyb3doZWFkNzUiPjxwYXRoIHN0eWxlPSJzdHJva2Utd2lkdGg6IDE7IHN0cm9rZS1kYXNoYXJyYXk6IDEsIDA7IiBjbGFzcz0iYXJyb3doZWFkUGF0aCIgZD0iTSAwIDAgTCAxMCA1IEwgMCAxMCB6Ij48L3BhdGg+PC9tYXJrZXI+PC9kZWZzPjwvZz48ZyBzdHlsZT0ib3BhY2l0eTogMTsiIGlkPSJMLUVycm9ySGFuZGxlci1FbmQiIGNsYXNzPSJlZGdlUGF0aCBMUy1FcnJvckhhbmRsZXIgTEUtRW5kIj48cGF0aCBzdHlsZT0iZmlsbDpub25lIiBtYXJrZXItZW5kPSJ1cmwoI2Fycm93aGVhZDc2KSIgZD0iTTQyMS44MjA2MDMxMzAwODU0Myw1MjUuMjAwMDA4MzkyMzM0TDQyMy43MDU5NzI2Mjk5NzAzLDUyOS4zNjY2NzUwNTkwMDA2QzQyNS41OTEzNDIxMjk4NTUxLDUzMy41MzMzNDE3MjU2Njc0LDQyOS4zNjIwODExMjk2MjQ4LDU0MS44NjY2NzUwNTkwMDA2LDQxNy42MTczMzM2MzgyNzAxLDU1MC4yMDAwMDgzOTIzMzRDNDA1Ljg3MjU4NjE0NjkxNTQsNTU4LjUzMzM0MTcyNTY2NzQsMzc4LjYxMjM1MjE2NDQzNjMsNTY2Ljg2NjY3NTA1OTAwMDYsMzY0Ljk4MjIzNTE3MzE5NjY3LDU3MS4wMzMzNDE3MjU2Njc0TDM1MS4zNTIxMTgxODE5NTcxLDU3NS4yMDAwMDgzOTIzMzQiIGNsYXNzPSJwYXRoIj48L3BhdGg+PGRlZnM+PG1hcmtlciBvcmllbnQ9ImF1dG8iIG1hcmtlckhlaWdodD0iNiIgbWFya2VyV2lkdGg9IjgiIG1hcmtlclVuaXRzPSJzdHJva2VXaWR0aCIgcmVmWT0iNSIgcmVmWD0iOSIgdmlld0JveD0iMCAwIDEwIDEwIiBpZD0iYXJyb3doZWFkNzYiPjxwYXRoIHN0eWxlPSJzdHJva2Utd2lkdGg6IDE7IHN0cm9rZS1kYXNoYXJyYXk6IDEsIDA7IiBjbGFzcz0iYXJyb3doZWFkUGF0aCIgZD0iTSAwIDAgTCAxMCA1IEwgMCAxMCB6Ij48L3BhdGg+PC9tYXJrZXI+PC9kZWZzPjwvZz48ZyBzdHlsZT0ib3BhY2l0eTogMTsiIGlkPSJMLUVuZC1Eb25lIiBjbGFzcz0iZWRnZVBhdGggTFMtRW5kIExFLURvbmUiPjxwYXRoIHN0eWxlPSJmaWxsOm5vbmUiIG1hcmtlci1lbmQ9InVybCgjYXJyb3doZWFkNzcpIiBkPSJNMjkyLjg4ODQyODA5MDkyMTYsNjEzLjYwMDAwOTkxODIxMjlMMjkzLjgzMTExMjg0MDg2NCw2MTcuNzY2Njc2NTg0ODc5NUMyOTQuNzczNzk3NTkwODA2NDUsNjIxLjkzMzM0MzI1MTU0NjMsMjk2LjY1OTE2NzA5MDY5MTMsNjMwLjI2NjY3NjU4NDg3OTUsMjk2LjY1OTE2NzA5MDY5MTI2LDYzOC42MDAwMDk5MTgyMTI5QzI5Ni42NTkxNjcwOTA2OTEzLDY0Ni45MzMzNDMyNTE1NDYzLDI5NC43NzM3OTc1OTA4MDY0NSw2NTUuMjY2Njc2NTg0ODc5NSwyOTMuODMxMTEyODQwODY0LDY1OS40MzMzNDMyNTE1NDYzTDI5Mi44ODg0MjgwOTA5MjE2LDY2My42MDAwMDk5MTgyMTI5IiBjbGFzcz0icGF0aCI+PC9wYXRoPjxkZWZzPjxtYXJrZXIgb3JpZW50PSJhdXRvIiBtYXJrZXJIZWlnaHQ9IjYiIG1hcmtlcldpZHRoPSI4IiBtYXJrZXJVbml0cz0ic3Ryb2tlV2lkdGgiIHJlZlk9IjUiIHJlZlg9IjkiIHZpZXdCb3g9IjAgMCAxMCAxMCIgaWQ9ImFycm93aGVhZDc3Ij48cGF0aCBzdHlsZT0ic3Ryb2tlLXdpZHRoOiAxOyBzdHJva2UtZGFzaGFycmF5OiAxLCAwOyIgY2xhc3M9ImFycm93aGVhZFBhdGgiIGQ9Ik0gMCAwIEwgMTAgNSBMIDAgMTAgeiI+PC9wYXRoPjwvbWFya2VyPjwvZGVmcz48L2c+PC9nPjxnIGNsYXNzPSJlZGdlTGFiZWxzIj48ZyBzdHlsZT0ib3BhY2l0eTogMTsiIHRyYW5zZm9ybT0iIiBjbGFzcz0iZWRnZUxhYmVsIj48ZyBjbGFzcz0ibGFiZWwiIHRyYW5zZm9ybT0idHJhbnNsYXRlKDAsMCkiPjxyZWN0IGhlaWdodD0iMCIgd2lkdGg9IjAiIHJ5PSIwIiByeD0iMCI+PC9yZWN0Pjx0ZXh0Pjx0c3BhbiB4PSIxIiBkeT0iMWVtIiB4bWw6c3BhY2U9InByZXNlcnZlIj48L3RzcGFuPjwvdGV4dD48L2c+PC9nPjxnIHN0eWxlPSJvcGFjaXR5OiAxOyIgdHJhbnNmb3JtPSIiIGNsYXNzPSJlZGdlTGFiZWwiPjxnIGNsYXNzPSJsYWJlbCIgdHJhbnNmb3JtPSJ0cmFuc2xhdGUoMCwwKSI+PHJlY3QgaGVpZ2h0PSIwIiB3aWR0aD0iMCIgcnk9IjAiIHJ4PSIwIj48L3JlY3Q+PHRleHQ+PHRzcGFuIHg9IjEiIGR5PSIxZW0iIHhtbDpzcGFjZT0icHJlc2VydmUiPjwvdHNwYW4+PC90ZXh0PjwvZz48L2c+PGcgc3R5bGU9Im9wYWNpdHk6IDE7IiB0cmFuc2Zvcm09InRyYW5zbGF0ZSgxMzcuNTU2MjUzNDMzMjI3NTQsMjU3LjQwMDAwNDM4NjkwMTg2KSIgY2xhc3M9ImVkZ2VMYWJlbCI+PGcgY2xhc3M9ImxhYmVsIiB0cmFuc2Zvcm09InRyYW5zbGF0ZSgtMTYuMzk5OTk5NjE4NTMwMjczLC05LjE5OTk5OTgwOTI2NTEzNykiPjxyZWN0IGhlaWdodD0iMTguMzk5OTk5NjE4NTMwMjczIiB3aWR0aD0iMzIuNzk5OTk5MjM3MDYwNTUiIHJ5PSIwIiByeD0iMCI+PC9yZWN0Pjx0ZXh0Pjx0c3BhbiB4PSIxIiBkeT0iMWVtIiB4bWw6c3BhY2U9InByZXNlcnZlIj7miJDlip88L3RzcGFuPjwvdGV4dD48L2c+PC9nPjxnIHN0eWxlPSJvcGFjaXR5OiAxOyIgdHJhbnNmb3JtPSJ0cmFuc2xhdGUoMzg2LjczMjgyMDUxMDg2NDI2LDM2NC4yMDAwMDU1MzEzMTEwNCkiIGNsYXNzPSJlZGdlTGFiZWwiPjxnIGNsYXNzPSJsYWJlbCIgdHJhbnNmb3JtPSJ0cmFuc2xhdGUoLTE2LjM5OTk5OTYxODUzMDI3MywtOS4xOTk5OTk4MDkyNjUxMzcpIj48cmVjdCBoZWlnaHQ9IjE4LjM5OTk5OTYxODUzMDI3MyIgd2lkdGg9IjMyLjc5OTk5OTIzNzA2MDU1IiByeT0iMCIgcng9IjAiPjwvcmVjdD48dGV4dD48dHNwYW4geD0iMSIgZHk9IjFlbSIgeG1sOnNwYWNlPSJwcmVzZXJ2ZSI+5aSx6LSlPC90c3Bhbj48L3RleHQ+PC9nPjwvZz48ZyBzdHlsZT0ib3BhY2l0eTogMTsiIHRyYW5zZm9ybT0iIiBjbGFzcz0iZWRnZUxhYmVsIj48ZyBjbGFzcz0ibGFiZWwiIHRyYW5zZm9ybT0idHJhbnNsYXRlKDAsMCkiPjxyZWN0IGhlaWdodD0iMCIgd2lkdGg9IjAiIHJ5PSIwIiByeD0iMCI+PC9yZWN0Pjx0ZXh0Pjx0c3BhbiB4PSIxIiBkeT0iMWVtIiB4bWw6c3BhY2U9InByZXNlcnZlIj48L3RzcGFuPjwvdGV4dD48L2c+PC9nPjxnIHN0eWxlPSJvcGFjaXR5OiAxOyIgdHJhbnNmb3JtPSIiIGNsYXNzPSJlZGdlTGFiZWwiPjxnIGNsYXNzPSJsYWJlbCIgdHJhbnNmb3JtPSJ0cmFuc2xhdGUoMCwwKSI+PHJlY3QgaGVpZ2h0PSIwIiB3aWR0aD0iMCIgcnk9IjAiIHJ4PSIwIj48L3JlY3Q+PHRleHQ+PHRzcGFuIHg9IjEiIGR5PSIxZW0iIHhtbDpzcGFjZT0icHJlc2VydmUiPjwvdHNwYW4+PC90ZXh0PjwvZz48L2c+PGcgc3R5bGU9Im9wYWNpdHk6IDE7IiB0cmFuc2Zvcm09IiIgY2xhc3M9ImVkZ2VMYWJlbCI+PGcgY2xhc3M9ImxhYmVsIiB0cmFuc2Zvcm09InRyYW5zbGF0ZSgwLDApIj48cmVjdCBoZWlnaHQ9IjAiIHdpZHRoPSIwIiByeT0iMCIgcng9IjAiPjwvcmVjdD48dGV4dD48dHNwYW4geD0iMSIgZHk9IjFlbSIgeG1sOnNwYWNlPSJwcmVzZXJ2ZSI+PC90c3Bhbj48L3RleHQ+PC9nPjwvZz48ZyBzdHlsZT0ib3BhY2l0eTogMTsiIHRyYW5zZm9ybT0iIiBjbGFzcz0iZWRnZUxhYmVsIj48ZyBjbGFzcz0ibGFiZWwiIHRyYW5zZm9ybT0idHJhbnNsYXRlKDAsMCkiPjxyZWN0IGhlaWdodD0iMCIgd2lkdGg9IjAiIHJ5PSIwIiByeD0iMCI+PC9yZWN0Pjx0ZXh0Pjx0c3BhbiB4PSIxIiBkeT0iMWVtIiB4bWw6c3BhY2U9InByZXNlcnZlIj48L3RzcGFuPjwvdGV4dD48L2c+PC9nPjxnIHN0eWxlPSJvcGFjaXR5OiAxOyIgdHJhbnNmb3JtPSIiIGNsYXNzPSJlZGdlTGFiZWwiPjxnIGNsYXNzPSJsYWJlbCIgdHJhbnNmb3JtPSJ0cmFuc2xhdGUoMCwwKSI+PHJlY3QgaGVpZ2h0PSIwIiB3aWR0aD0iMCIgcnk9IjAiIHJ4PSIwIj48L3JlY3Q+PHRleHQ+PHRzcGFuIHg9IjEiIGR5PSIxZW0iIHhtbDpzcGFjZT0icHJlc2VydmUiPjwvdHNwYW4+PC90ZXh0PjwvZz48L2c+PGcgc3R5bGU9Im9wYWNpdHk6IDE7IiB0cmFuc2Zvcm09IiIgY2xhc3M9ImVkZ2VMYWJlbCI+PGcgY2xhc3M9ImxhYmVsIiB0cmFuc2Zvcm09InRyYW5zbGF0ZSgwLDApIj48cmVjdCBoZWlnaHQ9IjAiIHdpZHRoPSIwIiByeT0iMCIgcng9IjAiPjwvcmVjdD48dGV4dD48dHNwYW4geD0iMSIgZHk9IjFlbSIgeG1sOnNwYWNlPSJwcmVzZXJ2ZSI+PC90c3Bhbj48L3RleHQ+PC9nPjwvZz48ZyBzdHlsZT0ib3BhY2l0eTogMTsiIHRyYW5zZm9ybT0iIiBjbGFzcz0iZWRnZUxhYmVsIj48ZyBjbGFzcz0ibGFiZWwiIHRyYW5zZm9ybT0idHJhbnNsYXRlKDAsMCkiPjxyZWN0IGhlaWdodD0iMCIgd2lkdGg9IjAiIHJ5PSIwIiByeD0iMCI+PC9yZWN0Pjx0ZXh0Pjx0c3BhbiB4PSIxIiBkeT0iMWVtIiB4bWw6c3BhY2U9InByZXNlcnZlIj48L3RzcGFuPjwvdGV4dD48L2c+PC9nPjxnIHN0eWxlPSJvcGFjaXR5OiAxOyIgdHJhbnNmb3JtPSJ0cmFuc2xhdGUoMTkwLjM1NjI1MjY3MDI4ODEsMjU3LjQwMDAwNDM4NjkwMTg2KSIgY2xhc3M9ImVkZ2VMYWJlbCI+PGcgY2xhc3M9ImxhYmVsIiB0cmFuc2Zvcm09InRyYW5zbGF0ZSgtMTYuMzk5OTk5NjE4NTMwMjczLC05LjE5OTk5OTgwOTI2NTEzNykiPjxyZWN0IGhlaWdodD0iMTguMzk5OTk5NjE4NTMwMjczIiB3aWR0aD0iMzIuNzk5OTk5MjM3MDYwNTUiIHJ5PSIwIiByeD0iMCI+PC9yZWN0Pjx0ZXh0Pjx0c3BhbiB4PSIxIiBkeT0iMWVtIiB4bWw6c3BhY2U9InByZXNlcnZlIj7miJDlip88L3RzcGFuPjwvdGV4dD48L2c+PC9nPjxnIHN0eWxlPSJvcGFjaXR5OiAxOyIgdHJhbnNmb3JtPSJ0cmFuc2xhdGUoNDM5LjUzMjgxOTc0NzkyNDgsMzY0LjIwMDAwNTUzMTMxMTA0KSIgY2xhc3M9ImVkZ2VMYWJlbCI+PGcgY2xhc3M9ImxhYmVsIiB0cmFuc2Zvcm09InRyYW5zbGF0ZSgtMTYuMzk5OTk5NjE4NTMwMjczLC05LjE5OTk5OTgwOTI2NTEzNykiPjxyZWN0IGhlaWdodD0iMTguMzk5OTk5NjE4NTMwMjczIiB3aWR0aD0iMzIuNzk5OTk5MjM3MDYwNTUiIHJ5PSIwIiByeD0iMCI+PC9yZWN0Pjx0ZXh0Pjx0c3BhbiB4PSIxIiBkeT0iMWVtIiB4bWw6c3BhY2U9InByZXNlcnZlIj7lpLHotKU8L3RzcGFuPjwvdGV4dD48L2c+PC9nPjxnIHN0eWxlPSJvcGFjaXR5OiAxOyIgdHJhbnNmb3JtPSIiIGNsYXNzPSJlZGdlTGFiZWwiPjxnIGNsYXNzPSJsYWJlbCIgdHJhbnNmb3JtPSJ0cmFuc2xhdGUoMCwwKSI+PHJlY3QgaGVpZ2h0PSIwIiB3aWR0aD0iMCIgcnk9IjAiIHJ4PSIwIj48L3JlY3Q+PHRleHQ+PHRzcGFuIHg9IjEiIGR5PSIxZW0iIHhtbDpzcGFjZT0icHJlc2VydmUiPjwvdHNwYW4+PC90ZXh0PjwvZz48L2c+PGcgc3R5bGU9Im9wYWNpdHk6IDE7IiB0cmFuc2Zvcm09IiIgY2xhc3M9ImVkZ2VMYWJlbCI+PGcgY2xhc3M9ImxhYmVsIiB0cmFuc2Zvcm09InRyYW5zbGF0ZSgwLDApIj48cmVjdCBoZWlnaHQ9IjAiIHdpZHRoPSIwIiByeT0iMCIgcng9IjAiPjwvcmVjdD48dGV4dD48dHNwYW4geD0iMSIgZHk9IjFlbSIgeG1sOnNwYWNlPSJwcmVzZXJ2ZSI+PC90c3Bhbj48L3RleHQ+PC9nPjwvZz48ZyBzdHlsZT0ib3BhY2l0eTogMTsiIHRyYW5zZm9ybT0iIiBjbGFzcz0iZWRnZUxhYmVsIj48ZyBjbGFzcz0ibGFiZWwiIHRyYW5zZm9ybT0idHJhbnNsYXRlKDAsMCkiPjxyZWN0IGhlaWdodD0iMCIgd2lkdGg9IjAiIHJ5PSIwIiByeD0iMCI+PC9yZWN0Pjx0ZXh0Pjx0c3BhbiB4PSIxIiBkeT0iMWVtIiB4bWw6c3BhY2U9InByZXNlcnZlIj48L3RzcGFuPjwvdGV4dD48L2c+PC9nPjxnIHN0eWxlPSJvcGFjaXR5OiAxOyIgdHJhbnNmb3JtPSIiIGNsYXNzPSJlZGdlTGFiZWwiPjxnIGNsYXNzPSJsYWJlbCIgdHJhbnNmb3JtPSJ0cmFuc2xhdGUoMCwwKSI+PHJlY3QgaGVpZ2h0PSIwIiB3aWR0aD0iMCIgcnk9IjAiIHJ4PSIwIj48L3JlY3Q+PHRleHQ+PHRzcGFuIHg9IjEiIGR5PSIxZW0iIHhtbDpzcGFjZT0icHJlc2VydmUiPjwvdHNwYW4+PC90ZXh0PjwvZz48L2c+PGcgc3R5bGU9Im9wYWNpdHk6IDE7IiB0cmFuc2Zvcm09IiIgY2xhc3M9ImVkZ2VMYWJlbCI+PGcgY2xhc3M9ImxhYmVsIiB0cmFuc2Zvcm09InRyYW5zbGF0ZSgwLDApIj48cmVjdCBoZWlnaHQ9IjAiIHdpZHRoPSIwIiByeT0iMCIgcng9IjAiPjwvcmVjdD48dGV4dD48dHNwYW4geD0iMSIgZHk9IjFlbSIgeG1sOnNwYWNlPSJwcmVzZXJ2ZSI+PC90c3Bhbj48L3RleHQ+PC9nPjwvZz48L2c+PGcgY2xhc3M9Im5vZGVzIj48ZyBzdHlsZT0ib3BhY2l0eTogMTsiIHRyYW5zZm9ybT0idHJhbnNsYXRlKDI4OC41NDQ1MzY1OTA1NzYyLDI3LjIwMDAwMDc2MjkzOTQ1MykiIGlkPSJmbG93Y2hhcnQtU3RhcnQtMzYiIGNsYXNzPSJub2RlIGRlZmF1bHQiPjxyZWN0IGNsYXNzPSJsYWJlbC1jb250YWluZXIiIGhlaWdodD0iMzguMzk5OTk5NjE4NTMwMjciIHdpZHRoPSI1Mi43OTk5OTkyMzcwNjA1NSIgeT0iLTE5LjE5OTk5OTgwOTI2NTEzNyIgeD0iLTI2LjM5OTk5OTYxODUzMDI3MyIgcnk9IjAiIHJ4PSIwIj48L3JlY3Q+PGcgdHJhbnNmb3JtPSJ0cmFuc2xhdGUoMCwwKSIgY2xhc3M9ImxhYmVsIj48ZyB0cmFuc2Zvcm09InRyYW5zbGF0ZSgtMTYuMzk5OTk5NjE4NTMwMjczLC05LjE5OTk5OTgwOTI2NTEzNykiPjx0ZXh0IHN0eWxlPSIiPjx0c3BhbiB4PSIxIiBkeT0iMWVtIiB4bWw6c3BhY2U9InByZXNlcnZlIj7lvIDlp4s8L3RzcGFuPjwvdGV4dD48L2c+PC9nPjwvZz48ZyBzdHlsZT0ib3BhY2l0eTogMTsiIHRyYW5zZm9ybT0idHJhbnNsYXRlKDI4OC41NDQ1MzY1OTA1NzYyLDExNS42MDAwMDIyODg4MTgzNikiIGlkPSJmbG93Y2hhcnQtTG9vcC0zNyIgY2xhc3M9Im5vZGUgZGVmYXVsdCI+PHJlY3QgY2xhc3M9ImxhYmVsLWNvbnRhaW5lciIgaGVpZ2h0PSIzOC4zOTk5OTk2MTg1MzAyNyIgd2lkdGg9IjE0OC44MDAwMDMwNTE3NTc4IiB5PSItMTkuMTk5OTk5ODA5MjY1MTM3IiB4PSItNzQuNDAwMDAxNTI1ODc4OSIgcnk9IjAiIHJ4PSIwIj48L3JlY3Q+PGcgdHJhbnNmb3JtPSJ0cmFuc2xhdGUoMCwwKSIgY2xhc3M9ImxhYmVsIj48ZyB0cmFuc2Zvcm09InRyYW5zbGF0ZSgtNjQuNDAwMDAxNTI1ODc4OSwtOS4xOTk5OTk4MDkyNjUxMzcpIj48dGV4dCBzdHlsZT0iIj48dHNwYW4geD0iMSIgZHk9IjFlbSIgeG1sOnNwYWNlPSJwcmVzZXJ2ZSI+5b6q546v5q+P5Y+q6IKh56Wo5ZCN56ewPC90c3Bhbj48L3RleHQ+PC9nPjwvZz48L2c+PGcgc3R5bGU9Im9wYWNpdHk6IDE7IiB0cmFuc2Zvcm09InRyYW5zbGF0ZSgyODguNTQ0NTM2NTkwNTc2MiwyMDQuMDAwMDAzODE0Njk3MjcpIiBpZD0iZmxvd2NoYXJ0LVJlcXVlc3QtMzkiIGNsYXNzPSJub2RlIGRlZmF1bHQiPjxyZWN0IGNsYXNzPSJsYWJlbC1jb250YWluZXIiIGhlaWdodD0iMzguMzk5OTk5NjE4NTMwMjciIHdpZHRoPSIyNTEuNTY4NzU2MTAzNTE1NjIiIHk9Ii0xOS4xOTk5OTk4MDkyNjUxMzciIHg9Ii0xMjUuNzg0Mzc4MDUxNzU3ODEiIHJ5PSIwIiByeD0iMCI+PC9yZWN0PjxnIHRyYW5zZm9ybT0idHJhbnNsYXRlKDAsMCkiIGNsYXNzPSJsYWJlbCI+PGcgdHJhbnNmb3JtPSJ0cmFuc2xhdGUoLTExNS43ODQzNzgwNTE3NTc4MSwtOS4xOTk5OTk4MDkyNjUxMzcpIj48dGV4dCBzdHlsZT0iIj48dHNwYW4geD0iMSIgZHk9IjFlbSIgeG1sOnNwYWNlPSJwcmVzZXJ2ZSI+5Y+R6YCBSFRUUOivt+axguiOt+WPluiCoeelqOWOhuWPsuaVsOaNrjwvdHNwYW4+PC90ZXh0PjwvZz48L2c+PC9nPjxnIHN0eWxlPSJvcGFjaXR5OiAxOyIgdHJhbnNmb3JtPSJ0cmFuc2xhdGUoMTYzLjk1NjI1MzA1MTc1NzgsMzEwLjgwMDAwNDk1OTEwNjQ1KSIgaWQ9ImZsb3djaGFydC1KU09OQ29udmVyc2lvbi00MSIgY2xhc3M9Im5vZGUgZGVmYXVsdCI+PHJlY3QgY2xhc3M9ImxhYmVsLWNvbnRhaW5lciIgaGVpZ2h0PSIzOC4zOTk5OTk2MTg1MzAyNyIgd2lkdGg9IjI0OS4xMTI1MDMwNTE3NTc4IiB5PSItMTkuMTk5OTk5ODA5MjY1MTM3IiB4PSItMTI0LjU1NjI1MTUyNTg3ODkiIHJ5PSIwIiByeD0iMCI+PC9yZWN0PjxnIHRyYW5zZm9ybT0idHJhbnNsYXRlKDAsMCkiIGNsYXNzPSJsYWJlbCI+PGcgdHJhbnNmb3JtPSJ0cmFuc2xhdGUoLTExNC41NTYyNTE1MjU4Nzg5LC05LjE5OTk5OTgwOTI2NTEzNykiPjx0ZXh0IHN0eWxlPSIiPjx0c3BhbiB4PSIxIiBkeT0iMWVtIiB4bWw6c3BhY2U9InByZXNlcnZlIj7lsIbor7fmsYLliLDnmoTmlbDmja7ovazmjaLkuLpKU09O5qC85byPPC90c3Bhbj48L3RleHQ+PC9nPjwvZz48L2c+PGcgc3R5bGU9Im9wYWNpdHk6IDE7IiB0cmFuc2Zvcm09InRyYW5zbGF0ZSg0MTMuMTMyODIwMTI5Mzk0NTMsNTA2LjAwMDAwNzYyOTM5NDUzKSIgaWQ9ImZsb3djaGFydC1FcnJvckhhbmRsZXItNDMiIGNsYXNzPSJub2RlIGRlZmF1bHQiPjxyZWN0IGNsYXNzPSJsYWJlbC1jb250YWluZXIiIGhlaWdodD0iMzguMzk5OTk5NjE4NTMwMjciIHdpZHRoPSIxNDguODAwMDAzMDUxNzU3OCIgeT0iLTE5LjE5OTk5OTgwOTI2NTEzNyIgeD0iLTc0LjQwMDAwMTUyNTg3ODkiIHJ5PSIwIiByeD0iMCI+PC9yZWN0PjxnIHRyYW5zZm9ybT0idHJhbnNsYXRlKDAsMCkiIGNsYXNzPSJsYWJlbCI+PGcgdHJhbnNmb3JtPSJ0cmFuc2xhdGUoLTY0LjQwMDAwMTUyNTg3ODksLTkuMTk5OTk5ODA5MjY1MTM3KSI+PHRleHQgc3R5bGU9IiI+PHRzcGFuIHg9IjEiIGR5PSIxZW0iIHhtbDpzcGFjZT0icHJlc2VydmUiPuWkhOeQhuivt+axguWksei0peaDheWGtTwvdHNwYW4+PC90ZXh0PjwvZz48L2c+PC9nPjxnIHN0eWxlPSJvcGFjaXR5OiAxOyIgdHJhbnNmb3JtPSJ0cmFuc2xhdGUoMTYzLjk1NjI1MzA1MTc1NzgsNDE3LjYwMDAwNjEwMzUxNTYpIiBpZD0iZmxvd2NoYXJ0LURhdGFGcmFtZUNvbnZlcnNpb24tNDUiIGNsYXNzPSJub2RlIGRlZmF1bHQiPjxyZWN0IGNsYXNzPSJsYWJlbC1jb250YWluZXIiIGhlaWdodD0iMzguMzk5OTk5NjE4NTMwMjciIHdpZHRoPSIzMTEuOTEyNTA2MTAzNTE1NiIgeT0iLTE5LjE5OTk5OTgwOTI2NTEzNyIgeD0iLTE1NS45NTYyNTMwNTE3NTc4IiByeT0iMCIgcng9IjAiPjwvcmVjdD48ZyB0cmFuc2Zvcm09InRyYW5zbGF0ZSgwLDApIiBjbGFzcz0ibGFiZWwiPjxnIHRyYW5zZm9ybT0idHJhbnNsYXRlKC0xNDUuOTU2MjUzMDUxNzU3OCwtOS4xOTk5OTk4MDkyNjUxMzcpIj48dGV4dCBzdHlsZT0iIj48dHNwYW4geD0iMSIgZHk9IjFlbSIgeG1sOnNwYWNlPSJwcmVzZXJ2ZSI+5bCG6I635Y+W55qESlNPTuaVsOaNrui9rOaNouS4ukRhdGFGcmFtZeWvueixoTwvdHNwYW4+PC90ZXh0PjwvZz48L2c+PC9nPjxnIHN0eWxlPSJvcGFjaXR5OiAxOyIgdHJhbnNmb3JtPSJ0cmFuc2xhdGUoMTYzLjk1NjI1MzA1MTc1NzgsNTA2LjAwMDAwNzYyOTM5NDUzKSIgaWQ9ImZsb3djaGFydC1FeGNlbFdyaXRlci00NyIgY2xhc3M9Im5vZGUgZGVmYXVsdCI+PHJlY3QgY2xhc3M9ImxhYmVsLWNvbnRhaW5lciIgaGVpZ2h0PSIzOC4zOTk5OTk2MTg1MzAyNyIgd2lkdGg9IjI0OS41NTMxMzExMDM1MTU2MiIgeT0iLTE5LjE5OTk5OTgwOTI2NTEzNyIgeD0iLTEyNC43NzY1NjU1NTE3NTc4MSIgcnk9IjAiIHJ4PSIwIj48L3JlY3Q+PGcgdHJhbnNmb3JtPSJ0cmFuc2xhdGUoMCwwKSIgY2xhc3M9ImxhYmVsIj48ZyB0cmFuc2Zvcm09InRyYW5zbGF0ZSgtMTE0Ljc3NjU2NTU1MTc1NzgxLC05LjE5OTk5OTgwOTI2NTEzNykiPjx0ZXh0IHN0eWxlPSIiPjx0c3BhbiB4PSIxIiBkeT0iMWVtIiB4bWw6c3BhY2U9InByZXNlcnZlIj7lsIZEYXRhRnJhbWXmlbDmja7lrZjlhaVFeGNlbOaWh+S7tjwvdHNwYW4+PC90ZXh0PjwvZz48L2c+PC9nPjxnIHN0eWxlPSJvcGFjaXR5OiAxOyIgdHJhbnNmb3JtPSJ0cmFuc2xhdGUoMjg4LjU0NDUzNjU5MDU3NjIsNTk0LjQwMDAwOTE1NTI3MzQpIiBpZD0iZmxvd2NoYXJ0LUVuZC00OSIgY2xhc3M9Im5vZGUgZGVmYXVsdCI+PHJlY3QgY2xhc3M9ImxhYmVsLWNvbnRhaW5lciIgaGVpZ2h0PSIzOC4zOTk5OTk2MTg1MzAyNyIgd2lkdGg9IjE4MS42MDAwMDYxMDM1MTU2MiIgeT0iLTE5LjE5OTk5OTgwOTI2NTEzNyIgeD0iLTkwLjgwMDAwMzA1MTc1NzgxIiByeT0iMCIgcng9IjAiPjwvcmVjdD48ZyB0cmFuc2Zvcm09InRyYW5zbGF0ZSgwLDApIiBjbGFzcz0ibGFiZWwiPjxnIHRyYW5zZm9ybT0idHJhbnNsYXRlKC04MC44MDAwMDMwNTE3NTc4MSwtOS4xOTk5OTk4MDkyNjUxMzcpIj48dGV4dCBzdHlsZT0iIj48dHNwYW4geD0iMSIgZHk9IjFlbSIgeG1sOnNwYWNlPSJwcmVzZXJ2ZSI+57uT5p2f5b2T5YmN6IKh56Wo5pWw5o2u6I635Y+WPC90c3Bhbj48L3RleHQ+PC9nPjwvZz48L2c+PGcgc3R5bGU9Im9wYWNpdHk6IDE7IiB0cmFuc2Zvcm09InRyYW5zbGF0ZSgyODguNTQ0NTM2NTkwNTc2Miw2ODIuODAwMDEwNjgxMTUyMykiIGlkPSJmbG93Y2hhcnQtRG9uZS01MyIgY2xhc3M9Im5vZGUgZGVmYXVsdCI+PHJlY3QgY2xhc3M9ImxhYmVsLWNvbnRhaW5lciIgaGVpZ2h0PSIzOC4zOTk5OTk2MTg1MzAyNyIgd2lkdGg9IjE4MC44MDAwMDMwNTE3NTc4IiB5PSItMTkuMTk5OTk5ODA5MjY1MTM3IiB4PSItOTAuNDAwMDAxNTI1ODc4OSIgcnk9IjAiIHJ4PSIwIj48L3JlY3Q+PGcgdHJhbnNmb3JtPSJ0cmFuc2xhdGUoMCwwKSIgY2xhc3M9ImxhYmVsIj48ZyB0cmFuc2Zvcm09InRyYW5zbGF0ZSgtODAuNDAwMDAxNTI1ODc4OSwtOS4xOTk5OTk4MDkyNjUxMzcpIj48dGV4dCBzdHlsZT0iIj48dHNwYW4geD0iMSIgZHk9IjFlbSIgeG1sOnNwYWNlPSJwcmVzZXJ2ZSI+5a6M5oiQ5omA5pyJ6IKh56Wo5pWw5o2u6I635Y+WPC90c3Bhbj48L3RleHQ+PC9nPjwvZz48L2c+PC9nPjwvZz48L2c+PC9zdmc+;" parent="1" vertex="1">
                        <mxGeometry y="-50" width="360" height="590" as="geometry"/>
                    </mxCell>
                </UserObject>
                <mxCell id="6" style="edgeStyle=none;html=1;" parent="1" source="5" edge="1">
                    <mxGeometry relative="1" as="geometry">
                        <mxPoint x="525.5914797283392" y="1136.88" as="targetPoint"/>
                    </mxGeometry>
                </mxCell>
                <UserObject label="" mermaidData="{&#10;  &quot;data&quot;: &quot;graph TD;\n    C[spiltData] --&gt; D[初始化volumes列表];\n    C --&gt; E[获取日期数据并倒置];\n    C --&gt; F[获取股票数据并倒置];\n    C --&gt; G[获取最高值和涨跌额数据并倒置];\n    C --&gt; H[获取成交金额数据并倒置];\n    D --&gt; I{是否所有数据已处理};\n    I -- 是 --&gt; J[返回处理后的数据字典];\n    I -- 否 --&gt; D;\n&quot;,&#10;  &quot;config&quot;: {&#10;    &quot;theme&quot;: &quot;neutral&quot;,&#10;    &quot;arrowMarkerAbsolute&quot;: false,&#10;    &quot;flowchart&quot;: {&#10;      &quot;htmlLabels&quot;: false&#10;    },&#10;    &quot;sequence&quot;: {&#10;      &quot;diagramMarginX&quot;: 50,&#10;      &quot;diagramMarginY&quot;: 10,&#10;      &quot;actorMargin&quot;: 50,&#10;      &quot;width&quot;: 150,&#10;      &quot;height&quot;: 65,&#10;      &quot;boxMargin&quot;: 10,&#10;      &quot;boxTextMargin&quot;: 5,&#10;      &quot;noteMargin&quot;: 10,&#10;      &quot;messageMargin&quot;: 35,&#10;      &quot;mirrorActors&quot;: true,&#10;      &quot;bottomMarginAdj&quot;: 1,&#10;      &quot;useMaxWidth&quot;: true,&#10;      &quot;rightAngles&quot;: false,&#10;      &quot;showSequenceNumbers&quot;: false&#10;    },&#10;    &quot;gantt&quot;: {&#10;      &quot;titleTopMargin&quot;: 25,&#10;      &quot;barHeight&quot;: 20,&#10;      &quot;barGap&quot;: 4,&#10;      &quot;topPadding&quot;: 50,&#10;      &quot;leftPadding&quot;: 75,&#10;      &quot;gridLineStartPadding&quot;: 35,&#10;      &quot;fontSize&quot;: 11,&#10;      &quot;fontFamily&quot;: &quot;\&quot;Open-Sans\&quot;, \&quot;sans-serif\&quot;&quot;,&#10;      &quot;numberSectionStyles&quot;: 4,&#10;      &quot;axisFormat&quot;: &quot;%Y-%m-%d&quot;&#10;    }&#10;  }&#10;}" id="5">
                    <mxCell style="shape=image;noLabel=1;verticalAlign=top;imageAspect=1;image=data:image/svg+xml,PHN2ZyB2aWV3Qm94PSIwIDAgMTE2MS43ODc1Mjg5OTE2OTkyIDUwMS42MDAwMDk5MTgyMTI5IiBzdHlsZT0ibWF4LXdpZHRoOiAxMTYxLjc4NzUyODk5MTY5OTJweDsiIGhlaWdodD0iNTAxLjYwMDAwOTkxODIxMjkiIGFyaWEtbGFiZWxsZWRieT0iY2hhcnQtdGl0bGUtZ2VNZXJtYWlkT3V0cHV0LTE3MTM3OTc1NzQ3ODYgY2hhcnQtZGVzYy1nZU1lcm1haWRPdXRwdXQtMTcxMzc5NzU3NDc4NiIgcm9sZT0iaW1nIiB4bWxuczp4bGluaz0iaHR0cDovL3d3dy53My5vcmcvMTk5OS94bGluayIgeG1sbnM9Imh0dHA6Ly93d3cudzMub3JnLzIwMDAvc3ZnIiB3aWR0aD0iMTAwJSIgaWQ9ImdlTWVybWFpZE91dHB1dC0xNzEzNzk3NTc0Nzg2Ij48dGl0bGUgaWQ9ImNoYXJ0LXRpdGxlLWdlTWVybWFpZE91dHB1dC0xNzEzNzk3NTc0Nzg2Ij48L3RpdGxlPjxkZXNjIGlkPSJjaGFydC1kZXNjLWdlTWVybWFpZE91dHB1dC0xNzEzNzk3NTc0Nzg2Ij48L2Rlc2M+PHN0eWxlPiNnZU1lcm1haWRPdXRwdXQtMTcxMzc5NzU3NDc4NiB7Zm9udC1mYW1pbHk6InRyZWJ1Y2hldCBtcyIsdmVyZGFuYSxhcmlhbCxzYW5zLXNlcmlmO2ZvbnQtc2l6ZToxNnB4O2ZpbGw6IzAwMDAwMDt9I2dlTWVybWFpZE91dHB1dC0xNzEzNzk3NTc0Nzg2IC5lcnJvci1pY29ue2ZpbGw6IzU1MjIyMjt9I2dlTWVybWFpZE91dHB1dC0xNzEzNzk3NTc0Nzg2IC5lcnJvci10ZXh0e2ZpbGw6IzU1MjIyMjtzdHJva2U6IzU1MjIyMjt9I2dlTWVybWFpZE91dHB1dC0xNzEzNzk3NTc0Nzg2IC5lZGdlLXRoaWNrbmVzcy1ub3JtYWx7c3Ryb2tlLXdpZHRoOjJweDt9I2dlTWVybWFpZE91dHB1dC0xNzEzNzk3NTc0Nzg2IC5lZGdlLXRoaWNrbmVzcy10aGlja3tzdHJva2Utd2lkdGg6My41cHg7fSNnZU1lcm1haWRPdXRwdXQtMTcxMzc5NzU3NDc4NiAuZWRnZS1wYXR0ZXJuLXNvbGlke3N0cm9rZS1kYXNoYXJyYXk6MDt9I2dlTWVybWFpZE91dHB1dC0xNzEzNzk3NTc0Nzg2IC5lZGdlLXBhdHRlcm4tZGFzaGVke3N0cm9rZS1kYXNoYXJyYXk6Mzt9I2dlTWVybWFpZE91dHB1dC0xNzEzNzk3NTc0Nzg2IC5lZGdlLXBhdHRlcm4tZG90dGVke3N0cm9rZS1kYXNoYXJyYXk6Mjt9I2dlTWVybWFpZE91dHB1dC0xNzEzNzk3NTc0Nzg2IC5tYXJrZXJ7ZmlsbDojNjY2O3N0cm9rZTojNjY2O30jZ2VNZXJtYWlkT3V0cHV0LTE3MTM3OTc1NzQ3ODYgLm1hcmtlci5jcm9zc3tzdHJva2U6IzY2Njt9I2dlTWVybWFpZE91dHB1dC0xNzEzNzk3NTc0Nzg2IHN2Z3tmb250LWZhbWlseToidHJlYnVjaGV0IG1zIix2ZXJkYW5hLGFyaWFsLHNhbnMtc2VyaWY7Zm9udC1zaXplOjE2cHg7fSNnZU1lcm1haWRPdXRwdXQtMTcxMzc5NzU3NDc4NiAubGFiZWx7Zm9udC1mYW1pbHk6InRyZWJ1Y2hldCBtcyIsdmVyZGFuYSxhcmlhbCxzYW5zLXNlcmlmO2NvbG9yOiMwMDAwMDA7fSNnZU1lcm1haWRPdXRwdXQtMTcxMzc5NzU3NDc4NiAuY2x1c3Rlci1sYWJlbCB0ZXh0e2ZpbGw6IzMzMzt9I2dlTWVybWFpZE91dHB1dC0xNzEzNzk3NTc0Nzg2IC5jbHVzdGVyLWxhYmVsIHNwYW57Y29sb3I6IzMzMzt9I2dlTWVybWFpZE91dHB1dC0xNzEzNzk3NTc0Nzg2IC5sYWJlbCB0ZXh0LCNnZU1lcm1haWRPdXRwdXQtMTcxMzc5NzU3NDc4NiBzcGFue2ZpbGw6IzAwMDAwMDtjb2xvcjojMDAwMDAwO30jZ2VNZXJtYWlkT3V0cHV0LTE3MTM3OTc1NzQ3ODYgLm5vZGUgcmVjdCwjZ2VNZXJtYWlkT3V0cHV0LTE3MTM3OTc1NzQ3ODYgLm5vZGUgY2lyY2xlLCNnZU1lcm1haWRPdXRwdXQtMTcxMzc5NzU3NDc4NiAubm9kZSBlbGxpcHNlLCNnZU1lcm1haWRPdXRwdXQtMTcxMzc5NzU3NDc4NiAubm9kZSBwb2x5Z29uLCNnZU1lcm1haWRPdXRwdXQtMTcxMzc5NzU3NDc4NiAubm9kZSBwYXRoe2ZpbGw6I2VlZTtzdHJva2U6Izk5OTtzdHJva2Utd2lkdGg6MXB4O30jZ2VNZXJtYWlkT3V0cHV0LTE3MTM3OTc1NzQ3ODYgLm5vZGUgLmxhYmVse3RleHQtYWxpZ246Y2VudGVyO30jZ2VNZXJtYWlkT3V0cHV0LTE3MTM3OTc1NzQ3ODYgLm5vZGUuY2xpY2thYmxle2N1cnNvcjpwb2ludGVyO30jZ2VNZXJtYWlkT3V0cHV0LTE3MTM3OTc1NzQ3ODYgLmFycm93aGVhZFBhdGh7ZmlsbDojMzMzMzMzO30jZ2VNZXJtYWlkT3V0cHV0LTE3MTM3OTc1NzQ3ODYgLmVkZ2VQYXRoIC5wYXRoe3N0cm9rZTojNjY2O3N0cm9rZS13aWR0aDoyLjBweDt9I2dlTWVybWFpZE91dHB1dC0xNzEzNzk3NTc0Nzg2IC5mbG93Y2hhcnQtbGlua3tzdHJva2U6IzY2NjtmaWxsOm5vbmU7fSNnZU1lcm1haWRPdXRwdXQtMTcxMzc5NzU3NDc4NiAuZWRnZUxhYmVse2JhY2tncm91bmQtY29sb3I6d2hpdGU7dGV4dC1hbGlnbjpjZW50ZXI7fSNnZU1lcm1haWRPdXRwdXQtMTcxMzc5NzU3NDc4NiAuZWRnZUxhYmVsIHJlY3R7b3BhY2l0eTowLjU7YmFja2dyb3VuZC1jb2xvcjp3aGl0ZTtmaWxsOndoaXRlO30jZ2VNZXJtYWlkT3V0cHV0LTE3MTM3OTc1NzQ3ODYgLmNsdXN0ZXIgcmVjdHtmaWxsOmhzbCgwLCAwJSwgOTguOTIxNTY4NjI3NSUpO3N0cm9rZTojNzA3MDcwO3N0cm9rZS13aWR0aDoxcHg7fSNnZU1lcm1haWRPdXRwdXQtMTcxMzc5NzU3NDc4NiAuY2x1c3RlciB0ZXh0e2ZpbGw6IzMzMzt9I2dlTWVybWFpZE91dHB1dC0xNzEzNzk3NTc0Nzg2IC5jbHVzdGVyIHNwYW57Y29sb3I6IzMzMzt9I2dlTWVybWFpZE91dHB1dC0xNzEzNzk3NTc0Nzg2IGRpdi5tZXJtYWlkVG9vbHRpcHtwb3NpdGlvbjphYnNvbHV0ZTt0ZXh0LWFsaWduOmNlbnRlcjttYXgtd2lkdGg6MjAwcHg7cGFkZGluZzoycHg7Zm9udC1mYW1pbHk6InRyZWJ1Y2hldCBtcyIsdmVyZGFuYSxhcmlhbCxzYW5zLXNlcmlmO2ZvbnQtc2l6ZToxMnB4O2JhY2tncm91bmQ6aHNsKC0xNjAsIDAlLCA5My4zMzMzMzMzMzMzJSk7Ym9yZGVyOjFweCBzb2xpZCAjNzA3MDcwO2JvcmRlci1yYWRpdXM6MnB4O3BvaW50ZXItZXZlbnRzOm5vbmU7ei1pbmRleDoxMDA7fSNnZU1lcm1haWRPdXRwdXQtMTcxMzc5NzU3NDc4NiA6cm9vdHstLW1lcm1haWQtZm9udC1mYW1pbHk6InRyZWJ1Y2hldCBtcyIsdmVyZGFuYSxhcmlhbCxzYW5zLXNlcmlmO308L3N0eWxlPjxnIHRyYW5zZm9ybT0idHJhbnNsYXRlKDAsIDApIj48ZyBjbGFzcz0ib3V0cHV0Ij48ZyBjbGFzcz0iY2x1c3RlcnMiPjwvZz48ZyBjbGFzcz0iZWRnZVBhdGhzIj48ZyBzdHlsZT0ib3BhY2l0eTogMTsiIGlkPSJMLUMtRCIgY2xhc3M9ImVkZ2VQYXRoIExTLUMgTEUtRCI+PHBhdGggc3R5bGU9ImZpbGw6bm9uZSIgbWFya2VyLWVuZD0idXJsKCNhcnJvd2hlYWQyNTApIiBkPSJNNDg1Ljc5Mzc2MjIwNzAzMTI1LDMxLjUzNjg2NTI4MTU1MjMyN0w0MjEuNDYxNDY5MDE0NDg1NjYsMzguMTgwNzIxMzIyMjczNDJDMzU3LjEyOTE3NTgyMTk0MDEsNDQuODI0NTc3MzYyOTk0NTIsMjI4LjQ2NDU4OTQzNjg0ODk3LDU4LjExMjI4OTQ0NDQzNjcyLDE2NC4xMzIyOTYyNDQzMDMzOCw2OC45MjI4MTIxNTE4MjQ0N0M5OS44MDAwMDMwNTE3NTc4MSw3OS43MzMzMzQ4NTkyMTIyMyw5OS44MDAwMDMwNTE3NTc4MSw4OC4wNjY2NjgxOTI1NDU1OCw5OS44MDAwMDMwNTE3NTc4MSw5Mi4yMzMzMzQ4NTkyMTIyM0w5OS44MDAwMDMwNTE3NTc4MSw5Ni40MDAwMDE1MjU4Nzg5IiBjbGFzcz0icGF0aCI+PC9wYXRoPjxkZWZzPjxtYXJrZXIgb3JpZW50PSJhdXRvIiBtYXJrZXJIZWlnaHQ9IjYiIG1hcmtlcldpZHRoPSI4IiBtYXJrZXJVbml0cz0ic3Ryb2tlV2lkdGgiIHJlZlk9IjUiIHJlZlg9IjkiIHZpZXdCb3g9IjAgMCAxMCAxMCIgaWQ9ImFycm93aGVhZDI1MCI+PHBhdGggc3R5bGU9InN0cm9rZS13aWR0aDogMTsgc3Ryb2tlLWRhc2hhcnJheTogMSwgMDsiIGNsYXNzPSJhcnJvd2hlYWRQYXRoIiBkPSJNIDAgMCBMIDEwIDUgTCAwIDEwIHoiPjwvcGF0aD48L21hcmtlcj48L2RlZnM+PC9nPjxnIHN0eWxlPSJvcGFjaXR5OiAxOyIgaWQ9IkwtQy1FIiBjbGFzcz0iZWRnZVBhdGggTFMtQyBMRS1FIj48cGF0aCBzdHlsZT0iZmlsbDpub25lIiBtYXJrZXItZW5kPSJ1cmwoI2Fycm93aGVhZDI1MSkiIGQ9Ik00ODUuNzkzNzYyMjA3MDMxMjUsMzUuODA5MTA5MjgzMDU0MDU2TDQ1Ni44NTkzODY0NDQwOTE4LDQxLjc0MDkyNDY1Njg1ODJDNDI3LjkyNTAxMDY4MTE1MjM0LDQ3LjY3Mjc0MDAzMDY2MjM0LDM3MC4wNTYyNTkxNTUyNzM0NCw1OS41MzYzNzA3NzgyNzA2MiwzNDEuMTIxODgzMzkyMzM0LDY5LjYzNDg1MjgxODc0MTQ0QzMxMi4xODc1MDc2MjkzOTQ1Myw3OS43MzMzMzQ4NTkyMTIyMywzMTIuMTg3NTA3NjI5Mzk0NTMsODguMDY2NjY4MTkyNTQ1NTgsMzEyLjE4NzUwNzYyOTM5NDUzLDkyLjIzMzMzNDg1OTIxMjIzTDMxMi4xODc1MDc2MjkzOTQ1Myw5Ni40MDAwMDE1MjU4Nzg5IiBjbGFzcz0icGF0aCI+PC9wYXRoPjxkZWZzPjxtYXJrZXIgb3JpZW50PSJhdXRvIiBtYXJrZXJIZWlnaHQ9IjYiIG1hcmtlcldpZHRoPSI4IiBtYXJrZXJVbml0cz0ic3Ryb2tlV2lkdGgiIHJlZlk9IjUiIHJlZlg9IjkiIHZpZXdCb3g9IjAgMCAxMCAxMCIgaWQ9ImFycm93aGVhZDI1MSI+PHBhdGggc3R5bGU9InN0cm9rZS13aWR0aDogMTsgc3Ryb2tlLWRhc2hhcnJheTogMSwgMDsiIGNsYXNzPSJhcnJvd2hlYWRQYXRoIiBkPSJNIDAgMCBMIDEwIDUgTCAwIDEwIHoiPjwvcGF0aD48L21hcmtlcj48L2RlZnM+PC9nPjxnIHN0eWxlPSJvcGFjaXR5OiAxOyIgaWQ9IkwtQy1GIiBjbGFzcz0iZWRnZVBhdGggTFMtQyBMRS1GIj48cGF0aCBzdHlsZT0iZmlsbDpub25lIiBtYXJrZXItZW5kPSJ1cmwoI2Fycm93aGVhZDI1MikiIGQ9Ik01MjcuNzg3NTEzNzMyOTEwMiw0Ni40MDAwMDE1MjU4Nzg5MDZMNTI3Ljc4NzUxMzczMjkxMDIsNTAuNTY2NjY4MTkyNTQ1NTdDNTI3Ljc4NzUxMzczMjkxMDIsNTQuNzMzMzM0ODU5MjEyMjQsNTI3Ljc4NzUxMzczMjkxMDIsNjMuMDY2NjY4MTkyNTQ1NTcsNTI3Ljc4NzUxMzczMjkxMDIsNzEuNDAwMDAxNTI1ODc4OUM1MjcuNzg3NTEzNzMyOTEwMiw3OS43MzMzMzQ4NTkyMTIyMyw1MjcuNzg3NTEzNzMyOTEwMiw4OC4wNjY2NjgxOTI1NDU1OCw1MjcuNzg3NTEzNzMyOTEwMiw5Mi4yMzMzMzQ4NTkyMTIyM0w1MjcuNzg3NTEzNzMyOTEwMiw5Ni40MDAwMDE1MjU4Nzg5IiBjbGFzcz0icGF0aCI+PC9wYXRoPjxkZWZzPjxtYXJrZXIgb3JpZW50PSJhdXRvIiBtYXJrZXJIZWlnaHQ9IjYiIG1hcmtlcldpZHRoPSI4IiBtYXJrZXJVbml0cz0ic3Ryb2tlV2lkdGgiIHJlZlk9IjUiIHJlZlg9IjkiIHZpZXdCb3g9IjAgMCAxMCAxMCIgaWQ9ImFycm93aGVhZDI1MiI+PHBhdGggc3R5bGU9InN0cm9rZS13aWR0aDogMTsgc3Ryb2tlLWRhc2hhcnJheTogMSwgMDsiIGNsYXNzPSJhcnJvd2hlYWRQYXRoIiBkPSJNIDAgMCBMIDEwIDUgTCAwIDEwIHoiPjwvcGF0aD48L21hcmtlcj48L2RlZnM+PC9nPjxnIHN0eWxlPSJvcGFjaXR5OiAxOyIgaWQ9IkwtQy1HIiBjbGFzcz0iZWRnZVBhdGggTFMtQyBMRS1HIj48cGF0aCBzdHlsZT0iZmlsbDpub25lIiBtYXJrZXItZW5kPSJ1cmwoI2Fycm93aGVhZDI1MykiIGQ9Ik01NjkuNzgxMjY1MjU4Nzg5MSwzNC40NjE4MzA5ODY1Njk1MUw2MDUuMzgyMzA3Njg4Mzk1MSw0MC42MTgxOTI3NDMxMjEwOEM2NDAuOTgzMzUwMTE4MDAxMyw0Ni43NzQ1NTQ0OTk2NzI2NCw3MTIuMTg1NDM0OTc3MjEzNSw1OS4wODcyNzgwMTI3NzU3NzYsNzQ3Ljc4NjQ3NzQwNjgxOTcsNjkuNDEwMzA2NDM1OTk0Qzc4My4zODc1MTk4MzY0MjU4LDc5LjczMzMzNDg1OTIxMjIzLDc4My4zODc1MTk4MzY0MjU4LDg4LjA2NjY2ODE5MjU0NTU4LDc4My4zODc1MTk4MzY0MjU4LDkyLjIzMzMzNDg1OTIxMjIzTDc4My4zODc1MTk4MzY0MjU4LDk2LjQwMDAwMTUyNTg3ODkiIGNsYXNzPSJwYXRoIj48L3BhdGg+PGRlZnM+PG1hcmtlciBvcmllbnQ9ImF1dG8iIG1hcmtlckhlaWdodD0iNiIgbWFya2VyV2lkdGg9IjgiIG1hcmtlclVuaXRzPSJzdHJva2VXaWR0aCIgcmVmWT0iNSIgcmVmWD0iOSIgdmlld0JveD0iMCAwIDEwIDEwIiBpZD0iYXJyb3doZWFkMjUzIj48cGF0aCBzdHlsZT0ic3Ryb2tlLXdpZHRoOiAxOyBzdHJva2UtZGFzaGFycmF5OiAxLCAwOyIgY2xhc3M9ImFycm93aGVhZFBhdGgiIGQ9Ik0gMCAwIEwgMTAgNSBMIDAgMTAgeiI+PC9wYXRoPjwvbWFya2VyPjwvZGVmcz48L2c+PGcgc3R5bGU9Im9wYWNpdHk6IDE7IiBpZD0iTC1DLUgiIGNsYXNzPSJlZGdlUGF0aCBMUy1DIExFLUgiPjxwYXRoIHN0eWxlPSJmaWxsOm5vbmUiIG1hcmtlci1lbmQ9InVybCgjYXJyb3doZWFkMjU0KSIgZD0iTTU2OS43ODEyNjUyNTg3ODkxLDMwLjcyMDcyMTE4NDk4OTg5NUw2NTAuNjQ4OTc1MzcyMzE0NSwzNy41MDA2MDEyNDE4MDQ3M0M3MzEuNTE2Njg1NDg1ODM5OCw0NC4yODA0ODEyOTg2MTk1Nyw4OTMuMjUyMTA1NzEyODkwNiw1Ny44NDAyNDE0MTIyNDkyMzUsOTc0LjExOTgxNTgyNjQxNiw2OC43ODY3ODgxMzU3MzA3M0MxMDU0Ljk4NzUyNTkzOTk0MTQsNzkuNzMzMzM0ODU5MjEyMjMsMTA1NC45ODc1MjU5Mzk5NDE0LDg4LjA2NjY2ODE5MjU0NTU4LDEwNTQuOTg3NTI1OTM5OTQxNCw5Mi4yMzMzMzQ4NTkyMTIyM0wxMDU0Ljk4NzUyNTkzOTk0MTQsOTYuNDAwMDAxNTI1ODc4OSIgY2xhc3M9InBhdGgiPjwvcGF0aD48ZGVmcz48bWFya2VyIG9yaWVudD0iYXV0byIgbWFya2VySGVpZ2h0PSI2IiBtYXJrZXJXaWR0aD0iOCIgbWFya2VyVW5pdHM9InN0cm9rZVdpZHRoIiByZWZZPSI1IiByZWZYPSI5IiB2aWV3Qm94PSIwIDAgMTAgMTAiIGlkPSJhcnJvd2hlYWQyNTQiPjxwYXRoIHN0eWxlPSJzdHJva2Utd2lkdGg6IDE7IHN0cm9rZS1kYXNoYXJyYXk6IDEsIDA7IiBjbGFzcz0iYXJyb3doZWFkUGF0aCIgZD0iTSAwIDAgTCAxMCA1IEwgMCAxMCB6Ij48L3BhdGg+PC9tYXJrZXI+PC9kZWZzPjwvZz48ZyBzdHlsZT0ib3BhY2l0eTogMTsiIGlkPSJMLUQtSSIgY2xhc3M9ImVkZ2VQYXRoIExTLUQgTEUtSSI+PHBhdGggc3R5bGU9ImZpbGw6bm9uZSIgbWFya2VyLWVuZD0idXJsKCNhcnJvd2hlYWQyNTUpIiBkPSJNOTQuNzY2Mjk1MDQwNTA2MSwxMzQuODAwMDAzMDUxNzU3OEw5My4yNzE5MTMwNDIzODEzNywxNDAuNTAwMDAzMDE5OTY4NjZDOTEuNzc3NTMxMDQ0MjU2NjYsMTQ2LjIwMDAwMjk4ODE3OTUzLDg4Ljc4ODc2NzA0ODAwNzIzLDE1Ny42MDAwMDI5MjQ2MDEyMyw4OC4xODEwNTE2ODkwMDYxNywxNzAuNjEzMzM2MTQyNDI2NDVDODcuNTczMzM2MzMwMDA1MDksMTgzLjYyNjY2OTM2MDI1MTY3LDg5LjM0NjY2OTYwODI1MjM4LDE5OC4yNTMzMzU4NTk0ODAzNiw5MC4yMzMzMzYyNDczNzYwMywyMDUuNTY2NjY5MTA5MDk0NzNMOTEuMTIwMDAyODg2NDk5NjgsMjEyLjg4MDAwMjM1ODcwOTA4IiBjbGFzcz0icGF0aCI+PC9wYXRoPjxkZWZzPjxtYXJrZXIgb3JpZW50PSJhdXRvIiBtYXJrZXJIZWlnaHQ9IjYiIG1hcmtlcldpZHRoPSI4IiBtYXJrZXJVbml0cz0ic3Ryb2tlV2lkdGgiIHJlZlk9IjUiIHJlZlg9IjkiIHZpZXdCb3g9IjAgMCAxMCAxMCIgaWQ9ImFycm93aGVhZDI1NSI+PHBhdGggc3R5bGU9InN0cm9rZS13aWR0aDogMTsgc3Ryb2tlLWRhc2hhcnJheTogMSwgMDsiIGNsYXNzPSJhcnJvd2hlYWRQYXRoIiBkPSJNIDAgMCBMIDEwIDUgTCAwIDEwIHoiPjwvcGF0aD48L21hcmtlcj48L2RlZnM+PC9nPjxnIHN0eWxlPSJvcGFjaXR5OiAxOyIgaWQ9IkwtSS1KIiBjbGFzcz0iZWRnZVBhdGggTFMtSSBMRS1KIj48cGF0aCBzdHlsZT0iZmlsbDpub25lIiBtYXJrZXItZW5kPSJ1cmwoI2Fycm93aGVhZDI1NikiIGQ9Ik0xMDAuMzAwMDAzMDUxNzU3ODEsMzg3LjMwMDAwNzM0MzI5MjRMMTAwLjIxNjY2OTcxODQyNDQ4LDM5Mi45MTY2NzQyMTY1ODg1QzEwMC4xMzMzMzYzODUwOTExNCwzOTguNTMzMzQxMDg5ODg0Niw5OS45NjY2Njk3MTg0MjQ0OCw0MDkuNzY2Njc0ODM2NDc2NzQsOTkuODgzMzM2Mzg1MDkxMTQsNDIxLjA4MzM0MTY3Nzk4MzZDOTkuODAwMDAzMDUxNzU3ODEsNDMyLjQwMDAwODUxOTQ5MDU0LDk5LjgwMDAwMzA1MTc1NzgxLDQ0My44MDAwMDg0NTU5MTIzLDk5LjgwMDAwMzA1MTc1NzgxLDQ0OS41MDAwMDg0MjQxMjMxTDk5LjgwMDAwMzA1MTc1NzgxLDQ1NS4yMDAwMDgzOTIzMzQiIGNsYXNzPSJwYXRoIj48L3BhdGg+PGRlZnM+PG1hcmtlciBvcmllbnQ9ImF1dG8iIG1hcmtlckhlaWdodD0iNiIgbWFya2VyV2lkdGg9IjgiIG1hcmtlclVuaXRzPSJzdHJva2VXaWR0aCIgcmVmWT0iNSIgcmVmWD0iOSIgdmlld0JveD0iMCAwIDEwIDEwIiBpZD0iYXJyb3doZWFkMjU2Ij48cGF0aCBzdHlsZT0ic3Ryb2tlLXdpZHRoOiAxOyBzdHJva2UtZGFzaGFycmF5OiAxLCAwOyIgY2xhc3M9ImFycm93aGVhZFBhdGgiIGQ9Ik0gMCAwIEwgMTAgNSBMIDAgMTAgeiI+PC9wYXRoPjwvbWFya2VyPjwvZGVmcz48L2c+PGcgc3R5bGU9Im9wYWNpdHk6IDE7IiBpZD0iTC1JLUQiIGNsYXNzPSJlZGdlUGF0aCBMUy1JIExFLUQiPjxwYXRoIHN0eWxlPSJmaWxsOm5vbmUiIG1hcmtlci1lbmQ9InVybCgjYXJyb3doZWFkMjU3KSIgZD0iTTEwOS40ODAwMDMxMjE2NDg1MiwyMTIuODgwMDAzMjE3MDE1OTdMMTEwLjIwMDAwMzExMDAwMDA3LDIwNS41NjY2Njk4MjQzNTA0N0MxMTAuOTIwMDAzMDk4MzUxNjEsMTk4LjI1MzMzNjQzMTY4NDk3LDExMi4zNjAwMDMwNzUwNTQ3LDE4My42MjY2Njk2NDYzNTM5NywxMTEuNTg1NjIxMDY1MjgxNTYsMTcwLjYxMzMzNjI4NTQ3NzZDMTEwLjgxMTIzOTA1NTUwODQsMTU3LjYwMDAwMjkyNDYwMTIzLDEwNy44MjI0NzUwNTkyNTg5NiwxNDYuMjAwMDAyOTg4MTc5NTMsMTA2LjMyODA5MzA2MTEzNDI1LDE0MC41MDAwMDMwMTk5Njg2NkwxMDQuODMzNzExMDYzMDA5NTMsMTM0LjgwMDAwMzA1MTc1NzgiIGNsYXNzPSJwYXRoIj48L3BhdGg+PGRlZnM+PG1hcmtlciBvcmllbnQ9ImF1dG8iIG1hcmtlckhlaWdodD0iNiIgbWFya2VyV2lkdGg9IjgiIG1hcmtlclVuaXRzPSJzdHJva2VXaWR0aCIgcmVmWT0iNSIgcmVmWD0iOSIgdmlld0JveD0iMCAwIDEwIDEwIiBpZD0iYXJyb3doZWFkMjU3Ij48cGF0aCBzdHlsZT0ic3Ryb2tlLXdpZHRoOiAxOyBzdHJva2UtZGFzaGFycmF5OiAxLCAwOyIgY2xhc3M9ImFycm93aGVhZFBhdGgiIGQ9Ik0gMCAwIEwgMTAgNSBMIDAgMTAgeiI+PC9wYXRoPjwvbWFya2VyPjwvZGVmcz48L2c+PC9nPjxnIGNsYXNzPSJlZGdlTGFiZWxzIj48ZyBzdHlsZT0ib3BhY2l0eTogMTsiIHRyYW5zZm9ybT0iIiBjbGFzcz0iZWRnZUxhYmVsIj48ZyBjbGFzcz0ibGFiZWwiIHRyYW5zZm9ybT0idHJhbnNsYXRlKDAsMCkiPjxyZWN0IGhlaWdodD0iMCIgd2lkdGg9IjAiIHJ5PSIwIiByeD0iMCI+PC9yZWN0Pjx0ZXh0Pjx0c3BhbiB4PSIxIiBkeT0iMWVtIiB4bWw6c3BhY2U9InByZXNlcnZlIj48L3RzcGFuPjwvdGV4dD48L2c+PC9nPjxnIHN0eWxlPSJvcGFjaXR5OiAxOyIgdHJhbnNmb3JtPSIiIGNsYXNzPSJlZGdlTGFiZWwiPjxnIGNsYXNzPSJsYWJlbCIgdHJhbnNmb3JtPSJ0cmFuc2xhdGUoMCwwKSI+PHJlY3QgaGVpZ2h0PSIwIiB3aWR0aD0iMCIgcnk9IjAiIHJ4PSIwIj48L3JlY3Q+PHRleHQ+PHRzcGFuIHg9IjEiIGR5PSIxZW0iIHhtbDpzcGFjZT0icHJlc2VydmUiPjwvdHNwYW4+PC90ZXh0PjwvZz48L2c+PGcgc3R5bGU9Im9wYWNpdHk6IDE7IiB0cmFuc2Zvcm09IiIgY2xhc3M9ImVkZ2VMYWJlbCI+PGcgY2xhc3M9ImxhYmVsIiB0cmFuc2Zvcm09InRyYW5zbGF0ZSgwLDApIj48cmVjdCBoZWlnaHQ9IjAiIHdpZHRoPSIwIiByeT0iMCIgcng9IjAiPjwvcmVjdD48dGV4dD48dHNwYW4geD0iMSIgZHk9IjFlbSIgeG1sOnNwYWNlPSJwcmVzZXJ2ZSI+PC90c3Bhbj48L3RleHQ+PC9nPjwvZz48ZyBzdHlsZT0ib3BhY2l0eTogMTsiIHRyYW5zZm9ybT0iIiBjbGFzcz0iZWRnZUxhYmVsIj48ZyBjbGFzcz0ibGFiZWwiIHRyYW5zZm9ybT0idHJhbnNsYXRlKDAsMCkiPjxyZWN0IGhlaWdodD0iMCIgd2lkdGg9IjAiIHJ5PSIwIiByeD0iMCI+PC9yZWN0Pjx0ZXh0Pjx0c3BhbiB4PSIxIiBkeT0iMWVtIiB4bWw6c3BhY2U9InByZXNlcnZlIj48L3RzcGFuPjwvdGV4dD48L2c+PC9nPjxnIHN0eWxlPSJvcGFjaXR5OiAxOyIgdHJhbnNmb3JtPSIiIGNsYXNzPSJlZGdlTGFiZWwiPjxnIGNsYXNzPSJsYWJlbCIgdHJhbnNmb3JtPSJ0cmFuc2xhdGUoMCwwKSI+PHJlY3QgaGVpZ2h0PSIwIiB3aWR0aD0iMCIgcnk9IjAiIHJ4PSIwIj48L3JlY3Q+PHRleHQ+PHRzcGFuIHg9IjEiIGR5PSIxZW0iIHhtbDpzcGFjZT0icHJlc2VydmUiPjwvdHNwYW4+PC90ZXh0PjwvZz48L2c+PGcgc3R5bGU9Im9wYWNpdHk6IDE7IiB0cmFuc2Zvcm09IiIgY2xhc3M9ImVkZ2VMYWJlbCI+PGcgY2xhc3M9ImxhYmVsIiB0cmFuc2Zvcm09InRyYW5zbGF0ZSgwLDApIj48cmVjdCBoZWlnaHQ9IjAiIHdpZHRoPSIwIiByeT0iMCIgcng9IjAiPjwvcmVjdD48dGV4dD48dHNwYW4geD0iMSIgZHk9IjFlbSIgeG1sOnNwYWNlPSJwcmVzZXJ2ZSI+PC90c3Bhbj48L3RleHQ+PC9nPjwvZz48ZyBzdHlsZT0ib3BhY2l0eTogMTsiIHRyYW5zZm9ybT0idHJhbnNsYXRlKDk5LjgwMDAwMzA1MTc1NzgxLDQyMS4wMDAwMDg1ODMwNjg4NSkiIGNsYXNzPSJlZGdlTGFiZWwiPjxnIGNsYXNzPSJsYWJlbCIgdHJhbnNmb3JtPSJ0cmFuc2xhdGUoLTguODAwMDAwMTkwNzM0ODYzLC05LjE5OTk5OTgwOTI2NTEzNykiPjxyZWN0IGhlaWdodD0iMTguMzk5OTk5NjE4NTMwMjczIiB3aWR0aD0iMTcuNjAwMDAwMzgxNDY5NzI3IiByeT0iMCIgcng9IjAiPjwvcmVjdD48dGV4dD48dHNwYW4geD0iMSIgZHk9IjFlbSIgeG1sOnNwYWNlPSJwcmVzZXJ2ZSI+5pivPC90c3Bhbj48L3RleHQ+PC9nPjwvZz48ZyBzdHlsZT0ib3BhY2l0eTogMTsiIHRyYW5zZm9ybT0idHJhbnNsYXRlKDExMy44MDAwMDMwNTE3NTc4MSwxNjkuMDAwMDAyODYxMDIyOTUpIiBjbGFzcz0iZWRnZUxhYmVsIj48ZyBjbGFzcz0ibGFiZWwiIHRyYW5zZm9ybT0idHJhbnNsYXRlKC04LC05LjE5OTk5OTgwOTI2NTEzNykiPjxyZWN0IGhlaWdodD0iMTguMzk5OTk5NjE4NTMwMjczIiB3aWR0aD0iMTYiIHJ5PSIwIiByeD0iMCI+PC9yZWN0Pjx0ZXh0Pjx0c3BhbiB4PSIxIiBkeT0iMWVtIiB4bWw6c3BhY2U9InByZXNlcnZlIj7lkKY8L3RzcGFuPjwvdGV4dD48L2c+PC9nPjwvZz48ZyBjbGFzcz0ibm9kZXMiPjxnIHN0eWxlPSJvcGFjaXR5OiAxOyIgdHJhbnNmb3JtPSJ0cmFuc2xhdGUoNTI3Ljc4NzUxMzczMjkxMDIsMjcuMjAwMDAwNzYyOTM5NDUzKSIgaWQ9ImZsb3djaGFydC1DLTIxNiIgY2xhc3M9Im5vZGUgZGVmYXVsdCI+PHJlY3QgY2xhc3M9ImxhYmVsLWNvbnRhaW5lciIgaGVpZ2h0PSIzOC4zOTk5OTk2MTg1MzAyNyIgd2lkdGg9IjgzLjk4NzQ5OTIzNzA2MDU1IiB5PSItMTkuMTk5OTk5ODA5MjY1MTM3IiB4PSItNDEuOTkzNzQ5NjE4NTMwMjciIHJ5PSIwIiByeD0iMCI+PC9yZWN0PjxnIHRyYW5zZm9ybT0idHJhbnNsYXRlKDAsMCkiIGNsYXNzPSJsYWJlbCI+PGcgdHJhbnNmb3JtPSJ0cmFuc2xhdGUoLTMxLjk5Mzc0OTYxODUzMDI3MywtOS4xOTk5OTk4MDkyNjUxMzcpIj48dGV4dCBzdHlsZT0iIj48dHNwYW4geD0iMSIgZHk9IjFlbSIgeG1sOnNwYWNlPSJwcmVzZXJ2ZSI+c3BpbHREYXRhPC90c3Bhbj48L3RleHQ+PC9nPjwvZz48L2c+PGcgc3R5bGU9Im9wYWNpdHk6IDE7IiB0cmFuc2Zvcm09InRyYW5zbGF0ZSg5OS44MDAwMDMwNTE3NTc4MSwxMTUuNjAwMDAyMjg4ODE4MzYpIiBpZD0iZmxvd2NoYXJ0LUQtMjE3IiBjbGFzcz0ibm9kZSBkZWZhdWx0Ij48cmVjdCBjbGFzcz0ibGFiZWwtY29udGFpbmVyIiBoZWlnaHQ9IjM4LjM5OTk5OTYxODUzMDI3IiB3aWR0aD0iMTU5LjE3NTAwMzA1MTc1NzgiIHk9Ii0xOS4xOTk5OTk4MDkyNjUxMzciIHg9Ii03OS41ODc1MDE1MjU4Nzg5IiByeT0iMCIgcng9IjAiPjwvcmVjdD48ZyB0cmFuc2Zvcm09InRyYW5zbGF0ZSgwLDApIiBjbGFzcz0ibGFiZWwiPjxnIHRyYW5zZm9ybT0idHJhbnNsYXRlKC02OS41ODc1MDE1MjU4Nzg5LC05LjE5OTk5OTgwOTI2NTEzNykiPjx0ZXh0IHN0eWxlPSIiPjx0c3BhbiB4PSIxIiBkeT0iMWVtIiB4bWw6c3BhY2U9InByZXNlcnZlIj7liJ3lp4vljJZ2b2x1bWVz5YiX6KGoPC90c3Bhbj48L3RleHQ+PC9nPjwvZz48L2c+PGcgc3R5bGU9Im9wYWNpdHk6IDE7IiB0cmFuc2Zvcm09InRyYW5zbGF0ZSgzMTIuMTg3NTA3NjI5Mzk0NTMsMTE1LjYwMDAwMjI4ODgxODM2KSIgaWQ9ImZsb3djaGFydC1FLTIxOSIgY2xhc3M9Im5vZGUgZGVmYXVsdCI+PHJlY3QgY2xhc3M9ImxhYmVsLWNvbnRhaW5lciIgaGVpZ2h0PSIzOC4zOTk5OTk2MTg1MzAyNyIgd2lkdGg9IjE2NS42MDAwMDYxMDM1MTU2MiIgeT0iLTE5LjE5OTk5OTgwOTI2NTEzNyIgeD0iLTgyLjgwMDAwMzA1MTc1NzgxIiByeT0iMCIgcng9IjAiPjwvcmVjdD48ZyB0cmFuc2Zvcm09InRyYW5zbGF0ZSgwLDApIiBjbGFzcz0ibGFiZWwiPjxnIHRyYW5zZm9ybT0idHJhbnNsYXRlKC03Mi44MDAwMDMwNTE3NTc4MSwtOS4xOTk5OTk4MDkyNjUxMzcpIj48dGV4dCBzdHlsZT0iIj48dHNwYW4geD0iMSIgZHk9IjFlbSIgeG1sOnNwYWNlPSJwcmVzZXJ2ZSI+6I635Y+W5pel5pyf5pWw5o2u5bm25YCS572uPC90c3Bhbj48L3RleHQ+PC9nPjwvZz48L2c+PGcgc3R5bGU9Im9wYWNpdHk6IDE7IiB0cmFuc2Zvcm09InRyYW5zbGF0ZSg1MjcuNzg3NTEzNzMyOTEwMiwxMTUuNjAwMDAyMjg4ODE4MzYpIiBpZD0iZmxvd2NoYXJ0LUYtMjIxIiBjbGFzcz0ibm9kZSBkZWZhdWx0Ij48cmVjdCBjbGFzcz0ibGFiZWwtY29udGFpbmVyIiBoZWlnaHQ9IjM4LjM5OTk5OTYxODUzMDI3IiB3aWR0aD0iMTY1LjYwMDAwNjEwMzUxNTYyIiB5PSItMTkuMTk5OTk5ODA5MjY1MTM3IiB4PSItODIuODAwMDAzMDUxNzU3ODEiIHJ5PSIwIiByeD0iMCI+PC9yZWN0PjxnIHRyYW5zZm9ybT0idHJhbnNsYXRlKDAsMCkiIGNsYXNzPSJsYWJlbCI+PGcgdHJhbnNmb3JtPSJ0cmFuc2xhdGUoLTcyLjgwMDAwMzA1MTc1NzgxLC05LjE5OTk5OTgwOTI2NTEzNykiPjx0ZXh0IHN0eWxlPSIiPjx0c3BhbiB4PSIxIiBkeT0iMWVtIiB4bWw6c3BhY2U9InByZXNlcnZlIj7ojrflj5bogqHnpajmlbDmja7lubblgJLnva48L3RzcGFuPjwvdGV4dD48L2c+PC9nPjwvZz48ZyBzdHlsZT0ib3BhY2l0eTogMTsiIHRyYW5zZm9ybT0idHJhbnNsYXRlKDc4My4zODc1MTk4MzY0MjU4LDExNS42MDAwMDIyODg4MTgzNikiIGlkPSJmbG93Y2hhcnQtRy0yMjMiIGNsYXNzPSJub2RlIGRlZmF1bHQiPjxyZWN0IGNsYXNzPSJsYWJlbC1jb250YWluZXIiIGhlaWdodD0iMzguMzk5OTk5NjE4NTMwMjciIHdpZHRoPSIyNDUuNjAwMDA2MTAzNTE1NjIiIHk9Ii0xOS4xOTk5OTk4MDkyNjUxMzciIHg9Ii0xMjIuODAwMDAzMDUxNzU3ODEiIHJ5PSIwIiByeD0iMCI+PC9yZWN0PjxnIHRyYW5zZm9ybT0idHJhbnNsYXRlKDAsMCkiIGNsYXNzPSJsYWJlbCI+PGcgdHJhbnNmb3JtPSJ0cmFuc2xhdGUoLTExMi44MDAwMDMwNTE3NTc4MSwtOS4xOTk5OTk4MDkyNjUxMzcpIj48dGV4dCBzdHlsZT0iIj48dHNwYW4geD0iMSIgZHk9IjFlbSIgeG1sOnNwYWNlPSJwcmVzZXJ2ZSI+6I635Y+W5pyA6auY5YC85ZKM5rao6LeM6aKd5pWw5o2u5bm25YCS572uPC90c3Bhbj48L3RleHQ+PC9nPjwvZz48L2c+PGcgc3R5bGU9Im9wYWNpdHk6IDE7IiB0cmFuc2Zvcm09InRyYW5zbGF0ZSgxMDU0Ljk4NzUyNTkzOTk0MTQsMTE1LjYwMDAwMjI4ODgxODM2KSIgaWQ9ImZsb3djaGFydC1ILTIyNSIgY2xhc3M9Im5vZGUgZGVmYXVsdCI+PHJlY3QgY2xhc3M9ImxhYmVsLWNvbnRhaW5lciIgaGVpZ2h0PSIzOC4zOTk5OTk2MTg1MzAyNyIgd2lkdGg9IjE5Ny42MDAwMDYxMDM1MTU2MiIgeT0iLTE5LjE5OTk5OTgwOTI2NTEzNyIgeD0iLTk4LjgwMDAwMzA1MTc1NzgxIiByeT0iMCIgcng9IjAiPjwvcmVjdD48ZyB0cmFuc2Zvcm09InRyYW5zbGF0ZSgwLDApIiBjbGFzcz0ibGFiZWwiPjxnIHRyYW5zZm9ybT0idHJhbnNsYXRlKC04OC44MDAwMDMwNTE3NTc4MSwtOS4xOTk5OTk4MDkyNjUxMzcpIj48dGV4dCBzdHlsZT0iIj48dHNwYW4geD0iMSIgZHk9IjFlbSIgeG1sOnNwYWNlPSJwcmVzZXJ2ZSI+6I635Y+W5oiQ5Lqk6YeR6aKd5pWw5o2u5bm25YCS572uPC90c3Bhbj48L3RleHQ+PC9nPjwvZz48L2c+PGcgc3R5bGU9Im9wYWNpdHk6IDE7IiB0cmFuc2Zvcm09InRyYW5zbGF0ZSg5OS44MDAwMDMwNTE3NTc4MSwyOTUuMDAwMDA1NzIyMDQ1OSkiIGlkPSJmbG93Y2hhcnQtSS0yMjciIGNsYXNzPSJub2RlIGRlZmF1bHQiPjxwb2x5Z29uIGNsYXNzPSJsYWJlbC1jb250YWluZXIiIHRyYW5zZm9ybT0idHJhbnNsYXRlKC05MS44MDAwMDI1NzQ5MjA2NSw5MS44MDAwMDI1NzQ5MjA2NSkiIHBvaW50cz0iOTEuODAwMDAyNTc0OTIwNjUsMCAxODMuNjAwMDA1MTQ5ODQxMywtOTEuODAwMDAyNTc0OTIwNjUgOTEuODAwMDAyNTc0OTIwNjUsLTE4My42MDAwMDUxNDk4NDEzIDAsLTkxLjgwMDAwMjU3NDkyMDY1Ij48L3BvbHlnb24+PGcgdHJhbnNmb3JtPSJ0cmFuc2xhdGUoMCwwKSIgY2xhc3M9ImxhYmVsIj48ZyB0cmFuc2Zvcm09InRyYW5zbGF0ZSgtNzIuODAwMDAzMDUxNzU3ODEsLTkuMTk5OTk5ODA5MjY1MTM3KSI+PHRleHQgc3R5bGU9IiI+PHRzcGFuIHg9IjEiIGR5PSIxZW0iIHhtbDpzcGFjZT0icHJlc2VydmUiPuaYr+WQpuaJgOacieaVsOaNruW3suWkhOeQhjwvdHNwYW4+PC90ZXh0PjwvZz48L2c+PC9nPjxnIHN0eWxlPSJvcGFjaXR5OiAxOyIgdHJhbnNmb3JtPSJ0cmFuc2xhdGUoOTkuODAwMDAzMDUxNzU3ODEsNDc0LjQwMDAwOTE1NTI3MzQ0KSIgaWQ9ImZsb3djaGFydC1KLTIyOSIgY2xhc3M9Im5vZGUgZGVmYXVsdCI+PHJlY3QgY2xhc3M9ImxhYmVsLWNvbnRhaW5lciIgaGVpZ2h0PSIzOC4zOTk5OTk2MTg1MzAyNyIgd2lkdGg9IjE4MC44MDAwMDMwNTE3NTc4IiB5PSItMTkuMTk5OTk5ODA5MjY1MTM3IiB4PSItOTAuNDAwMDAxNTI1ODc4OSIgcnk9IjAiIHJ4PSIwIj48L3JlY3Q+PGcgdHJhbnNmb3JtPSJ0cmFuc2xhdGUoMCwwKSIgY2xhc3M9ImxhYmVsIj48ZyB0cmFuc2Zvcm09InRyYW5zbGF0ZSgtODAuNDAwMDAxNTI1ODc4OSwtOS4xOTk5OTk4MDkyNjUxMzcpIj48dGV4dCBzdHlsZT0iIj48dHNwYW4geD0iMSIgZHk9IjFlbSIgeG1sOnNwYWNlPSJwcmVzZXJ2ZSI+6L+U5Zue5aSE55CG5ZCO55qE5pWw5o2u5a2X5YW4PC90c3Bhbj48L3RleHQ+PC9nPjwvZz48L2c+PC9nPjwvZz48L2c+PC9zdmc+;" parent="1" vertex="1">
                        <mxGeometry x="20" y="530" width="680" height="541.6" as="geometry"/>
                    </mxCell>
                </UserObject>
                <UserObject label="" mermaidData="{&#10;  &quot;data&quot;: &quot;graph TD;\n    J[返回处理后的数据字典] --&gt; L[calculate_ma];\n    L --&gt; M[初始化结果列表];\n    L --&gt; N{是否满足日期周期};\n    N -- 是 --&gt; O[计算移动平均];\n    N -- 否 --&gt; P[存入'-'];\n    O --&gt; Q[累加数据值];\n    O --&gt; R[计算移动平均值];\n    Q --&gt; R;\n    R --&gt; S[保存结果];\n    P --&gt; S;\n&quot;,&#10;  &quot;config&quot;: {&#10;    &quot;theme&quot;: &quot;neutral&quot;,&#10;    &quot;arrowMarkerAbsolute&quot;: false,&#10;    &quot;flowchart&quot;: {&#10;      &quot;htmlLabels&quot;: false&#10;    },&#10;    &quot;sequence&quot;: {&#10;      &quot;diagramMarginX&quot;: 50,&#10;      &quot;diagramMarginY&quot;: 10,&#10;      &quot;actorMargin&quot;: 50,&#10;      &quot;width&quot;: 150,&#10;      &quot;height&quot;: 65,&#10;      &quot;boxMargin&quot;: 10,&#10;      &quot;boxTextMargin&quot;: 5,&#10;      &quot;noteMargin&quot;: 10,&#10;      &quot;messageMargin&quot;: 35,&#10;      &quot;mirrorActors&quot;: true,&#10;      &quot;bottomMarginAdj&quot;: 1,&#10;      &quot;useMaxWidth&quot;: true,&#10;      &quot;rightAngles&quot;: false,&#10;      &quot;showSequenceNumbers&quot;: false&#10;    },&#10;    &quot;gantt&quot;: {&#10;      &quot;titleTopMargin&quot;: 25,&#10;      &quot;barHeight&quot;: 20,&#10;      &quot;barGap&quot;: 4,&#10;      &quot;topPadding&quot;: 50,&#10;      &quot;leftPadding&quot;: 75,&#10;      &quot;gridLineStartPadding&quot;: 35,&#10;      &quot;fontSize&quot;: 11,&#10;      &quot;fontFamily&quot;: &quot;\&quot;Open-Sans\&quot;, \&quot;sans-serif\&quot;&quot;,&#10;      &quot;numberSectionStyles&quot;: 4,&#10;      &quot;axisFormat&quot;: &quot;%Y-%m-%d&quot;&#10;    }&#10;  }&#10;}" id="7">
                    <mxCell style="shape=image;noLabel=1;verticalAlign=top;imageAspect=1;image=data:image/svg+xml,PHN2ZyB2aWV3Qm94PSIwIDAgNDAwLjMzMzc1MTY3ODQ2NjggNzUxLjY4MDAwNDExOTg3MyIgc3R5bGU9Im1heC13aWR0aDogNDAwLjMzMzc1MTY3ODQ2NjhweDsiIGhlaWdodD0iNzUxLjY4MDAwNDExOTg3MyIgYXJpYS1sYWJlbGxlZGJ5PSJjaGFydC10aXRsZS1nZU1lcm1haWRPdXRwdXQtMTcxMzc5ODcxNjkzNSBjaGFydC1kZXNjLWdlTWVybWFpZE91dHB1dC0xNzEzNzk4NzE2OTM1IiByb2xlPSJpbWciIHhtbG5zOnhsaW5rPSJodHRwOi8vd3d3LnczLm9yZy8xOTk5L3hsaW5rIiB4bWxucz0iaHR0cDovL3d3dy53My5vcmcvMjAwMC9zdmciIHdpZHRoPSIxMDAlIiBpZD0iZ2VNZXJtYWlkT3V0cHV0LTE3MTM3OTg3MTY5MzUiPjx0aXRsZSBpZD0iY2hhcnQtdGl0bGUtZ2VNZXJtYWlkT3V0cHV0LTE3MTM3OTg3MTY5MzUiPjwvdGl0bGU+PGRlc2MgaWQ9ImNoYXJ0LWRlc2MtZ2VNZXJtYWlkT3V0cHV0LTE3MTM3OTg3MTY5MzUiPjwvZGVzYz48c3R5bGU+I2dlTWVybWFpZE91dHB1dC0xNzEzNzk4NzE2OTM1IHtmb250LWZhbWlseToidHJlYnVjaGV0IG1zIix2ZXJkYW5hLGFyaWFsLHNhbnMtc2VyaWY7Zm9udC1zaXplOjE2cHg7ZmlsbDojMDAwMDAwO30jZ2VNZXJtYWlkT3V0cHV0LTE3MTM3OTg3MTY5MzUgLmVycm9yLWljb257ZmlsbDojNTUyMjIyO30jZ2VNZXJtYWlkT3V0cHV0LTE3MTM3OTg3MTY5MzUgLmVycm9yLXRleHR7ZmlsbDojNTUyMjIyO3N0cm9rZTojNTUyMjIyO30jZ2VNZXJtYWlkT3V0cHV0LTE3MTM3OTg3MTY5MzUgLmVkZ2UtdGhpY2tuZXNzLW5vcm1hbHtzdHJva2Utd2lkdGg6MnB4O30jZ2VNZXJtYWlkT3V0cHV0LTE3MTM3OTg3MTY5MzUgLmVkZ2UtdGhpY2tuZXNzLXRoaWNre3N0cm9rZS13aWR0aDozLjVweDt9I2dlTWVybWFpZE91dHB1dC0xNzEzNzk4NzE2OTM1IC5lZGdlLXBhdHRlcm4tc29saWR7c3Ryb2tlLWRhc2hhcnJheTowO30jZ2VNZXJtYWlkT3V0cHV0LTE3MTM3OTg3MTY5MzUgLmVkZ2UtcGF0dGVybi1kYXNoZWR7c3Ryb2tlLWRhc2hhcnJheTozO30jZ2VNZXJtYWlkT3V0cHV0LTE3MTM3OTg3MTY5MzUgLmVkZ2UtcGF0dGVybi1kb3R0ZWR7c3Ryb2tlLWRhc2hhcnJheToyO30jZ2VNZXJtYWlkT3V0cHV0LTE3MTM3OTg3MTY5MzUgLm1hcmtlcntmaWxsOiM2NjY7c3Ryb2tlOiM2NjY7fSNnZU1lcm1haWRPdXRwdXQtMTcxMzc5ODcxNjkzNSAubWFya2VyLmNyb3Nze3N0cm9rZTojNjY2O30jZ2VNZXJtYWlkT3V0cHV0LTE3MTM3OTg3MTY5MzUgc3Zne2ZvbnQtZmFtaWx5OiJ0cmVidWNoZXQgbXMiLHZlcmRhbmEsYXJpYWwsc2Fucy1zZXJpZjtmb250LXNpemU6MTZweDt9I2dlTWVybWFpZE91dHB1dC0xNzEzNzk4NzE2OTM1IC5sYWJlbHtmb250LWZhbWlseToidHJlYnVjaGV0IG1zIix2ZXJkYW5hLGFyaWFsLHNhbnMtc2VyaWY7Y29sb3I6IzAwMDAwMDt9I2dlTWVybWFpZE91dHB1dC0xNzEzNzk4NzE2OTM1IC5jbHVzdGVyLWxhYmVsIHRleHR7ZmlsbDojMzMzO30jZ2VNZXJtYWlkT3V0cHV0LTE3MTM3OTg3MTY5MzUgLmNsdXN0ZXItbGFiZWwgc3Bhbntjb2xvcjojMzMzO30jZ2VNZXJtYWlkT3V0cHV0LTE3MTM3OTg3MTY5MzUgLmxhYmVsIHRleHQsI2dlTWVybWFpZE91dHB1dC0xNzEzNzk4NzE2OTM1IHNwYW57ZmlsbDojMDAwMDAwO2NvbG9yOiMwMDAwMDA7fSNnZU1lcm1haWRPdXRwdXQtMTcxMzc5ODcxNjkzNSAubm9kZSByZWN0LCNnZU1lcm1haWRPdXRwdXQtMTcxMzc5ODcxNjkzNSAubm9kZSBjaXJjbGUsI2dlTWVybWFpZE91dHB1dC0xNzEzNzk4NzE2OTM1IC5ub2RlIGVsbGlwc2UsI2dlTWVybWFpZE91dHB1dC0xNzEzNzk4NzE2OTM1IC5ub2RlIHBvbHlnb24sI2dlTWVybWFpZE91dHB1dC0xNzEzNzk4NzE2OTM1IC5ub2RlIHBhdGh7ZmlsbDojZWVlO3N0cm9rZTojOTk5O3N0cm9rZS13aWR0aDoxcHg7fSNnZU1lcm1haWRPdXRwdXQtMTcxMzc5ODcxNjkzNSAubm9kZSAubGFiZWx7dGV4dC1hbGlnbjpjZW50ZXI7fSNnZU1lcm1haWRPdXRwdXQtMTcxMzc5ODcxNjkzNSAubm9kZS5jbGlja2FibGV7Y3Vyc29yOnBvaW50ZXI7fSNnZU1lcm1haWRPdXRwdXQtMTcxMzc5ODcxNjkzNSAuYXJyb3doZWFkUGF0aHtmaWxsOiMzMzMzMzM7fSNnZU1lcm1haWRPdXRwdXQtMTcxMzc5ODcxNjkzNSAuZWRnZVBhdGggLnBhdGh7c3Ryb2tlOiM2NjY7c3Ryb2tlLXdpZHRoOjIuMHB4O30jZ2VNZXJtYWlkT3V0cHV0LTE3MTM3OTg3MTY5MzUgLmZsb3djaGFydC1saW5re3N0cm9rZTojNjY2O2ZpbGw6bm9uZTt9I2dlTWVybWFpZE91dHB1dC0xNzEzNzk4NzE2OTM1IC5lZGdlTGFiZWx7YmFja2dyb3VuZC1jb2xvcjp3aGl0ZTt0ZXh0LWFsaWduOmNlbnRlcjt9I2dlTWVybWFpZE91dHB1dC0xNzEzNzk4NzE2OTM1IC5lZGdlTGFiZWwgcmVjdHtvcGFjaXR5OjAuNTtiYWNrZ3JvdW5kLWNvbG9yOndoaXRlO2ZpbGw6d2hpdGU7fSNnZU1lcm1haWRPdXRwdXQtMTcxMzc5ODcxNjkzNSAuY2x1c3RlciByZWN0e2ZpbGw6aHNsKDAsIDAlLCA5OC45MjE1Njg2Mjc1JSk7c3Ryb2tlOiM3MDcwNzA7c3Ryb2tlLXdpZHRoOjFweDt9I2dlTWVybWFpZE91dHB1dC0xNzEzNzk4NzE2OTM1IC5jbHVzdGVyIHRleHR7ZmlsbDojMzMzO30jZ2VNZXJtYWlkT3V0cHV0LTE3MTM3OTg3MTY5MzUgLmNsdXN0ZXIgc3Bhbntjb2xvcjojMzMzO30jZ2VNZXJtYWlkT3V0cHV0LTE3MTM3OTg3MTY5MzUgZGl2Lm1lcm1haWRUb29sdGlwe3Bvc2l0aW9uOmFic29sdXRlO3RleHQtYWxpZ246Y2VudGVyO21heC13aWR0aDoyMDBweDtwYWRkaW5nOjJweDtmb250LWZhbWlseToidHJlYnVjaGV0IG1zIix2ZXJkYW5hLGFyaWFsLHNhbnMtc2VyaWY7Zm9udC1zaXplOjEycHg7YmFja2dyb3VuZDpoc2woLTE2MCwgMCUsIDkzLjMzMzMzMzMzMzMlKTtib3JkZXI6MXB4IHNvbGlkICM3MDcwNzA7Ym9yZGVyLXJhZGl1czoycHg7cG9pbnRlci1ldmVudHM6bm9uZTt6LWluZGV4OjEwMDt9I2dlTWVybWFpZE91dHB1dC0xNzEzNzk4NzE2OTM1IDpyb290ey0tbWVybWFpZC1mb250LWZhbWlseToidHJlYnVjaGV0IG1zIix2ZXJkYW5hLGFyaWFsLHNhbnMtc2VyaWY7fTwvc3R5bGU+PGcgdHJhbnNmb3JtPSJ0cmFuc2xhdGUoMCwgMCkiPjxnIGNsYXNzPSJvdXRwdXQiPjxnIGNsYXNzPSJjbHVzdGVycyI+PC9nPjxnIGNsYXNzPSJlZGdlUGF0aHMiPjxnIHN0eWxlPSJvcGFjaXR5OiAxOyIgaWQ9IkwtSi1MIiBjbGFzcz0iZWRnZVBhdGggTFMtSiBMRS1MIj48cGF0aCBzdHlsZT0iZmlsbDpub25lIiBtYXJrZXItZW5kPSJ1cmwoI2Fycm93aGVhZDMwMSkiIGQ9Ik0xNzQuNzIwMDAxMjIwNzAzMTIsNDYuNDAwMDAxNTI1ODc4OTA2TDE3NC43MjAwMDEyMjA3MDMxMiw1MC41NjY2NjgxOTI1NDU1N0MxNzQuNzIwMDAxMjIwNzAzMTIsNTQuNzMzMzM0ODU5MjEyMjQsMTc0LjcyMDAwMTIyMDcwMzEyLDYzLjA2NjY2ODE5MjU0NTU3LDE3NC43MjAwMDEyMjA3MDMxMiw3MS40MDAwMDE1MjU4Nzg5QzE3NC43MjAwMDEyMjA3MDMxMiw3OS43MzMzMzQ4NTkyMTIyMywxNzQuNzIwMDAxMjIwNzAzMTIsODguMDY2NjY4MTkyNTQ1NTgsMTc0LjcyMDAwMTIyMDcwMzEyLDkyLjIzMzMzNDg1OTIxMjIzTDE3NC43MjAwMDEyMjA3MDMxMiw5Ni40MDAwMDE1MjU4Nzg5IiBjbGFzcz0icGF0aCI+PC9wYXRoPjxkZWZzPjxtYXJrZXIgb3JpZW50PSJhdXRvIiBtYXJrZXJIZWlnaHQ9IjYiIG1hcmtlcldpZHRoPSI4IiBtYXJrZXJVbml0cz0ic3Ryb2tlV2lkdGgiIHJlZlk9IjUiIHJlZlg9IjkiIHZpZXdCb3g9IjAgMCAxMCAxMCIgaWQ9ImFycm93aGVhZDMwMSI+PHBhdGggc3R5bGU9InN0cm9rZS13aWR0aDogMTsgc3Ryb2tlLWRhc2hhcnJheTogMSwgMDsiIGNsYXNzPSJhcnJvd2hlYWRQYXRoIiBkPSJNIDAgMCBMIDEwIDUgTCAwIDEwIHoiPjwvcGF0aD48L21hcmtlcj48L2RlZnM+PC9nPjxnIHN0eWxlPSJvcGFjaXR5OiAxOyIgaWQ9IkwtTC1NIiBjbGFzcz0iZWRnZVBhdGggTFMtTCBMRS1NIj48cGF0aCBzdHlsZT0iZmlsbDpub25lIiBtYXJrZXItZW5kPSJ1cmwoI2Fycm93aGVhZDMwMikiIGQ9Ik0xMzEuMTQyMDgxODIxODAyNzUsMTM0LjgwMDAwMzA1MTc1NzhMMTIxLjY4NTA2ODQzOTE0ODc4LDEzOC45NjY2Njk3MTg0MjQ0N0MxMTIuMjI4MDU1MDU2NDk0OCwxNDMuMTMzMzM2Mzg1MDkxMTYsOTMuMzE0MDI4MjkxMTg2ODYsMTUxLjQ2NjY2OTcxODQyNDQ3LDgzLjg1NzAxNDkwODUzMjg5LDE3MC42NDAwMDI1Njg1NjI4M0M3NC40MDAwMDE1MjU4Nzg5LDE4OS44MTMzMzU0MTg3MDExNyw3NC40MDAwMDE1MjU4Nzg5LDIxOS44MjY2Njc3ODU2NDQ1Myw3NC40MDAwMDE1MjU4Nzg5LDIzNC44MzMzMzM5NjkxMTYyTDc0LjQwMDAwMTUyNTg3ODksMjQ5Ljg0MDAwMDE1MjU4NzkiIGNsYXNzPSJwYXRoIj48L3BhdGg+PGRlZnM+PG1hcmtlciBvcmllbnQ9ImF1dG8iIG1hcmtlckhlaWdodD0iNiIgbWFya2VyV2lkdGg9IjgiIG1hcmtlclVuaXRzPSJzdHJva2VXaWR0aCIgcmVmWT0iNSIgcmVmWD0iOSIgdmlld0JveD0iMCAwIDEwIDEwIiBpZD0iYXJyb3doZWFkMzAyIj48cGF0aCBzdHlsZT0ic3Ryb2tlLXdpZHRoOiAxOyBzdHJva2UtZGFzaGFycmF5OiAxLCAwOyIgY2xhc3M9ImFycm93aGVhZFBhdGgiIGQ9Ik0gMCAwIEwgMTAgNSBMIDAgMTAgeiI+PC9wYXRoPjwvbWFya2VyPjwvZGVmcz48L2c+PGcgc3R5bGU9Im9wYWNpdHk6IDE7IiBpZD0iTC1MLU4iIGNsYXNzPSJlZGdlUGF0aCBMUy1MIExFLU4iPjxwYXRoIHN0eWxlPSJmaWxsOm5vbmUiIG1hcmtlci1lbmQ9InVybCgjYXJyb3doZWFkMzAzKSIgZD0iTTIxOC4yOTc5MjA2MTk2MDM1LDEzNC44MDAwMDMwNTE3NTc4TDIyNy43NTQ5MzQwMDIyNTc1LDEzOC45NjY2Njk3MTg0MjQ0N0MyMzcuMjExOTQ3Mzg0OTExNDQsMTQzLjEzMzMzNjM4NTA5MTE2LDI1Ni4xMjU5NzQxNTAyMTk0LDE1MS40NjY2Njk3MTg0MjQ0NywyNjUuNjY2MzIwODY2MjA2NywxNTkuODgzMzM2OTQxNDAxMTVDMjc1LjIwNjY2NzU4MjE5NDAzLDE2OC4zMDAwMDQxNjQzNzc4NCwyNzUuMzczMzM0MjQ4ODYwNjYsMTc2LjgwMDAwNTI3Njk5NzksMjc1LjQ1NjY2NzU4MjE5NDAzLDE4MS4wNTAwMDU4MzMzMDc4NkwyNzUuNTQwMDAwOTE1NTI3MzQsMTg1LjMwMDAwNjM4OTYxNzkiIGNsYXNzPSJwYXRoIj48L3BhdGg+PGRlZnM+PG1hcmtlciBvcmllbnQ9ImF1dG8iIG1hcmtlckhlaWdodD0iNiIgbWFya2VyV2lkdGg9IjgiIG1hcmtlclVuaXRzPSJzdHJva2VXaWR0aCIgcmVmWT0iNSIgcmVmWD0iOSIgdmlld0JveD0iMCAwIDEwIDEwIiBpZD0iYXJyb3doZWFkMzAzIj48cGF0aCBzdHlsZT0ic3Ryb2tlLXdpZHRoOiAxOyBzdHJva2UtZGFzaGFycmF5OiAxLCAwOyIgY2xhc3M9ImFycm93aGVhZFBhdGgiIGQ9Ik0gMCAwIEwgMTAgNSBMIDAgMTAgeiI+PC9wYXRoPjwvbWFya2VyPjwvZGVmcz48L2c+PGcgc3R5bGU9Im9wYWNpdHk6IDE7IiBpZD0iTC1OLU8iIGNsYXNzPSJlZGdlUGF0aCBMUy1OIExFLU8iPjxwYXRoIHN0eWxlPSJmaWxsOm5vbmUiIG1hcmtlci1lbmQ9InVybCgjYXJyb3doZWFkMzA0KSIgZD0iTTI0My4xMDcxOTM5ODQ0NzM2NywzMjEuMzQ3MTk1MTg2MTAzMjVMMjM2LjA3MTUxNTkwOTQwNDMzLDMzMi4zNjkzMjkwODY1MTMwNkMyMjkuMDM1ODM3ODM0MzM0OTgsMzQzLjM5MTQ2Mjk4NjkyMjgsMjE0Ljk2NDQ4MTY4NDE5NjMzLDM2NS40MzU3MzA3ODc3NDI0NCwyMDcuOTI4ODAzNjA5MTI2OTYsMzgyLjE1Nzg2NDY1NjM2MzFDMjAwLjg5MzEyNTUzNDA1NzYyLDM5OC44Nzk5OTg1MjQ5ODM3LDIwMC44OTMxMjU1MzQwNTc2Miw0MTAuMjc5OTk4NDYxNDA1NDYsMjAwLjg5MzEyNTUzNDA1NzYyLDQxNS45Nzk5OTg0Mjk2MTYzTDIwMC44OTMxMjU1MzQwNTc2Miw0MjEuNjc5OTk4Mzk3ODI3MTUiIGNsYXNzPSJwYXRoIj48L3BhdGg+PGRlZnM+PG1hcmtlciBvcmllbnQ9ImF1dG8iIG1hcmtlckhlaWdodD0iNiIgbWFya2VyV2lkdGg9IjgiIG1hcmtlclVuaXRzPSJzdHJva2VXaWR0aCIgcmVmWT0iNSIgcmVmWD0iOSIgdmlld0JveD0iMCAwIDEwIDEwIiBpZD0iYXJyb3doZWFkMzA0Ij48cGF0aCBzdHlsZT0ic3Ryb2tlLXdpZHRoOiAxOyBzdHJva2UtZGFzaGFycmF5OiAxLCAwOyIgY2xhc3M9ImFycm93aGVhZFBhdGgiIGQ9Ik0gMCAwIEwgMTAgNSBMIDAgMTAgeiI+PC9wYXRoPjwvbWFya2VyPjwvZGVmcz48L2c+PGcgc3R5bGU9Im9wYWNpdHk6IDE7IiBpZD0iTC1OLVAiIGNsYXNzPSJlZGdlUGF0aCBMUy1OIExFLVAiPjxwYXRoIHN0eWxlPSJmaWxsOm5vbmUiIG1hcmtlci1lbmQ9InVybCgjYXJyb3doZWFkMzA1KSIgZD0iTTMxMC44MzI4NjIxMjc5NDA4LDMxOC40ODcxNDc1ODA0NjM5TDMxOS4xMDA3MTg4NDY4NTE3NSwzMjkuOTg1OTU2MDgxODEzNkMzMjcuMzY4NTc1NTY1NzYyNiwzNDEuNDg0NzY0NTgzMTYzMjcsMzQzLjkwNDI4OTAwMzU4NDQ0LDM2NC40ODIzODE1ODU4NjI2NCwzNTIuMTcyMTQ1NzIyNDk1MywzODQuODgxMTkwMTgyNTc5NzZDMzYwLjQ0MDAwMjQ0MTQwNjI1LDQwNS4yNzk5OTg3NzkyOTY5LDM2MC40NDAwMDI0NDE0MDYyNSw0MjMuMDc5OTk4OTcwMDMxNzQsMzYwLjQ0MDAwMjQ0MTQwNjI1LDQ0MC44Nzk5OTkxNjA3NjY2QzM2MC40NDAwMDI0NDE0MDYyNSw0NTguNjc5OTk5MzUxNTAxNDYsMzYwLjQ0MDAwMjQ0MTQwNjI1LDQ3Ni40Nzk5OTk1NDIyMzYzLDM2MC40NDAwMDI0NDE0MDYyNSw0OTQuMjc5OTk5NzMyOTcxMkMzNjAuNDQwMDAyNDQxNDA2MjUsNTEyLjA3OTk5OTkyMzcwNiwzNjAuNDQwMDAyNDQxNDA2MjUsNTI5Ljg4MDAwMDExNDQ0MDksMzYwLjQ0MDAwMjQ0MTQwNjI1LDU0Ni4xNDY2NjcwMDM2MzE2QzM2MC40NDAwMDI0NDE0MDYyNSw1NjIuNDEzMzMzODkyODIyMywzNjAuNDQwMDAyNDQxNDA2MjUsNTc3LjE0NjY2NzQ4MDQ2ODgsMzYwLjQ0MDAwMjQ0MTQwNjI1LDU4OC42ODAwMDA5NDA5NTg2QzM2MC40NDAwMDI0NDE0MDYyNSw2MDAuMjEzMzM0NDAxNDQ4NiwzNjAuNDQwMDAyNDQxNDA2MjUsNjA4LjU0NjY2NzczNDc4MTksMzYwLjQ0MDAwMjQ0MTQwNjI1LDYxMi43MTMzMzQ0MDE0NDg2TDM2MC40NDAwMDI0NDE0MDYyNSw2MTYuODgwMDAxMDY4MTE1MiIgY2xhc3M9InBhdGgiPjwvcGF0aD48ZGVmcz48bWFya2VyIG9yaWVudD0iYXV0byIgbWFya2VySGVpZ2h0PSI2IiBtYXJrZXJXaWR0aD0iOCIgbWFya2VyVW5pdHM9InN0cm9rZVdpZHRoIiByZWZZPSI1IiByZWZYPSI5IiB2aWV3Qm94PSIwIDAgMTAgMTAiIGlkPSJhcnJvd2hlYWQzMDUiPjxwYXRoIHN0eWxlPSJzdHJva2Utd2lkdGg6IDE7IHN0cm9rZS1kYXNoYXJyYXk6IDEsIDA7IiBjbGFzcz0iYXJyb3doZWFkUGF0aCIgZD0iTSAwIDAgTCAxMCA1IEwgMCAxMCB6Ij48L3BhdGg+PC9tYXJrZXI+PC9kZWZzPjwvZz48ZyBzdHlsZT0ib3BhY2l0eTogMTsiIGlkPSJMLU8tUSIgY2xhc3M9ImVkZ2VQYXRoIExTLU8gTEUtUSI+PHBhdGggc3R5bGU9ImZpbGw6bm9uZSIgbWFya2VyLWVuZD0idXJsKCNhcnJvd2hlYWQzMDYpIiBkPSJNMjE2LjI0NTkzNTI0MjY5MDY1LDQ2MC4wNzk5OTk5MjM3MDYwNUwyMjAuODAzODAwNDE4NDA4NCw0NjUuNzc5OTk5ODkxOTE2OTNDMjI1LjM2MTY2NTU5NDEyNjEsNDcxLjQ3OTk5OTg2MDEyNzc1LDIzNC40NzczOTU5NDU1NjE2LDQ4Mi44Nzk5OTk3OTY1NDk1LDIzOS4wMzUyNjExMjEyNzkzMiw0OTQuMjc5OTk5NzMyOTcxMkMyNDMuNTkzMTI2Mjk2OTk3MDcsNTA1LjY3OTk5OTY2OTM5MjksMjQzLjU5MzEyNjI5Njk5NzA3LDUxNy4wNzk5OTk2MDU4MTQ2LDI0My41OTMxMjYyOTY5OTcwNyw1MjIuNzc5OTk5NTc0MDI1NUwyNDMuNTkzMTI2Mjk2OTk3MDcsNTI4LjQ3OTk5OTU0MjIzNjMiIGNsYXNzPSJwYXRoIj48L3BhdGg+PGRlZnM+PG1hcmtlciBvcmllbnQ9ImF1dG8iIG1hcmtlckhlaWdodD0iNiIgbWFya2VyV2lkdGg9IjgiIG1hcmtlclVuaXRzPSJzdHJva2VXaWR0aCIgcmVmWT0iNSIgcmVmWD0iOSIgdmlld0JveD0iMCAwIDEwIDEwIiBpZD0iYXJyb3doZWFkMzA2Ij48cGF0aCBzdHlsZT0ic3Ryb2tlLXdpZHRoOiAxOyBzdHJva2UtZGFzaGFycmF5OiAxLCAwOyIgY2xhc3M9ImFycm93aGVhZFBhdGgiIGQ9Ik0gMCAwIEwgMTAgNSBMIDAgMTAgeiI+PC9wYXRoPjwvbWFya2VyPjwvZGVmcz48L2c+PGcgc3R5bGU9Im9wYWNpdHk6IDE7IiBpZD0iTC1PLVIiIGNsYXNzPSJlZGdlUGF0aCBMUy1PIExFLVIiPjxwYXRoIHN0eWxlPSJmaWxsOm5vbmUiIG1hcmtlci1lbmQ9InVybCgjYXJyb3doZWFkMzA3KSIgZD0iTTE4NS41NDAzMTU4MjU0MjQ1OSw0NjAuMDc5OTk5OTIzNzA2MDVMMTgwLjk4MjQ1MDY0OTcwNjgzLDQ2NS43Nzk5OTk4OTE5MTY5M0MxNzYuNDI0NTg1NDczOTg5MTQsNDcxLjQ3OTk5OTg2MDEyNzc1LDE2Ny4zMDg4NTUxMjI1NTM2NCw0ODIuODc5OTk5Nzk2NTQ5NSwxNjIuNzUwOTg5OTQ2ODM1OTIsNDk3LjQ3OTk5OTg2MDEyNzc1QzE1OC4xOTMxMjQ3NzExMTgxNiw1MTIuMDc5OTk5OTIzNzA2LDE1OC4xOTMxMjQ3NzExMTgxNiw1MjkuODgwMDAwMTE0NDQwOSwxNTguMTkzMTI0NzcxMTE4MTYsNTQ2LjE0NjY2NzAwMzYzMTZDMTU4LjE5MzEyNDc3MTExODE2LDU2Mi40MTMzMzM4OTI4MjIzLDE1OC4xOTMxMjQ3NzExMTgxNiw1NzcuMTQ2NjY3NDgwNDY4OCwxNjIuMjE4Mzg4NzI1MjkzNDcsNTg4LjY4MDAwMDk0MDk1ODZDMTY2LjI0MzY1MjY3OTQ2ODc3LDYwMC4yMTMzMzQ0MDE0NDg2LDE3NC4yOTQxODA1ODc4MTkzNyw2MDguNTQ2NjY3NzM0NzgxOSwxNzguMzE5NDQ0NTQxOTk0NjcsNjEyLjcxMzMzNDQwMTQ0ODZMMTgyLjM0NDcwODQ5NjE2OTk3LDYxNi44ODAwMDEwNjgxMTUyIiBjbGFzcz0icGF0aCI+PC9wYXRoPjxkZWZzPjxtYXJrZXIgb3JpZW50PSJhdXRvIiBtYXJrZXJIZWlnaHQ9IjYiIG1hcmtlcldpZHRoPSI4IiBtYXJrZXJVbml0cz0ic3Ryb2tlV2lkdGgiIHJlZlk9IjUiIHJlZlg9IjkiIHZpZXdCb3g9IjAgMCAxMCAxMCIgaWQ9ImFycm93aGVhZDMwNyI+PHBhdGggc3R5bGU9InN0cm9rZS13aWR0aDogMTsgc3Ryb2tlLWRhc2hhcnJheTogMSwgMDsiIGNsYXNzPSJhcnJvd2hlYWRQYXRoIiBkPSJNIDAgMCBMIDEwIDUgTCAwIDEwIHoiPjwvcGF0aD48L21hcmtlcj48L2RlZnM+PC9nPjxnIHN0eWxlPSJvcGFjaXR5OiAxOyIgaWQ9IkwtUS1SIiBjbGFzcz0iZWRnZVBhdGggTFMtUSBMRS1SIj48cGF0aCBzdHlsZT0iZmlsbDpub25lIiBtYXJrZXItZW5kPSJ1cmwoI2Fycm93aGVhZDMwOCkiIGQ9Ik0yNDMuNTkzMTI2Mjk2OTk3MDcsNTY2Ljg4MDAwMTA2ODExNTJMMjQzLjU5MzEyNjI5Njk5NzA3LDU3MS4wNDY2Njc3MzQ3ODE5QzI0My41OTMxMjYyOTY5OTcwNyw1NzUuMjEzMzM0NDAxNDQ4NiwyNDMuNTkzMTI2Mjk2OTk3MDcsNTgzLjU0NjY2NzczNDc4MTksMjM5LjU2Nzg2MjM0MjgyMTc3LDU5MS44ODAwMDEwNjgxMTUyQzIzNS41NDI1OTgzODg2NDY1LDYwMC4yMTMzMzQ0MDE0NDg2LDIyNy40OTIwNzA0ODAyOTU4Nyw2MDguNTQ2NjY3NzM0NzgxOSwyMjMuNDY2ODA2NTI2MTIwNTYsNjEyLjcxMzMzNDQwMTQ0ODZMMjE5LjQ0MTU0MjU3MTk0NTI2LDYxNi44ODAwMDEwNjgxMTUyIiBjbGFzcz0icGF0aCI+PC9wYXRoPjxkZWZzPjxtYXJrZXIgb3JpZW50PSJhdXRvIiBtYXJrZXJIZWlnaHQ9IjYiIG1hcmtlcldpZHRoPSI4IiBtYXJrZXJVbml0cz0ic3Ryb2tlV2lkdGgiIHJlZlk9IjUiIHJlZlg9IjkiIHZpZXdCb3g9IjAgMCAxMCAxMCIgaWQ9ImFycm93aGVhZDMwOCI+PHBhdGggc3R5bGU9InN0cm9rZS13aWR0aDogMTsgc3Ryb2tlLWRhc2hhcnJheTogMSwgMDsiIGNsYXNzPSJhcnJvd2hlYWRQYXRoIiBkPSJNIDAgMCBMIDEwIDUgTCAwIDEwIHoiPjwvcGF0aD48L21hcmtlcj48L2RlZnM+PC9nPjxnIHN0eWxlPSJvcGFjaXR5OiAxOyIgaWQ9IkwtUi1TIiBjbGFzcz0iZWRnZVBhdGggTFMtUiBMRS1TIj48cGF0aCBzdHlsZT0iZmlsbDpub25lIiBtYXJrZXItZW5kPSJ1cmwoI2Fycm93aGVhZDMwOSkiIGQ9Ik0yMDAuODkzMTI1NTM0MDU3NjIsNjU1LjI4MDAwMjU5Mzk5NDFMMjAwLjg5MzEyNTUzNDA1NzYyLDY1OS40NDY2NjkyNjA2NjA4QzIwMC44OTMxMjU1MzQwNTc2Miw2NjMuNjEzMzM1OTI3MzI3NSwyMDAuODkzMTI1NTM0MDU3NjIsNjcxLjk0NjY2OTI2MDY2MDgsMjA3Ljg4MjgzODQwMTg1NjkzLDY4MC4yODAwMDI1OTM5OTQxQzIxNC44NzI1NTEyNjk2NTYyNCw2ODguNjEzMzM1OTI3MzI3NSwyMjguODUxOTc3MDA1MjU0ODcsNjk2Ljk0NjY2OTI2MDY2MDgsMjM1Ljg0MTY4OTg3MzA1NDE4LDcwMS4xMTMzMzU5MjczMjc1TDI0Mi44MzE0MDI3NDA4NTM1LDcwNS4yODAwMDI1OTM5OTQxIiBjbGFzcz0icGF0aCI+PC9wYXRoPjxkZWZzPjxtYXJrZXIgb3JpZW50PSJhdXRvIiBtYXJrZXJIZWlnaHQ9IjYiIG1hcmtlcldpZHRoPSI4IiBtYXJrZXJVbml0cz0ic3Ryb2tlV2lkdGgiIHJlZlk9IjUiIHJlZlg9IjkiIHZpZXdCb3g9IjAgMCAxMCAxMCIgaWQ9ImFycm93aGVhZDMwOSI+PHBhdGggc3R5bGU9InN0cm9rZS13aWR0aDogMTsgc3Ryb2tlLWRhc2hhcnJheTogMSwgMDsiIGNsYXNzPSJhcnJvd2hlYWRQYXRoIiBkPSJNIDAgMCBMIDEwIDUgTCAwIDEwIHoiPjwvcGF0aD48L21hcmtlcj48L2RlZnM+PC9nPjxnIHN0eWxlPSJvcGFjaXR5OiAxOyIgaWQ9IkwtUC1TIiBjbGFzcz0iZWRnZVBhdGggTFMtUCBMRS1TIj48cGF0aCBzdHlsZT0iZmlsbDpub25lIiBtYXJrZXItZW5kPSJ1cmwoI2Fycm93aGVhZDMxMCkiIGQ9Ik0zNjAuNDQwMDAyNDQxNDA2MjUsNjU1LjI4MDAwMjU5Mzk5NDFMMzYwLjQ0MDAwMjQ0MTQwNjI1LDY1OS40NDY2NjkyNjA2NjA4QzM2MC40NDAwMDI0NDE0MDYyNSw2NjMuNjEzMzM1OTI3MzI3NSwzNjAuNDQwMDAyNDQxNDA2MjUsNjcxLjk0NjY2OTI2MDY2MDgsMzUyLjM4OTQ3NDUzMzA1NTY1LDY4MC4yODAwMDI1OTM5OTQxQzM0NC4zMzg5NDY2MjQ3MDUxLDY4OC42MTMzMzU5MjczMjc1LDMyOC4yMzc4OTA4MDgwMDM4NCw2OTYuOTQ2NjY5MjYwNjYwOCwzMjAuMTg3MzYyODk5NjUzMjQsNzAxLjExMzMzNTkyNzMyNzVMMzEyLjEzNjgzNDk5MTMwMjYzLDcwNS4yODAwMDI1OTM5OTQxIiBjbGFzcz0icGF0aCI+PC9wYXRoPjxkZWZzPjxtYXJrZXIgb3JpZW50PSJhdXRvIiBtYXJrZXJIZWlnaHQ9IjYiIG1hcmtlcldpZHRoPSI4IiBtYXJrZXJVbml0cz0ic3Ryb2tlV2lkdGgiIHJlZlk9IjUiIHJlZlg9IjkiIHZpZXdCb3g9IjAgMCAxMCAxMCIgaWQ9ImFycm93aGVhZDMxMCI+PHBhdGggc3R5bGU9InN0cm9rZS13aWR0aDogMTsgc3Ryb2tlLWRhc2hhcnJheTogMSwgMDsiIGNsYXNzPSJhcnJvd2hlYWRQYXRoIiBkPSJNIDAgMCBMIDEwIDUgTCAwIDEwIHoiPjwvcGF0aD48L21hcmtlcj48L2RlZnM+PC9nPjwvZz48ZyBjbGFzcz0iZWRnZUxhYmVscyI+PGcgc3R5bGU9Im9wYWNpdHk6IDE7IiB0cmFuc2Zvcm09IiIgY2xhc3M9ImVkZ2VMYWJlbCI+PGcgY2xhc3M9ImxhYmVsIiB0cmFuc2Zvcm09InRyYW5zbGF0ZSgwLDApIj48cmVjdCBoZWlnaHQ9IjAiIHdpZHRoPSIwIiByeT0iMCIgcng9IjAiPjwvcmVjdD48dGV4dD48dHNwYW4geD0iMSIgZHk9IjFlbSIgeG1sOnNwYWNlPSJwcmVzZXJ2ZSI+PC90c3Bhbj48L3RleHQ+PC9nPjwvZz48ZyBzdHlsZT0ib3BhY2l0eTogMTsiIHRyYW5zZm9ybT0iIiBjbGFzcz0iZWRnZUxhYmVsIj48ZyBjbGFzcz0ibGFiZWwiIHRyYW5zZm9ybT0idHJhbnNsYXRlKDAsMCkiPjxyZWN0IGhlaWdodD0iMCIgd2lkdGg9IjAiIHJ5PSIwIiByeD0iMCI+PC9yZWN0Pjx0ZXh0Pjx0c3BhbiB4PSIxIiBkeT0iMWVtIiB4bWw6c3BhY2U9InByZXNlcnZlIj48L3RzcGFuPjwvdGV4dD48L2c+PC9nPjxnIHN0eWxlPSJvcGFjaXR5OiAxOyIgdHJhbnNmb3JtPSIiIGNsYXNzPSJlZGdlTGFiZWwiPjxnIGNsYXNzPSJsYWJlbCIgdHJhbnNmb3JtPSJ0cmFuc2xhdGUoMCwwKSI+PHJlY3QgaGVpZ2h0PSIwIiB3aWR0aD0iMCIgcnk9IjAiIHJ4PSIwIj48L3JlY3Q+PHRleHQ+PHRzcGFuIHg9IjEiIGR5PSIxZW0iIHhtbDpzcGFjZT0icHJlc2VydmUiPjwvdHNwYW4+PC90ZXh0PjwvZz48L2c+PGcgc3R5bGU9Im9wYWNpdHk6IDE7IiB0cmFuc2Zvcm09InRyYW5zbGF0ZSgyMDAuODkzMTI1NTM0MDU3NjIsMzg3LjQ3OTk5ODU4ODU2MikiIGNsYXNzPSJlZGdlTGFiZWwiPjxnIGNsYXNzPSJsYWJlbCIgdHJhbnNmb3JtPSJ0cmFuc2xhdGUoLTguODAwMDAwMTkwNzM0ODYzLC05LjE5OTk5OTgwOTI2NTEzNykiPjxyZWN0IGhlaWdodD0iMTguMzk5OTk5NjE4NTMwMjczIiB3aWR0aD0iMTcuNjAwMDAwMzgxNDY5NzI3IiByeT0iMCIgcng9IjAiPjwvcmVjdD48dGV4dD48dHNwYW4geD0iMSIgZHk9IjFlbSIgeG1sOnNwYWNlPSJwcmVzZXJ2ZSI+5pivPC90c3Bhbj48L3RleHQ+PC9nPjwvZz48ZyBzdHlsZT0ib3BhY2l0eTogMTsiIHRyYW5zZm9ybT0idHJhbnNsYXRlKDM2MC40NDAwMDI0NDE0MDYyNSw0OTQuMjc5OTk5NzMyOTcxMikiIGNsYXNzPSJlZGdlTGFiZWwiPjxnIGNsYXNzPSJsYWJlbCIgdHJhbnNmb3JtPSJ0cmFuc2xhdGUoLTgsLTkuMTk5OTk5ODA5MjY1MTM3KSI+PHJlY3QgaGVpZ2h0PSIxOC4zOTk5OTk2MTg1MzAyNzMiIHdpZHRoPSIxNiIgcnk9IjAiIHJ4PSIwIj48L3JlY3Q+PHRleHQ+PHRzcGFuIHg9IjEiIGR5PSIxZW0iIHhtbDpzcGFjZT0icHJlc2VydmUiPuWQpjwvdHNwYW4+PC90ZXh0PjwvZz48L2c+PGcgc3R5bGU9Im9wYWNpdHk6IDE7IiB0cmFuc2Zvcm09IiIgY2xhc3M9ImVkZ2VMYWJlbCI+PGcgY2xhc3M9ImxhYmVsIiB0cmFuc2Zvcm09InRyYW5zbGF0ZSgwLDApIj48cmVjdCBoZWlnaHQ9IjAiIHdpZHRoPSIwIiByeT0iMCIgcng9IjAiPjwvcmVjdD48dGV4dD48dHNwYW4geD0iMSIgZHk9IjFlbSIgeG1sOnNwYWNlPSJwcmVzZXJ2ZSI+PC90c3Bhbj48L3RleHQ+PC9nPjwvZz48ZyBzdHlsZT0ib3BhY2l0eTogMTsiIHRyYW5zZm9ybT0iIiBjbGFzcz0iZWRnZUxhYmVsIj48ZyBjbGFzcz0ibGFiZWwiIHRyYW5zZm9ybT0idHJhbnNsYXRlKDAsMCkiPjxyZWN0IGhlaWdodD0iMCIgd2lkdGg9IjAiIHJ5PSIwIiByeD0iMCI+PC9yZWN0Pjx0ZXh0Pjx0c3BhbiB4PSIxIiBkeT0iMWVtIiB4bWw6c3BhY2U9InByZXNlcnZlIj48L3RzcGFuPjwvdGV4dD48L2c+PC9nPjxnIHN0eWxlPSJvcGFjaXR5OiAxOyIgdHJhbnNmb3JtPSIiIGNsYXNzPSJlZGdlTGFiZWwiPjxnIGNsYXNzPSJsYWJlbCIgdHJhbnNmb3JtPSJ0cmFuc2xhdGUoMCwwKSI+PHJlY3QgaGVpZ2h0PSIwIiB3aWR0aD0iMCIgcnk9IjAiIHJ4PSIwIj48L3JlY3Q+PHRleHQ+PHRzcGFuIHg9IjEiIGR5PSIxZW0iIHhtbDpzcGFjZT0icHJlc2VydmUiPjwvdHNwYW4+PC90ZXh0PjwvZz48L2c+PGcgc3R5bGU9Im9wYWNpdHk6IDE7IiB0cmFuc2Zvcm09IiIgY2xhc3M9ImVkZ2VMYWJlbCI+PGcgY2xhc3M9ImxhYmVsIiB0cmFuc2Zvcm09InRyYW5zbGF0ZSgwLDApIj48cmVjdCBoZWlnaHQ9IjAiIHdpZHRoPSIwIiByeT0iMCIgcng9IjAiPjwvcmVjdD48dGV4dD48dHNwYW4geD0iMSIgZHk9IjFlbSIgeG1sOnNwYWNlPSJwcmVzZXJ2ZSI+PC90c3Bhbj48L3RleHQ+PC9nPjwvZz48ZyBzdHlsZT0ib3BhY2l0eTogMTsiIHRyYW5zZm9ybT0iIiBjbGFzcz0iZWRnZUxhYmVsIj48ZyBjbGFzcz0ibGFiZWwiIHRyYW5zZm9ybT0idHJhbnNsYXRlKDAsMCkiPjxyZWN0IGhlaWdodD0iMCIgd2lkdGg9IjAiIHJ5PSIwIiByeD0iMCI+PC9yZWN0Pjx0ZXh0Pjx0c3BhbiB4PSIxIiBkeT0iMWVtIiB4bWw6c3BhY2U9InByZXNlcnZlIj48L3RzcGFuPjwvdGV4dD48L2c+PC9nPjwvZz48ZyBjbGFzcz0ibm9kZXMiPjxnIHN0eWxlPSJvcGFjaXR5OiAxOyIgdHJhbnNmb3JtPSJ0cmFuc2xhdGUoMTc0LjcyMDAwMTIyMDcwMzEyLDI3LjIwMDAwMDc2MjkzOTQ1MykiIGlkPSJmbG93Y2hhcnQtSi0yNTIiIGNsYXNzPSJub2RlIGRlZmF1bHQiPjxyZWN0IGNsYXNzPSJsYWJlbC1jb250YWluZXIiIGhlaWdodD0iMzguMzk5OTk5NjE4NTMwMjciIHdpZHRoPSIxODAuODAwMDAzMDUxNzU3OCIgeT0iLTE5LjE5OTk5OTgwOTI2NTEzNyIgeD0iLTkwLjQwMDAwMTUyNTg3ODkiIHJ5PSIwIiByeD0iMCI+PC9yZWN0PjxnIHRyYW5zZm9ybT0idHJhbnNsYXRlKDAsMCkiIGNsYXNzPSJsYWJlbCI+PGcgdHJhbnNmb3JtPSJ0cmFuc2xhdGUoLTgwLjQwMDAwMTUyNTg3ODksLTkuMTk5OTk5ODA5MjY1MTM3KSI+PHRleHQgc3R5bGU9IiI+PHRzcGFuIHg9IjEiIGR5PSIxZW0iIHhtbDpzcGFjZT0icHJlc2VydmUiPui/lOWbnuWkhOeQhuWQjueahOaVsOaNruWtl+WFuDwvdHNwYW4+PC90ZXh0PjwvZz48L2c+PC9nPjxnIHN0eWxlPSJvcGFjaXR5OiAxOyIgdHJhbnNmb3JtPSJ0cmFuc2xhdGUoMTc0LjcyMDAwMTIyMDcwMzEyLDExNS42MDAwMDIyODg4MTgzNikiIGlkPSJmbG93Y2hhcnQtTC0yNTMiIGNsYXNzPSJub2RlIGRlZmF1bHQiPjxyZWN0IGNsYXNzPSJsYWJlbC1jb250YWluZXIiIGhlaWdodD0iMzguMzk5OTk5NjE4NTMwMjciIHdpZHRoPSIxMTUuOTg3NTAzMDUxNzU3ODEiIHk9Ii0xOS4xOTk5OTk4MDkyNjUxMzciIHg9Ii01Ny45OTM3NTE1MjU4Nzg5MDYiIHJ5PSIwIiByeD0iMCI+PC9yZWN0PjxnIHRyYW5zZm9ybT0idHJhbnNsYXRlKDAsMCkiIGNsYXNzPSJsYWJlbCI+PGcgdHJhbnNmb3JtPSJ0cmFuc2xhdGUoLTQ3Ljk5Mzc1MTUyNTg3ODkwNiwtOS4xOTk5OTk4MDkyNjUxMzcpIj48dGV4dCBzdHlsZT0iIj48dHNwYW4geD0iMSIgZHk9IjFlbSIgeG1sOnNwYWNlPSJwcmVzZXJ2ZSI+Y2FsY3VsYXRlX21hPC90c3Bhbj48L3RleHQ+PC9nPjwvZz48L2c+PGcgc3R5bGU9Im9wYWNpdHk6IDE7IiB0cmFuc2Zvcm09InRyYW5zbGF0ZSg3NC40MDAwMDE1MjU4Nzg5LDI2OS4wNDAwMDA5MTU1MjczNCkiIGlkPSJmbG93Y2hhcnQtTS0yNTUiIGNsYXNzPSJub2RlIGRlZmF1bHQiPjxyZWN0IGNsYXNzPSJsYWJlbC1jb250YWluZXIiIGhlaWdodD0iMzguMzk5OTk5NjE4NTMwMjciIHdpZHRoPSIxMzIuODAwMDAzMDUxNzU3OCIgeT0iLTE5LjE5OTk5OTgwOTI2NTEzNyIgeD0iLTY2LjQwMDAwMTUyNTg3ODkiIHJ5PSIwIiByeD0iMCI+PC9yZWN0PjxnIHRyYW5zZm9ybT0idHJhbnNsYXRlKDAsMCkiIGNsYXNzPSJsYWJlbCI+PGcgdHJhbnNmb3JtPSJ0cmFuc2xhdGUoLTU2LjQwMDAwMTUyNTg3ODkwNiwtOS4xOTk5OTk4MDkyNjUxMzcpIj48dGV4dCBzdHlsZT0iIj48dHNwYW4geD0iMSIgZHk9IjFlbSIgeG1sOnNwYWNlPSJwcmVzZXJ2ZSI+5Yid5aeL5YyW57uT5p6c5YiX6KGoPC90c3Bhbj48L3RleHQ+PC9nPjwvZz48L2c+PGcgc3R5bGU9Im9wYWNpdHk6IDE7IiB0cmFuc2Zvcm09InRyYW5zbGF0ZSgyNzUuMDQwMDAwOTE1NTI3MzQsMjY5LjA0MDAwMDkxNTUyNzM0KSIgaWQ9ImZsb3djaGFydC1OLTI1NyIgY2xhc3M9Im5vZGUgZGVmYXVsdCI+PHBvbHlnb24gY2xhc3M9ImxhYmVsLWNvbnRhaW5lciIgdHJhbnNmb3JtPSJ0cmFuc2xhdGUoLTg0LjI0MDAwMTIwMTYyOTY0LDg0LjI0MDAwMTIwMTYyOTY0KSIgcG9pbnRzPSI4NC4yNDAwMDEyMDE2Mjk2NCwwIDE2OC40ODAwMDI0MDMyNTkyOCwtODQuMjQwMDAxMjAxNjI5NjQgODQuMjQwMDAxMjAxNjI5NjQsLTE2OC40ODAwMDI0MDMyNTkyOCAwLC04NC4yNDAwMDEyMDE2Mjk2NCI+PC9wb2x5Z29uPjxnIHRyYW5zZm9ybT0idHJhbnNsYXRlKDAsMCkiIGNsYXNzPSJsYWJlbCI+PGcgdHJhbnNmb3JtPSJ0cmFuc2xhdGUoLTY0LjQwMDAwMTUyNTg3ODksLTkuMTk5OTk5ODA5MjY1MTM3KSI+PHRleHQgc3R5bGU9IiI+PHRzcGFuIHg9IjEiIGR5PSIxZW0iIHhtbDpzcGFjZT0icHJlc2VydmUiPuaYr+WQpua7oei2s+aXpeacn+WRqOacnzwvdHNwYW4+PC90ZXh0PjwvZz48L2c+PC9nPjxnIHN0eWxlPSJvcGFjaXR5OiAxOyIgdHJhbnNmb3JtPSJ0cmFuc2xhdGUoMjAwLjg5MzEyNTUzNDA1NzYyLDQ0MC44Nzk5OTkxNjA3NjY2KSIgaWQ9ImZsb3djaGFydC1PLTI1OSIgY2xhc3M9Im5vZGUgZGVmYXVsdCI+PHJlY3QgY2xhc3M9ImxhYmVsLWNvbnRhaW5lciIgaGVpZ2h0PSIzOC4zOTk5OTk2MTg1MzAyNyIgd2lkdGg9IjExNiIgeT0iLTE5LjE5OTk5OTgwOTI2NTEzNyIgeD0iLTU4IiByeT0iMCIgcng9IjAiPjwvcmVjdD48ZyB0cmFuc2Zvcm09InRyYW5zbGF0ZSgwLDApIiBjbGFzcz0ibGFiZWwiPjxnIHRyYW5zZm9ybT0idHJhbnNsYXRlKC00OCwtOS4xOTk5OTk4MDkyNjUxMzcpIj48dGV4dCBzdHlsZT0iIj48dHNwYW4geD0iMSIgZHk9IjFlbSIgeG1sOnNwYWNlPSJwcmVzZXJ2ZSI+6K6h566X56e75Yqo5bmz5Z2HPC90c3Bhbj48L3RleHQ+PC9nPjwvZz48L2c+PGcgc3R5bGU9Im9wYWNpdHk6IDE7IiB0cmFuc2Zvcm09InRyYW5zbGF0ZSgzNjAuNDQwMDAyNDQxNDA2MjUsNjM2LjA4MDAwMTgzMTA1NDcpIiBpZD0iZmxvd2NoYXJ0LVAtMjYxIiBjbGFzcz0ibm9kZSBkZWZhdWx0Ij48cmVjdCBjbGFzcz0ibGFiZWwtY29udGFpbmVyIiBoZWlnaHQ9IjM4LjM5OTk5OTYxODUzMDI3IiB3aWR0aD0iNjMuNzg3NTAyMjg4ODE4MzYiIHk9Ii0xOS4xOTk5OTk4MDkyNjUxMzciIHg9Ii0zMS44OTM3NTExNDQ0MDkxOCIgcnk9IjAiIHJ4PSIwIj48L3JlY3Q+PGcgdHJhbnNmb3JtPSJ0cmFuc2xhdGUoMCwwKSIgY2xhc3M9ImxhYmVsIj48ZyB0cmFuc2Zvcm09InRyYW5zbGF0ZSgtMjEuODkzNzUxMTQ0NDA5MTgsLTkuMTk5OTk5ODA5MjY1MTM3KSI+PHRleHQgc3R5bGU9IiI+PHRzcGFuIHg9IjEiIGR5PSIxZW0iIHhtbDpzcGFjZT0icHJlc2VydmUiPuWtmOWFpSctJzwvdHNwYW4+PC90ZXh0PjwvZz48L2c+PC9nPjxnIHN0eWxlPSJvcGFjaXR5OiAxOyIgdHJhbnNmb3JtPSJ0cmFuc2xhdGUoMjQzLjU5MzEyNjI5Njk5NzA3LDU0Ny42ODAwMDAzMDUxNzU4KSIgaWQ9ImZsb3djaGFydC1RLTI2MyIgY2xhc3M9Im5vZGUgZGVmYXVsdCI+PHJlY3QgY2xhc3M9ImxhYmVsLWNvbnRhaW5lciIgaGVpZ2h0PSIzOC4zOTk5OTk2MTg1MzAyNyIgd2lkdGg9IjEwMC44MDAwMDMwNTE3NTc4MSIgeT0iLTE5LjE5OTk5OTgwOTI2NTEzNyIgeD0iLTUwLjQwMDAwMTUyNTg3ODkwNiIgcnk9IjAiIHJ4PSIwIj48L3JlY3Q+PGcgdHJhbnNmb3JtPSJ0cmFuc2xhdGUoMCwwKSIgY2xhc3M9ImxhYmVsIj48ZyB0cmFuc2Zvcm09InRyYW5zbGF0ZSgtNDAuNDAwMDAxNTI1ODc4OTA2LC05LjE5OTk5OTgwOTI2NTEzNykiPjx0ZXh0IHN0eWxlPSIiPjx0c3BhbiB4PSIxIiBkeT0iMWVtIiB4bWw6c3BhY2U9InByZXNlcnZlIj7ntK/liqDmlbDmja7lgLw8L3RzcGFuPjwvdGV4dD48L2c+PC9nPjwvZz48ZyBzdHlsZT0ib3BhY2l0eTogMTsiIHRyYW5zZm9ybT0idHJhbnNsYXRlKDIwMC44OTMxMjU1MzQwNTc2Miw2MzYuMDgwMDAxODMxMDU0NykiIGlkPSJmbG93Y2hhcnQtUi0yNjUiIGNsYXNzPSJub2RlIGRlZmF1bHQiPjxyZWN0IGNsYXNzPSJsYWJlbC1jb250YWluZXIiIGhlaWdodD0iMzguMzk5OTk5NjE4NTMwMjciIHdpZHRoPSIxMzIuODAwMDAzMDUxNzU3OCIgeT0iLTE5LjE5OTk5OTgwOTI2NTEzNyIgeD0iLTY2LjQwMDAwMTUyNTg3ODkiIHJ5PSIwIiByeD0iMCI+PC9yZWN0PjxnIHRyYW5zZm9ybT0idHJhbnNsYXRlKDAsMCkiIGNsYXNzPSJsYWJlbCI+PGcgdHJhbnNmb3JtPSJ0cmFuc2xhdGUoLTU2LjQwMDAwMTUyNTg3ODkwNiwtOS4xOTk5OTk4MDkyNjUxMzcpIj48dGV4dCBzdHlsZT0iIj48dHNwYW4geD0iMSIgZHk9IjFlbSIgeG1sOnNwYWNlPSJwcmVzZXJ2ZSI+6K6h566X56e75Yqo5bmz5Z2H5YC8PC90c3Bhbj48L3RleHQ+PC9nPjwvZz48L2c+PGcgc3R5bGU9Im9wYWNpdHk6IDE7IiB0cmFuc2Zvcm09InRyYW5zbGF0ZSgyNzUuMDQwMDAwOTE1NTI3MzQsNzI0LjQ4MDAwMzM1NjkzMzYpIiBpZD0iZmxvd2NoYXJ0LVMtMjY5IiBjbGFzcz0ibm9kZSBkZWZhdWx0Ij48cmVjdCBjbGFzcz0ibGFiZWwtY29udGFpbmVyIiBoZWlnaHQ9IjM4LjM5OTk5OTYxODUzMDI3IiB3aWR0aD0iODUuNTk5OTk4NDc0MTIxMSIgeT0iLTE5LjE5OTk5OTgwOTI2NTEzNyIgeD0iLTQyLjc5OTk5OTIzNzA2MDU1IiByeT0iMCIgcng9IjAiPjwvcmVjdD48ZyB0cmFuc2Zvcm09InRyYW5zbGF0ZSgwLDApIiBjbGFzcz0ibGFiZWwiPjxnIHRyYW5zZm9ybT0idHJhbnNsYXRlKC0zMi43OTk5OTkyMzcwNjA1NSwtOS4xOTk5OTk4MDkyNjUxMzcpIj48dGV4dCBzdHlsZT0iIj48dHNwYW4geD0iMSIgZHk9IjFlbSIgeG1sOnNwYWNlPSJwcmVzZXJ2ZSI+5L+d5a2Y57uT5p6cPC90c3Bhbj48L3RleHQ+PC9nPjwvZz48L2c+PC9nPjwvZz48L2c+PC9zdmc+;" parent="1" vertex="1">
                        <mxGeometry x="-30" y="1530" width="483" height="393" as="geometry"/>
                    </mxCell>
                </UserObject>
                <UserObject label="" mermaidData="{&#10;  &quot;data&quot;: &quot;graph TD;\n    A[开始] --&gt; B{是否有股票名称未处理};\n    B -- 是 --&gt; C[获取股票历史数据];\n    C --&gt; D[定义Excel表头];\n    C --&gt; E[发送HTTP请求];\n    E --&gt; F[转换为JSON格式];\n    F --&gt; G[转换为DataFrame];\n    G --&gt; H[存入Excel];\n    H --&gt; I[打印数据个数];\n    I --&gt; B;\n    B -- 否 --&gt; J[结束];\n&quot;,&#10;  &quot;config&quot;: {&#10;    &quot;theme&quot;: &quot;neutral&quot;,&#10;    &quot;arrowMarkerAbsolute&quot;: false,&#10;    &quot;flowchart&quot;: {&#10;      &quot;htmlLabels&quot;: false&#10;    },&#10;    &quot;sequence&quot;: {&#10;      &quot;diagramMarginX&quot;: 50,&#10;      &quot;diagramMarginY&quot;: 10,&#10;      &quot;actorMargin&quot;: 50,&#10;      &quot;width&quot;: 150,&#10;      &quot;height&quot;: 65,&#10;      &quot;boxMargin&quot;: 10,&#10;      &quot;boxTextMargin&quot;: 5,&#10;      &quot;noteMargin&quot;: 10,&#10;      &quot;messageMargin&quot;: 35,&#10;      &quot;mirrorActors&quot;: true,&#10;      &quot;bottomMarginAdj&quot;: 1,&#10;      &quot;useMaxWidth&quot;: true,&#10;      &quot;rightAngles&quot;: false,&#10;      &quot;showSequenceNumbers&quot;: false&#10;    },&#10;    &quot;gantt&quot;: {&#10;      &quot;titleTopMargin&quot;: 25,&#10;      &quot;barHeight&quot;: 20,&#10;      &quot;barGap&quot;: 4,&#10;      &quot;topPadding&quot;: 50,&#10;      &quot;leftPadding&quot;: 75,&#10;      &quot;gridLineStartPadding&quot;: 35,&#10;      &quot;fontSize&quot;: 11,&#10;      &quot;fontFamily&quot;: &quot;\&quot;Open-Sans\&quot;, \&quot;sans-serif\&quot;&quot;,&#10;      &quot;numberSectionStyles&quot;: 4,&#10;      &quot;axisFormat&quot;: &quot;%Y-%m-%d&quot;&#10;    }&#10;  }&#10;}" id="8">
                    <mxCell style="shape=image;noLabel=1;verticalAlign=top;imageAspect=1;image=data:image/svg+xml,PHN2ZyB2aWV3Qm94PSIwIDAgNDQ3Ljg2NTIzODE4OTY5NzI3IDg1MS4yMDAwMTAyOTk2ODI2IiBzdHlsZT0ibWF4LXdpZHRoOiA0NDcuODY1MjM4MTg5Njk3MjdweDsiIGhlaWdodD0iODUxLjIwMDAxMDI5OTY4MjYiIGFyaWEtbGFiZWxsZWRieT0iY2hhcnQtdGl0bGUtZ2VNZXJtYWlkT3V0cHV0LTE3MTM4NDIzMzYyNTcgY2hhcnQtZGVzYy1nZU1lcm1haWRPdXRwdXQtMTcxMzg0MjMzNjI1NyIgcm9sZT0iaW1nIiB4bWxuczp4bGluaz0iaHR0cDovL3d3dy53My5vcmcvMTk5OS94bGluayIgeG1sbnM9Imh0dHA6Ly93d3cudzMub3JnLzIwMDAvc3ZnIiB3aWR0aD0iMTAwJSIgaWQ9ImdlTWVybWFpZE91dHB1dC0xNzEzODQyMzM2MjU3Ij48dGl0bGUgaWQ9ImNoYXJ0LXRpdGxlLWdlTWVybWFpZE91dHB1dC0xNzEzODQyMzM2MjU3Ij48L3RpdGxlPjxkZXNjIGlkPSJjaGFydC1kZXNjLWdlTWVybWFpZE91dHB1dC0xNzEzODQyMzM2MjU3Ij48L2Rlc2M+PHN0eWxlPiNnZU1lcm1haWRPdXRwdXQtMTcxMzg0MjMzNjI1NyB7Zm9udC1mYW1pbHk6InRyZWJ1Y2hldCBtcyIsdmVyZGFuYSxhcmlhbCxzYW5zLXNlcmlmO2ZvbnQtc2l6ZToxNnB4O2ZpbGw6IzAwMDAwMDt9I2dlTWVybWFpZE91dHB1dC0xNzEzODQyMzM2MjU3IC5lcnJvci1pY29ue2ZpbGw6IzU1MjIyMjt9I2dlTWVybWFpZE91dHB1dC0xNzEzODQyMzM2MjU3IC5lcnJvci10ZXh0e2ZpbGw6IzU1MjIyMjtzdHJva2U6IzU1MjIyMjt9I2dlTWVybWFpZE91dHB1dC0xNzEzODQyMzM2MjU3IC5lZGdlLXRoaWNrbmVzcy1ub3JtYWx7c3Ryb2tlLXdpZHRoOjJweDt9I2dlTWVybWFpZE91dHB1dC0xNzEzODQyMzM2MjU3IC5lZGdlLXRoaWNrbmVzcy10aGlja3tzdHJva2Utd2lkdGg6My41cHg7fSNnZU1lcm1haWRPdXRwdXQtMTcxMzg0MjMzNjI1NyAuZWRnZS1wYXR0ZXJuLXNvbGlke3N0cm9rZS1kYXNoYXJyYXk6MDt9I2dlTWVybWFpZE91dHB1dC0xNzEzODQyMzM2MjU3IC5lZGdlLXBhdHRlcm4tZGFzaGVke3N0cm9rZS1kYXNoYXJyYXk6Mzt9I2dlTWVybWFpZE91dHB1dC0xNzEzODQyMzM2MjU3IC5lZGdlLXBhdHRlcm4tZG90dGVke3N0cm9rZS1kYXNoYXJyYXk6Mjt9I2dlTWVybWFpZE91dHB1dC0xNzEzODQyMzM2MjU3IC5tYXJrZXJ7ZmlsbDojNjY2O3N0cm9rZTojNjY2O30jZ2VNZXJtYWlkT3V0cHV0LTE3MTM4NDIzMzYyNTcgLm1hcmtlci5jcm9zc3tzdHJva2U6IzY2Njt9I2dlTWVybWFpZE91dHB1dC0xNzEzODQyMzM2MjU3IHN2Z3tmb250LWZhbWlseToidHJlYnVjaGV0IG1zIix2ZXJkYW5hLGFyaWFsLHNhbnMtc2VyaWY7Zm9udC1zaXplOjE2cHg7fSNnZU1lcm1haWRPdXRwdXQtMTcxMzg0MjMzNjI1NyAubGFiZWx7Zm9udC1mYW1pbHk6InRyZWJ1Y2hldCBtcyIsdmVyZGFuYSxhcmlhbCxzYW5zLXNlcmlmO2NvbG9yOiMwMDAwMDA7fSNnZU1lcm1haWRPdXRwdXQtMTcxMzg0MjMzNjI1NyAuY2x1c3Rlci1sYWJlbCB0ZXh0e2ZpbGw6IzMzMzt9I2dlTWVybWFpZE91dHB1dC0xNzEzODQyMzM2MjU3IC5jbHVzdGVyLWxhYmVsIHNwYW57Y29sb3I6IzMzMzt9I2dlTWVybWFpZE91dHB1dC0xNzEzODQyMzM2MjU3IC5sYWJlbCB0ZXh0LCNnZU1lcm1haWRPdXRwdXQtMTcxMzg0MjMzNjI1NyBzcGFue2ZpbGw6IzAwMDAwMDtjb2xvcjojMDAwMDAwO30jZ2VNZXJtYWlkT3V0cHV0LTE3MTM4NDIzMzYyNTcgLm5vZGUgcmVjdCwjZ2VNZXJtYWlkT3V0cHV0LTE3MTM4NDIzMzYyNTcgLm5vZGUgY2lyY2xlLCNnZU1lcm1haWRPdXRwdXQtMTcxMzg0MjMzNjI1NyAubm9kZSBlbGxpcHNlLCNnZU1lcm1haWRPdXRwdXQtMTcxMzg0MjMzNjI1NyAubm9kZSBwb2x5Z29uLCNnZU1lcm1haWRPdXRwdXQtMTcxMzg0MjMzNjI1NyAubm9kZSBwYXRoe2ZpbGw6I2VlZTtzdHJva2U6Izk5OTtzdHJva2Utd2lkdGg6MXB4O30jZ2VNZXJtYWlkT3V0cHV0LTE3MTM4NDIzMzYyNTcgLm5vZGUgLmxhYmVse3RleHQtYWxpZ246Y2VudGVyO30jZ2VNZXJtYWlkT3V0cHV0LTE3MTM4NDIzMzYyNTcgLm5vZGUuY2xpY2thYmxle2N1cnNvcjpwb2ludGVyO30jZ2VNZXJtYWlkT3V0cHV0LTE3MTM4NDIzMzYyNTcgLmFycm93aGVhZFBhdGh7ZmlsbDojMzMzMzMzO30jZ2VNZXJtYWlkT3V0cHV0LTE3MTM4NDIzMzYyNTcgLmVkZ2VQYXRoIC5wYXRoe3N0cm9rZTojNjY2O3N0cm9rZS13aWR0aDoyLjBweDt9I2dlTWVybWFpZE91dHB1dC0xNzEzODQyMzM2MjU3IC5mbG93Y2hhcnQtbGlua3tzdHJva2U6IzY2NjtmaWxsOm5vbmU7fSNnZU1lcm1haWRPdXRwdXQtMTcxMzg0MjMzNjI1NyAuZWRnZUxhYmVse2JhY2tncm91bmQtY29sb3I6d2hpdGU7dGV4dC1hbGlnbjpjZW50ZXI7fSNnZU1lcm1haWRPdXRwdXQtMTcxMzg0MjMzNjI1NyAuZWRnZUxhYmVsIHJlY3R7b3BhY2l0eTowLjU7YmFja2dyb3VuZC1jb2xvcjp3aGl0ZTtmaWxsOndoaXRlO30jZ2VNZXJtYWlkT3V0cHV0LTE3MTM4NDIzMzYyNTcgLmNsdXN0ZXIgcmVjdHtmaWxsOmhzbCgwLCAwJSwgOTguOTIxNTY4NjI3NSUpO3N0cm9rZTojNzA3MDcwO3N0cm9rZS13aWR0aDoxcHg7fSNnZU1lcm1haWRPdXRwdXQtMTcxMzg0MjMzNjI1NyAuY2x1c3RlciB0ZXh0e2ZpbGw6IzMzMzt9I2dlTWVybWFpZE91dHB1dC0xNzEzODQyMzM2MjU3IC5jbHVzdGVyIHNwYW57Y29sb3I6IzMzMzt9I2dlTWVybWFpZE91dHB1dC0xNzEzODQyMzM2MjU3IGRpdi5tZXJtYWlkVG9vbHRpcHtwb3NpdGlvbjphYnNvbHV0ZTt0ZXh0LWFsaWduOmNlbnRlcjttYXgtd2lkdGg6MjAwcHg7cGFkZGluZzoycHg7Zm9udC1mYW1pbHk6InRyZWJ1Y2hldCBtcyIsdmVyZGFuYSxhcmlhbCxzYW5zLXNlcmlmO2ZvbnQtc2l6ZToxMnB4O2JhY2tncm91bmQ6aHNsKC0xNjAsIDAlLCA5My4zMzMzMzMzMzMzJSk7Ym9yZGVyOjFweCBzb2xpZCAjNzA3MDcwO2JvcmRlci1yYWRpdXM6MnB4O3BvaW50ZXItZXZlbnRzOm5vbmU7ei1pbmRleDoxMDA7fSNnZU1lcm1haWRPdXRwdXQtMTcxMzg0MjMzNjI1NyA6cm9vdHstLW1lcm1haWQtZm9udC1mYW1pbHk6InRyZWJ1Y2hldCBtcyIsdmVyZGFuYSxhcmlhbCxzYW5zLXNlcmlmO308L3N0eWxlPjxnIHRyYW5zZm9ybT0idHJhbnNsYXRlKDAsIDApIj48ZyBjbGFzcz0ib3V0cHV0Ij48ZyBjbGFzcz0iY2x1c3RlcnMiPjwvZz48ZyBjbGFzcz0iZWRnZVBhdGhzIj48ZyBzdHlsZT0ib3BhY2l0eTogMTsiIGlkPSJMLUEtQiIgY2xhc3M9ImVkZ2VQYXRoIExTLUEgTEUtQiI+PHBhdGggc3R5bGU9ImZpbGw6bm9uZSIgbWFya2VyLWVuZD0idXJsKCNhcnJvd2hlYWQ1MykiIGQ9Ik0zNDAuODY1MjM4MTg5Njk3MjcsNDYuNDAwMDAxNTI1ODc4OTA2TDM0MC44NjUyMzgxODk2OTcyNyw1MC41NjY2NjgxOTI1NDU1N0MzNDAuODY1MjM4MTg5Njk3MjcsNTQuNzMzMzM0ODU5MjEyMjQsMzQwLjg2NTIzODE4OTY5NzI3LDYzLjA2NjY2ODE5MjU0NTU3LDM0MC45NDg1NzE1MjMwMzA2LDcxLjQ4MzMzNTI4ODM2NTY3QzM0MS4wMzE5MDQ4NTYzNjM5NSw3OS45MDAwMDIzODQxODU3OCwzNDEuMTk4NTcxNTIzMDMwNiw4OC40MDAwMDMyNDI0OTI2NCwzNDEuMjgxOTA0ODU2MzYzOSw5Mi42NTAwMDM2NzE2NDYwOEwzNDEuMzY1MjM4MTg5Njk3Miw5Ni45MDAwMDQxMDA3OTk1MiIgY2xhc3M9InBhdGgiPjwvcGF0aD48ZGVmcz48bWFya2VyIG9yaWVudD0iYXV0byIgbWFya2VySGVpZ2h0PSI2IiBtYXJrZXJXaWR0aD0iOCIgbWFya2VyVW5pdHM9InN0cm9rZVdpZHRoIiByZWZZPSI1IiByZWZYPSI5IiB2aWV3Qm94PSIwIDAgMTAgMTAiIGlkPSJhcnJvd2hlYWQ1MyI+PHBhdGggc3R5bGU9InN0cm9rZS13aWR0aDogMTsgc3Ryb2tlLWRhc2hhcnJheTogMSwgMDsiIGNsYXNzPSJhcnJvd2hlYWRQYXRoIiBkPSJNIDAgMCBMIDEwIDUgTCAwIDEwIHoiPjwvcGF0aD48L21hcmtlcj48L2RlZnM+PC9nPjxnIHN0eWxlPSJvcGFjaXR5OiAxOyIgaWQ9IkwtQi1DIiBjbGFzcz0iZWRnZVBhdGggTFMtQiBMRS1DIj48cGF0aCBzdHlsZT0iZmlsbDpub25lIiBtYXJrZXItZW5kPSJ1cmwoI2Fycm93aGVhZDU0KSIgZD0iTTI4My43NDE5Mjc1NDI2Mjc4LDIzNy4yNzY2OTM0NTM3MzAxTDI2Mi4zNDU2MTY4MjkzNDY0LDI1Mi40OTcyNDQ3NjcyOTkxQzI0MC45NDkzMDYxMTYwNjUwMywyNjcuNzE3Nzk2MDgwODY4MSwxOTguMTU2Njg0Njg5NTAyMiwyOTguMTU4ODk4NzA4MDA2MDYsMTc2Ljc2MDM3Mzk3NjIyMDg1LDMxOS4wNzk0NDk5ODk3ODU5QzE1NS4zNjQwNjMyNjI5Mzk0NSwzNDAuMDAwMDAxMjcxNTY1NzQsMTU1LjM2NDA2MzI2MjkzOTQ1LDM1MS40MDAwMDEyMDc5ODc1LDE1NS4zNjQwNjMyNjI5Mzk0NSwzNTcuMTAwMDAxMTc2MTk4M0wxNTUuMzY0MDYzMjYyOTM5NDUsMzYyLjgwMDAwMTE0NDQwOTIiIGNsYXNzPSJwYXRoIj48L3BhdGg+PGRlZnM+PG1hcmtlciBvcmllbnQ9ImF1dG8iIG1hcmtlckhlaWdodD0iNiIgbWFya2VyV2lkdGg9IjgiIG1hcmtlclVuaXRzPSJzdHJva2VXaWR0aCIgcmVmWT0iNSIgcmVmWD0iOSIgdmlld0JveD0iMCAwIDEwIDEwIiBpZD0iYXJyb3doZWFkNTQiPjxwYXRoIHN0eWxlPSJzdHJva2Utd2lkdGg6IDE7IHN0cm9rZS1kYXNoYXJyYXk6IDEsIDA7IiBjbGFzcz0iYXJyb3doZWFkUGF0aCIgZD0iTSAwIDAgTCAxMCA1IEwgMCAxMCB6Ij48L3BhdGg+PC9tYXJrZXI+PC9kZWZzPjwvZz48ZyBzdHlsZT0ib3BhY2l0eTogMTsiIGlkPSJMLUMtRCIgY2xhc3M9ImVkZ2VQYXRoIExTLUMgTEUtRCI+PHBhdGggc3R5bGU9ImZpbGw6bm9uZSIgbWFya2VyLWVuZD0idXJsKCNhcnJvd2hlYWQ1NSkiIGQ9Ik0xMTcuODQwMzA2NzYzNDcxMDksNDAxLjIwMDAwMjY3MDI4ODFMMTA5LjY5NzEzMDc2MzM4MjQ4LDQwNS4zNjY2NjkzMzY5NTQ3N0MxMDEuNTUzOTU0NzYzMjkzODcsNDA5LjUzMzMzNjAwMzYyMTQsODUuMjY3NjAyNzYzMTE2NjcsNDE3Ljg2NjY2OTMzNjk1NDc3LDc3LjEyNDQyNjc2MzAyODA1LDQyNi4yMDAwMDI2NzAyODgxQzY4Ljk4MTI1MDc2MjkzOTQ1LDQzNC41MzMzMzYwMDM2MjE0LDY4Ljk4MTI1MDc2MjkzOTQ1LDQ0Mi44NjY2NjkzMzY5NTQ3Nyw2OC45ODEyNTA3NjI5Mzk0NSw0NDcuMDMzMzM2MDAzNjIxNEw2OC45ODEyNTA3NjI5Mzk0NSw0NTEuMjAwMDAyNjcwMjg4MSIgY2xhc3M9InBhdGgiPjwvcGF0aD48ZGVmcz48bWFya2VyIG9yaWVudD0iYXV0byIgbWFya2VySGVpZ2h0PSI2IiBtYXJrZXJXaWR0aD0iOCIgbWFya2VyVW5pdHM9InN0cm9rZVdpZHRoIiByZWZZPSI1IiByZWZYPSI5IiB2aWV3Qm94PSIwIDAgMTAgMTAiIGlkPSJhcnJvd2hlYWQ1NSI+PHBhdGggc3R5bGU9InN0cm9rZS13aWR0aDogMTsgc3Ryb2tlLWRhc2hhcnJheTogMSwgMDsiIGNsYXNzPSJhcnJvd2hlYWRQYXRoIiBkPSJNIDAgMCBMIDEwIDUgTCAwIDEwIHoiPjwvcGF0aD48L21hcmtlcj48L2RlZnM+PC9nPjxnIHN0eWxlPSJvcGFjaXR5OiAxOyIgaWQ9IkwtQy1FIiBjbGFzcz0iZWRnZVBhdGggTFMtQyBMRS1FIj48cGF0aCBzdHlsZT0iZmlsbDpub25lIiBtYXJrZXItZW5kPSJ1cmwoI2Fycm93aGVhZDU2KSIgZD0iTTE5Mi44ODc4MTk3NjI0MDc4Miw0MDEuMjAwMDAyNjcwMjg4MUwyMDEuMDMwOTk1NzYyNDk2NDIsNDA1LjM2NjY2OTMzNjk1NDc3QzIwOS4xNzQxNzE3NjI1ODUwNSw0MDkuNTMzMzM2MDAzNjIxNCwyMjUuNDYwNTIzNzYyNzYyMjUsNDE3Ljg2NjY2OTMzNjk1NDc3LDIzMy42MDM2OTk3NjI4NTA4NSw0MjYuMjAwMDAyNjcwMjg4MUMyNDEuNzQ2ODc1NzYyOTM5NDUsNDM0LjUzMzMzNjAwMzYyMTQsMjQxLjc0Njg3NTc2MjkzOTQ1LDQ0Mi44NjY2NjkzMzY5NTQ3NywyNDEuNzQ2ODc1NzYyOTM5NDUsNDQ3LjAzMzMzNjAwMzYyMTRMMjQxLjc0Njg3NTc2MjkzOTQ1LDQ1MS4yMDAwMDI2NzAyODgxIiBjbGFzcz0icGF0aCI+PC9wYXRoPjxkZWZzPjxtYXJrZXIgb3JpZW50PSJhdXRvIiBtYXJrZXJIZWlnaHQ9IjYiIG1hcmtlcldpZHRoPSI4IiBtYXJrZXJVbml0cz0ic3Ryb2tlV2lkdGgiIHJlZlk9IjUiIHJlZlg9IjkiIHZpZXdCb3g9IjAgMCAxMCAxMCIgaWQ9ImFycm93aGVhZDU2Ij48cGF0aCBzdHlsZT0ic3Ryb2tlLXdpZHRoOiAxOyBzdHJva2UtZGFzaGFycmF5OiAxLCAwOyIgY2xhc3M9ImFycm93aGVhZFBhdGgiIGQ9Ik0gMCAwIEwgMTAgNSBMIDAgMTAgeiI+PC9wYXRoPjwvbWFya2VyPjwvZGVmcz48L2c+PGcgc3R5bGU9Im9wYWNpdHk6IDE7IiBpZD0iTC1FLUYiIGNsYXNzPSJlZGdlUGF0aCBMUy1FIExFLUYiPjxwYXRoIHN0eWxlPSJmaWxsOm5vbmUiIG1hcmtlci1lbmQ9InVybCgjYXJyb3doZWFkNTcpIiBkPSJNMjQxLjc0Njg3NTc2MjkzOTQ1LDQ4OS42MDAwMDQxOTYxNjdMMjQxLjc0Njg3NTc2MjkzOTQ1LDQ5My43NjY2NzA4NjI4MzM3QzI0MS43NDY4NzU3NjI5Mzk0NSw0OTcuOTMzMzM3NTI5NTAwMywyNDEuNzQ2ODc1NzYyOTM5NDUsNTA2LjI2NjY3MDg2MjgzMzcsMjQxLjc0Njg3NTc2MjkzOTQ1LDUxNC42MDAwMDQxOTYxNjdDMjQxLjc0Njg3NTc2MjkzOTQ1LDUyMi45MzMzMzc1Mjk1MDA0LDI0MS43NDY4NzU3NjI5Mzk0NSw1MzEuMjY2NjcwODYyODMzNiwyNDEuNzQ2ODc1NzYyOTM5NDUsNTM1LjQzMzMzNzUyOTUwMDRMMjQxLjc0Njg3NTc2MjkzOTQ1LDUzOS42MDAwMDQxOTYxNjciIGNsYXNzPSJwYXRoIj48L3BhdGg+PGRlZnM+PG1hcmtlciBvcmllbnQ9ImF1dG8iIG1hcmtlckhlaWdodD0iNiIgbWFya2VyV2lkdGg9IjgiIG1hcmtlclVuaXRzPSJzdHJva2VXaWR0aCIgcmVmWT0iNSIgcmVmWD0iOSIgdmlld0JveD0iMCAwIDEwIDEwIiBpZD0iYXJyb3doZWFkNTciPjxwYXRoIHN0eWxlPSJzdHJva2Utd2lkdGg6IDE7IHN0cm9rZS1kYXNoYXJyYXk6IDEsIDA7IiBjbGFzcz0iYXJyb3doZWFkUGF0aCIgZD0iTSAwIDAgTCAxMCA1IEwgMCAxMCB6Ij48L3BhdGg+PC9tYXJrZXI+PC9kZWZzPjwvZz48ZyBzdHlsZT0ib3BhY2l0eTogMTsiIGlkPSJMLUYtRyIgY2xhc3M9ImVkZ2VQYXRoIExTLUYgTEUtRyI+PHBhdGggc3R5bGU9ImZpbGw6bm9uZSIgbWFya2VyLWVuZD0idXJsKCNhcnJvd2hlYWQ1OCkiIGQ9Ik0yNDEuNzQ2ODc1NzYyOTM5NDUsNTc4LjAwMDAwNTcyMjA0NTlMMjQxLjc0Njg3NTc2MjkzOTQ1LDU4Mi4xNjY2NzIzODg3MTI1QzI0MS43NDY4NzU3NjI5Mzk0NSw1ODYuMzMzMzM5MDU1Mzc5MywyNDEuNzQ2ODc1NzYyOTM5NDUsNTk0LjY2NjY3MjM4ODcxMjUsMjQxLjc0Njg3NTc2MjkzOTQ1LDYwMy4wMDAwMDU3MjIwNDU5QzI0MS43NDY4NzU3NjI5Mzk0NSw2MTEuMzMzMzM5MDU1Mzc5MywyNDEuNzQ2ODc1NzYyOTM5NDUsNjE5LjY2NjY3MjM4ODcxMjUsMjQxLjc0Njg3NTc2MjkzOTQ1LDYyMy44MzMzMzkwNTUzNzkzTDI0MS43NDY4NzU3NjI5Mzk0NSw2MjguMDAwMDA1NzIyMDQ1OSIgY2xhc3M9InBhdGgiPjwvcGF0aD48ZGVmcz48bWFya2VyIG9yaWVudD0iYXV0byIgbWFya2VySGVpZ2h0PSI2IiBtYXJrZXJXaWR0aD0iOCIgbWFya2VyVW5pdHM9InN0cm9rZVdpZHRoIiByZWZZPSI1IiByZWZYPSI5IiB2aWV3Qm94PSIwIDAgMTAgMTAiIGlkPSJhcnJvd2hlYWQ1OCI+PHBhdGggc3R5bGU9InN0cm9rZS13aWR0aDogMTsgc3Ryb2tlLWRhc2hhcnJheTogMSwgMDsiIGNsYXNzPSJhcnJvd2hlYWRQYXRoIiBkPSJNIDAgMCBMIDEwIDUgTCAwIDEwIHoiPjwvcGF0aD48L21hcmtlcj48L2RlZnM+PC9nPjxnIHN0eWxlPSJvcGFjaXR5OiAxOyIgaWQ9IkwtRy1IIiBjbGFzcz0iZWRnZVBhdGggTFMtRyBMRS1IIj48cGF0aCBzdHlsZT0iZmlsbDpub25lIiBtYXJrZXItZW5kPSJ1cmwoI2Fycm93aGVhZDU5KSIgZD0iTTI0MS43NDY4NzU3NjI5Mzk0NSw2NjYuNDAwMDA3MjQ3OTI0OEwyNDEuNzQ2ODc1NzYyOTM5NDUsNjcwLjU2NjY3MzkxNDU5MTRDMjQxLjc0Njg3NTc2MjkzOTQ1LDY3NC43MzMzNDA1ODEyNTgyLDI0MS43NDY4NzU3NjI5Mzk0NSw2ODMuMDY2NjczOTE0NTkxNCwyNDEuNzQ2ODc1NzYyOTM5NDUsNjkxLjQwMDAwNzI0NzkyNDhDMjQxLjc0Njg3NTc2MjkzOTQ1LDY5OS43MzMzNDA1ODEyNTgyLDI0MS43NDY4NzU3NjI5Mzk0NSw3MDguMDY2NjczOTE0NTkxNCwyNDEuNzQ2ODc1NzYyOTM5NDUsNzEyLjIzMzM0MDU4MTI1ODJMMjQxLjc0Njg3NTc2MjkzOTQ1LDcxNi40MDAwMDcyNDc5MjQ4IiBjbGFzcz0icGF0aCI+PC9wYXRoPjxkZWZzPjxtYXJrZXIgb3JpZW50PSJhdXRvIiBtYXJrZXJIZWlnaHQ9IjYiIG1hcmtlcldpZHRoPSI4IiBtYXJrZXJVbml0cz0ic3Ryb2tlV2lkdGgiIHJlZlk9IjUiIHJlZlg9IjkiIHZpZXdCb3g9IjAgMCAxMCAxMCIgaWQ9ImFycm93aGVhZDU5Ij48cGF0aCBzdHlsZT0ic3Ryb2tlLXdpZHRoOiAxOyBzdHJva2UtZGFzaGFycmF5OiAxLCAwOyIgY2xhc3M9ImFycm93aGVhZFBhdGgiIGQ9Ik0gMCAwIEwgMTAgNSBMIDAgMTAgeiI+PC9wYXRoPjwvbWFya2VyPjwvZGVmcz48L2c+PGcgc3R5bGU9Im9wYWNpdHk6IDE7IiBpZD0iTC1ILUkiIGNsYXNzPSJlZGdlUGF0aCBMUy1IIExFLUkiPjxwYXRoIHN0eWxlPSJmaWxsOm5vbmUiIG1hcmtlci1lbmQ9InVybCgjYXJyb3doZWFkNjApIiBkPSJNMjQxLjc0Njg3NTc2MjkzOTQ1LDc1NC44MDAwMDg3NzM4MDM3TDI0MS43NDY4NzU3NjI5Mzk0NSw3NTguOTY2Njc1NDQwNDcwM0MyNDEuNzQ2ODc1NzYyOTM5NDUsNzYzLjEzMzM0MjEwNzEzNzEsMjQxLjc0Njg3NTc2MjkzOTQ1LDc3MS40NjY2NzU0NDA0NzAzLDI1MS44MDUzMjIxMTY3NDYzLDc3OS44MDAwMDg3NzM4MDM3QzI2MS44NjM3Njg0NzA1NTMxLDc4OC4xMzMzNDIxMDcxMzcxLDI4MS45ODA2NjExNzgxNjY4LDc5Ni40NjY2NzU0NDA0NzAzLDI5Mi4wMzkxMDc1MzE5NzM3LDgwMC42MzMzNDIxMDcxMzcxTDMwMi4wOTc1NTM4ODU3ODA1LDgwNC44MDAwMDg3NzM4MDM3IiBjbGFzcz0icGF0aCI+PC9wYXRoPjxkZWZzPjxtYXJrZXIgb3JpZW50PSJhdXRvIiBtYXJrZXJIZWlnaHQ9IjYiIG1hcmtlcldpZHRoPSI4IiBtYXJrZXJVbml0cz0ic3Ryb2tlV2lkdGgiIHJlZlk9IjUiIHJlZlg9IjkiIHZpZXdCb3g9IjAgMCAxMCAxMCIgaWQ9ImFycm93aGVhZDYwIj48cGF0aCBzdHlsZT0ic3Ryb2tlLXdpZHRoOiAxOyBzdHJva2UtZGFzaGFycmF5OiAxLCAwOyIgY2xhc3M9ImFycm93aGVhZFBhdGgiIGQ9Ik0gMCAwIEwgMTAgNSBMIDAgMTAgeiI+PC9wYXRoPjwvbWFya2VyPjwvZGVmcz48L2c+PGcgc3R5bGU9Im9wYWNpdHk6IDE7IiBpZD0iTC1JLUIiIGNsYXNzPSJlZGdlUGF0aCBMUy1JIExFLUIiPjxwYXRoIHN0eWxlPSJmaWxsOm5vbmUiIG1hcmtlci1lbmQ9InVybCgjYXJyb3doZWFkNjEpIiBkPSJNMzcxLjk5ODc0NDIzMzg3Nzg2LDgwNC44MDAwMDg3NzM4MDM3TDM3Ny4xMDk4MjY0MzI2OTEyNSw4MDAuNjMzMzQyMTA3MTM3MUMzODIuMjIwOTA4NjMxNTA0NSw3OTYuNDY2Njc1NDQwNDcwMywzOTIuNDQzMDczMDI5MTMxMiw3ODguMTMzMzQyMTA3MTM3MSwzOTcuNTU0MTU1MjI3OTQ0NSw3NzYuNjAwMDA4NjQ2NjQ3MUM0MDIuNjY1MjM3NDI2NzU3OCw3NjUuMDY2Njc1MTg2MTU3Miw0MDIuNjY1MjM3NDI2NzU3OCw3NTAuMzMzMzQxNTk4NTEwNyw0MDIuNjY1MjM3NDI2NzU3OCw3MzUuNjAwMDA4MDEwODY0M0M0MDIuNjY1MjM3NDI2NzU3OCw3MjAuODY2Njc0NDIzMjE3OCw0MDIuNjY1MjM3NDI2NzU3OCw3MDYuMTMzMzQwODM1NTcxMyw0MDIuNjY1MjM3NDI2NzU3OCw2OTEuNDAwMDA3MjQ3OTI0OEM0MDIuNjY1MjM3NDI2NzU3OCw2NzYuNjY2NjczNjYwMjc4Myw0MDIuNjY1MjM3NDI2NzU3OCw2NjEuOTMzMzQwMDcyNjMxOCw0MDIuNjY1MjM3NDI2NzU3OCw2NDcuMjAwMDA2NDg0OTg1NEM0MDIuNjY1MjM3NDI2NzU3OCw2MzIuNDY2NjcyODk3MzM4OSw0MDIuNjY1MjM3NDI2NzU3OCw2MTcuNzMzMzM5MzA5NjkyNCw0MDIuNjY1MjM3NDI2NzU3OCw2MDMuMDAwMDA1NzIyMDQ1OUM0MDIuNjY1MjM3NDI2NzU3OCw1ODguMjY2NjcyMTM0Mzk5NCw0MDIuNjY1MjM3NDI2NzU3OCw1NzMuNTMzMzM4NTQ2NzUyOSw0MDIuNjY1MjM3NDI2NzU3OCw1NTguODAwMDA0OTU5MTA2NEM0MDIuNjY1MjM3NDI2NzU3OCw1NDQuMDY2NjcxMzcxNDYsNDAyLjY2NTIzNzQyNjc1NzgsNTI5LjMzMzMzNzc4MzgxMzUsNDAyLjY2NTIzNzQyNjc1NzgsNTE0LjYwMDAwNDE5NjE2N0M0MDIuNjY1MjM3NDI2NzU3OCw0OTkuODY2NjcwNjA4NTIwNSw0MDIuNjY1MjM3NDI2NzU3OCw0ODUuMTMzMzM3MDIwODc0LDQwMi42NjUyMzc0MjY3NTc4LDQ3MC40MDAwMDM0MzMyMjc1NEM0MDIuNjY1MjM3NDI2NzU3OCw0NTUuNjY2NjY5ODQ1NTgxMDUsNDAyLjY2NTIzNzQyNjc1NzgsNDQwLjkzMzMzNjI1NzkzNDU3LDQwMi42NjUyMzc0MjY3NTc4LDQyNi4yMDAwMDI2NzAyODgxQzQwMi42NjUyMzc0MjY3NTc4LDQxMS40NjY2NjkwODI2NDE2LDQwMi42NjUyMzc0MjY3NTc4LDM5Ni43MzMzMzU0OTQ5OTUxLDQwMi42NjUyMzc0MjY3NTc4LDM4MC40NjY2Njg2MDU4MDQ0NEM0MDIuNjY1MjM3NDI2NzU3OCwzNjQuMjAwMDAxNzE2NjEzNzcsNDAyLjY2NTIzNzQyNjc1NzgsMzQ2LjQwMDAwMTUyNTg3ODksMzk3LjY3NzgwMjAyNTUyMjIsMzI2LjY1NDEwNDk0NDgxOThDMzkyLjY5MDM2NjYyNDI4NjcsMzA2LjkwODIwODM2Mzc2MDY1LDM4Mi43MTU0OTU4MjE4MTU1LDI4NS4yMTY0MTUzOTIzNzcyLDM3Ny43MjgwNjA0MjA1Nzk5LDI3NC4zNzA1MTg5MDY2ODU1TDM3Mi43NDA2MjUwMTkzNDQzNSwyNjMuNTI0NjIyNDIwOTkzOCIgY2xhc3M9InBhdGgiPjwvcGF0aD48ZGVmcz48bWFya2VyIG9yaWVudD0iYXV0byIgbWFya2VySGVpZ2h0PSI2IiBtYXJrZXJXaWR0aD0iOCIgbWFya2VyVW5pdHM9InN0cm9rZVdpZHRoIiByZWZZPSI1IiByZWZYPSI5IiB2aWV3Qm94PSIwIDAgMTAgMTAiIGlkPSJhcnJvd2hlYWQ2MSI+PHBhdGggc3R5bGU9InN0cm9rZS13aWR0aDogMTsgc3Ryb2tlLWRhc2hhcnJheTogMSwgMDsiIGNsYXNzPSJhcnJvd2hlYWRQYXRoIiBkPSJNIDAgMCBMIDEwIDUgTCAwIDEwIHoiPjwvcGF0aD48L21hcmtlcj48L2RlZnM+PC9nPjxnIHN0eWxlPSJvcGFjaXR5OiAxOyIgaWQ9IkwtQi1KIiBjbGFzcz0iZWRnZVBhdGggTFMtQiBMRS1KIj48cGF0aCBzdHlsZT0iZmlsbDpub25lIiBtYXJrZXItZW5kPSJ1cmwoI2Fycm93aGVhZDYyKSIgZD0iTTM0MS4zNjUyMzgxODk2OTczLDI5NC45MDAwMDQxMDA3OTk2TDM0MS4yODE5MDQ4NTYzNjM5NSwzMDAuNTE2NjcwMzA2NTIzN0MzNDEuMTk4NTcxNTIzMDMwNjQsMzA2LjEzMzMzNjUxMjI0Nzc1LDM0MS4wMzE5MDQ4NTYzNjM5NSwzMTcuMzY2NjY4OTIzNjk1OSwzNDAuOTQ4NTcxNTIzMDMwNiwzMjguNjgzMzM1MDk3NjMwODVDMzQwLjg2NTIzODE4OTY5NzI3LDM0MC4wMDAwMDEyNzE1NjU3NCwzNDAuODY1MjM4MTg5Njk3MjcsMzUxLjQwMDAwMTIwNzk4NzUsMzQwLjg2NTIzODE4OTY5NzI3LDM1Ny4xMDAwMDExNzYxOTgzTDM0MC44NjUyMzgxODk2OTcyNywzNjIuODAwMDAxMTQ0NDA5MiIgY2xhc3M9InBhdGgiPjwvcGF0aD48ZGVmcz48bWFya2VyIG9yaWVudD0iYXV0byIgbWFya2VySGVpZ2h0PSI2IiBtYXJrZXJXaWR0aD0iOCIgbWFya2VyVW5pdHM9InN0cm9rZVdpZHRoIiByZWZZPSI1IiByZWZYPSI5IiB2aWV3Qm94PSIwIDAgMTAgMTAiIGlkPSJhcnJvd2hlYWQ2MiI+PHBhdGggc3R5bGU9InN0cm9rZS13aWR0aDogMTsgc3Ryb2tlLWRhc2hhcnJheTogMSwgMDsiIGNsYXNzPSJhcnJvd2hlYWRQYXRoIiBkPSJNIDAgMCBMIDEwIDUgTCAwIDEwIHoiPjwvcGF0aD48L21hcmtlcj48L2RlZnM+PC9nPjwvZz48ZyBjbGFzcz0iZWRnZUxhYmVscyI+PGcgc3R5bGU9Im9wYWNpdHk6IDE7IiB0cmFuc2Zvcm09IiIgY2xhc3M9ImVkZ2VMYWJlbCI+PGcgY2xhc3M9ImxhYmVsIiB0cmFuc2Zvcm09InRyYW5zbGF0ZSgwLDApIj48cmVjdCBoZWlnaHQ9IjAiIHdpZHRoPSIwIiByeT0iMCIgcng9IjAiPjwvcmVjdD48dGV4dD48dHNwYW4geD0iMSIgZHk9IjFlbSIgeG1sOnNwYWNlPSJwcmVzZXJ2ZSI+PC90c3Bhbj48L3RleHQ+PC9nPjwvZz48ZyBzdHlsZT0ib3BhY2l0eTogMTsiIHRyYW5zZm9ybT0idHJhbnNsYXRlKDE1NS4zNjQwNjMyNjI5Mzk0NSwzMjguNjAwMDAxMzM1MTQ0MDQpIiBjbGFzcz0iZWRnZUxhYmVsIj48ZyBjbGFzcz0ibGFiZWwiIHRyYW5zZm9ybT0idHJhbnNsYXRlKC04LjgwMDAwMDE5MDczNDg2MywtOS4xOTk5OTk4MDkyNjUxMzcpIj48cmVjdCBoZWlnaHQ9IjE4LjM5OTk5OTYxODUzMDI3MyIgd2lkdGg9IjE3LjYwMDAwMDM4MTQ2OTcyNyIgcnk9IjAiIHJ4PSIwIj48L3JlY3Q+PHRleHQ+PHRzcGFuIHg9IjEiIGR5PSIxZW0iIHhtbDpzcGFjZT0icHJlc2VydmUiPuaYrzwvdHNwYW4+PC90ZXh0PjwvZz48L2c+PGcgc3R5bGU9Im9wYWNpdHk6IDE7IiB0cmFuc2Zvcm09IiIgY2xhc3M9ImVkZ2VMYWJlbCI+PGcgY2xhc3M9ImxhYmVsIiB0cmFuc2Zvcm09InRyYW5zbGF0ZSgwLDApIj48cmVjdCBoZWlnaHQ9IjAiIHdpZHRoPSIwIiByeT0iMCIgcng9IjAiPjwvcmVjdD48dGV4dD48dHNwYW4geD0iMSIgZHk9IjFlbSIgeG1sOnNwYWNlPSJwcmVzZXJ2ZSI+PC90c3Bhbj48L3RleHQ+PC9nPjwvZz48ZyBzdHlsZT0ib3BhY2l0eTogMTsiIHRyYW5zZm9ybT0iIiBjbGFzcz0iZWRnZUxhYmVsIj48ZyBjbGFzcz0ibGFiZWwiIHRyYW5zZm9ybT0idHJhbnNsYXRlKDAsMCkiPjxyZWN0IGhlaWdodD0iMCIgd2lkdGg9IjAiIHJ5PSIwIiByeD0iMCI+PC9yZWN0Pjx0ZXh0Pjx0c3BhbiB4PSIxIiBkeT0iMWVtIiB4bWw6c3BhY2U9InByZXNlcnZlIj48L3RzcGFuPjwvdGV4dD48L2c+PC9nPjxnIHN0eWxlPSJvcGFjaXR5OiAxOyIgdHJhbnNmb3JtPSIiIGNsYXNzPSJlZGdlTGFiZWwiPjxnIGNsYXNzPSJsYWJlbCIgdHJhbnNmb3JtPSJ0cmFuc2xhdGUoMCwwKSI+PHJlY3QgaGVpZ2h0PSIwIiB3aWR0aD0iMCIgcnk9IjAiIHJ4PSIwIj48L3JlY3Q+PHRleHQ+PHRzcGFuIHg9IjEiIGR5PSIxZW0iIHhtbDpzcGFjZT0icHJlc2VydmUiPjwvdHNwYW4+PC90ZXh0PjwvZz48L2c+PGcgc3R5bGU9Im9wYWNpdHk6IDE7IiB0cmFuc2Zvcm09IiIgY2xhc3M9ImVkZ2VMYWJlbCI+PGcgY2xhc3M9ImxhYmVsIiB0cmFuc2Zvcm09InRyYW5zbGF0ZSgwLDApIj48cmVjdCBoZWlnaHQ9IjAiIHdpZHRoPSIwIiByeT0iMCIgcng9IjAiPjwvcmVjdD48dGV4dD48dHNwYW4geD0iMSIgZHk9IjFlbSIgeG1sOnNwYWNlPSJwcmVzZXJ2ZSI+PC90c3Bhbj48L3RleHQ+PC9nPjwvZz48ZyBzdHlsZT0ib3BhY2l0eTogMTsiIHRyYW5zZm9ybT0iIiBjbGFzcz0iZWRnZUxhYmVsIj48ZyBjbGFzcz0ibGFiZWwiIHRyYW5zZm9ybT0idHJhbnNsYXRlKDAsMCkiPjxyZWN0IGhlaWdodD0iMCIgd2lkdGg9IjAiIHJ5PSIwIiByeD0iMCI+PC9yZWN0Pjx0ZXh0Pjx0c3BhbiB4PSIxIiBkeT0iMWVtIiB4bWw6c3BhY2U9InByZXNlcnZlIj48L3RzcGFuPjwvdGV4dD48L2c+PC9nPjxnIHN0eWxlPSJvcGFjaXR5OiAxOyIgdHJhbnNmb3JtPSIiIGNsYXNzPSJlZGdlTGFiZWwiPjxnIGNsYXNzPSJsYWJlbCIgdHJhbnNmb3JtPSJ0cmFuc2xhdGUoMCwwKSI+PHJlY3QgaGVpZ2h0PSIwIiB3aWR0aD0iMCIgcnk9IjAiIHJ4PSIwIj48L3JlY3Q+PHRleHQ+PHRzcGFuIHg9IjEiIGR5PSIxZW0iIHhtbDpzcGFjZT0icHJlc2VydmUiPjwvdHNwYW4+PC90ZXh0PjwvZz48L2c+PGcgc3R5bGU9Im9wYWNpdHk6IDE7IiB0cmFuc2Zvcm09IiIgY2xhc3M9ImVkZ2VMYWJlbCI+PGcgY2xhc3M9ImxhYmVsIiB0cmFuc2Zvcm09InRyYW5zbGF0ZSgwLDApIj48cmVjdCBoZWlnaHQ9IjAiIHdpZHRoPSIwIiByeT0iMCIgcng9IjAiPjwvcmVjdD48dGV4dD48dHNwYW4geD0iMSIgZHk9IjFlbSIgeG1sOnNwYWNlPSJwcmVzZXJ2ZSI+PC90c3Bhbj48L3RleHQ+PC9nPjwvZz48ZyBzdHlsZT0ib3BhY2l0eTogMTsiIHRyYW5zZm9ybT0idHJhbnNsYXRlKDM0MC44NjUyMzgxODk2OTcyNywzMjguNjAwMDAxMzM1MTQ0MDQpIiBjbGFzcz0iZWRnZUxhYmVsIj48ZyBjbGFzcz0ibGFiZWwiIHRyYW5zZm9ybT0idHJhbnNsYXRlKC04LC05LjE5OTk5OTgwOTI2NTEzNykiPjxyZWN0IGhlaWdodD0iMTguMzk5OTk5NjE4NTMwMjczIiB3aWR0aD0iMTYiIHJ5PSIwIiByeD0iMCI+PC9yZWN0Pjx0ZXh0Pjx0c3BhbiB4PSIxIiBkeT0iMWVtIiB4bWw6c3BhY2U9InByZXNlcnZlIj7lkKY8L3RzcGFuPjwvdGV4dD48L2c+PC9nPjwvZz48ZyBjbGFzcz0ibm9kZXMiPjxnIHN0eWxlPSJvcGFjaXR5OiAxOyIgdHJhbnNmb3JtPSJ0cmFuc2xhdGUoMzQwLjg2NTIzODE4OTY5NzI3LDI3LjIwMDAwMDc2MjkzOTQ1MykiIGlkPSJmbG93Y2hhcnQtQS0yMCIgY2xhc3M9Im5vZGUgZGVmYXVsdCI+PHJlY3QgY2xhc3M9ImxhYmVsLWNvbnRhaW5lciIgaGVpZ2h0PSIzOC4zOTk5OTk2MTg1MzAyNyIgd2lkdGg9IjUyLjc5OTk5OTIzNzA2MDU1IiB5PSItMTkuMTk5OTk5ODA5MjY1MTM3IiB4PSItMjYuMzk5OTk5NjE4NTMwMjczIiByeT0iMCIgcng9IjAiPjwvcmVjdD48ZyB0cmFuc2Zvcm09InRyYW5zbGF0ZSgwLDApIiBjbGFzcz0ibGFiZWwiPjxnIHRyYW5zZm9ybT0idHJhbnNsYXRlKC0xNi4zOTk5OTk2MTg1MzAyNzMsLTkuMTk5OTk5ODA5MjY1MTM3KSI+PHRleHQgc3R5bGU9IiI+PHRzcGFuIHg9IjEiIGR5PSIxZW0iIHhtbDpzcGFjZT0icHJlc2VydmUiPuW8gOWnizwvdHNwYW4+PC90ZXh0PjwvZz48L2c+PC9nPjxnIHN0eWxlPSJvcGFjaXR5OiAxOyIgdHJhbnNmb3JtPSJ0cmFuc2xhdGUoMzQwLjg2NTIzODE4OTY5NzI3LDE5NS40MDAwMDE1MjU4Nzg5KSIgaWQ9ImZsb3djaGFydC1CLTIxIiBjbGFzcz0ibm9kZSBkZWZhdWx0Ij48cG9seWdvbiBjbGFzcz0ibGFiZWwtY29udGFpbmVyIiB0cmFuc2Zvcm09InRyYW5zbGF0ZSgtOTkuMDAwMDAyNTc0OTIwNjYsOTkuMDAwMDAyNTc0OTIwNjYpIiBwb2ludHM9Ijk5LjAwMDAwMjU3NDkyMDY2LDAgMTk4LjAwMDAwNTE0OTg0MTMxLC05OS4wMDAwMDI1NzQ5MjA2NiA5OS4wMDAwMDI1NzQ5MjA2NiwtMTk4LjAwMDAwNTE0OTg0MTMxIDAsLTk5LjAwMDAwMjU3NDkyMDY2Ij48L3BvbHlnb24+PGcgdHJhbnNmb3JtPSJ0cmFuc2xhdGUoMCwwKSIgY2xhc3M9ImxhYmVsIj48ZyB0cmFuc2Zvcm09InRyYW5zbGF0ZSgtODAuODAwMDAzMDUxNzU3ODEsLTkuMTk5OTk5ODA5MjY1MTM3KSI+PHRleHQgc3R5bGU9IiI+PHRzcGFuIHg9IjEiIGR5PSIxZW0iIHhtbDpzcGFjZT0icHJlc2VydmUiPuaYr+WQpuacieiCoeelqOWQjeensOacquWkhOeQhjwvdHNwYW4+PC90ZXh0PjwvZz48L2c+PC9nPjxnIHN0eWxlPSJvcGFjaXR5OiAxOyIgdHJhbnNmb3JtPSJ0cmFuc2xhdGUoMTU1LjM2NDA2MzI2MjkzOTQ1LDM4Mi4wMDAwMDE5MDczNDg2MykiIGlkPSJmbG93Y2hhcnQtQy0yMyIgY2xhc3M9Im5vZGUgZGVmYXVsdCI+PHJlY3QgY2xhc3M9ImxhYmVsLWNvbnRhaW5lciIgaGVpZ2h0PSIzOC4zOTk5OTk2MTg1MzAyNyIgd2lkdGg9IjE0OS42MDAwMDYxMDM1MTU2MiIgeT0iLTE5LjE5OTk5OTgwOTI2NTEzNyIgeD0iLTc0LjgwMDAwMzA1MTc1NzgxIiByeT0iMCIgcng9IjAiPjwvcmVjdD48ZyB0cmFuc2Zvcm09InRyYW5zbGF0ZSgwLDApIiBjbGFzcz0ibGFiZWwiPjxnIHRyYW5zZm9ybT0idHJhbnNsYXRlKC02NC44MDAwMDMwNTE3NTc4MSwtOS4xOTk5OTk4MDkyNjUxMzcpIj48dGV4dCBzdHlsZT0iIj48dHNwYW4geD0iMSIgZHk9IjFlbSIgeG1sOnNwYWNlPSJwcmVzZXJ2ZSI+6I635Y+W6IKh56Wo5Y6G5Y+y5pWw5o2uPC90c3Bhbj48L3RleHQ+PC9nPjwvZz48L2c+PGcgc3R5bGU9Im9wYWNpdHk6IDE7IiB0cmFuc2Zvcm09InRyYW5zbGF0ZSg2OC45ODEyNTA3NjI5Mzk0NSw0NzAuNDAwMDAzNDMzMjI3NTQpIiBpZD0iZmxvd2NoYXJ0LUQtMjUiIGNsYXNzPSJub2RlIGRlZmF1bHQiPjxyZWN0IGNsYXNzPSJsYWJlbC1jb250YWluZXIiIGhlaWdodD0iMzguMzk5OTk5NjE4NTMwMjciIHdpZHRoPSIxMjEuOTYyNTAxNTI1ODc4OSIgeT0iLTE5LjE5OTk5OTgwOTI2NTEzNyIgeD0iLTYwLjk4MTI1MDc2MjkzOTQ1IiByeT0iMCIgcng9IjAiPjwvcmVjdD48ZyB0cmFuc2Zvcm09InRyYW5zbGF0ZSgwLDApIiBjbGFzcz0ibGFiZWwiPjxnIHRyYW5zZm9ybT0idHJhbnNsYXRlKC01MC45ODEyNTA3NjI5Mzk0NSwtOS4xOTk5OTk4MDkyNjUxMzcpIj48dGV4dCBzdHlsZT0iIj48dHNwYW4geD0iMSIgZHk9IjFlbSIgeG1sOnNwYWNlPSJwcmVzZXJ2ZSI+5a6a5LmJRXhjZWzooajlpLQ8L3RzcGFuPjwvdGV4dD48L2c+PC9nPjwvZz48ZyBzdHlsZT0ib3BhY2l0eTogMTsiIHRyYW5zZm9ybT0idHJhbnNsYXRlKDI0MS43NDY4NzU3NjI5Mzk0NSw0NzAuNDAwMDAzNDMzMjI3NTQpIiBpZD0iZmxvd2NoYXJ0LUUtMjciIGNsYXNzPSJub2RlIGRlZmF1bHQiPjxyZWN0IGNsYXNzPSJsYWJlbC1jb250YWluZXIiIGhlaWdodD0iMzguMzk5OTk5NjE4NTMwMjciIHdpZHRoPSIxMjMuNTY4NzQ4NDc0MTIxMSIgeT0iLTE5LjE5OTk5OTgwOTI2NTEzNyIgeD0iLTYxLjc4NDM3NDIzNzA2MDU1IiByeT0iMCIgcng9IjAiPjwvcmVjdD48ZyB0cmFuc2Zvcm09InRyYW5zbGF0ZSgwLDApIiBjbGFzcz0ibGFiZWwiPjxnIHRyYW5zZm9ybT0idHJhbnNsYXRlKC01MS43ODQzNzQyMzcwNjA1NSwtOS4xOTk5OTk4MDkyNjUxMzcpIj48dGV4dCBzdHlsZT0iIj48dHNwYW4geD0iMSIgZHk9IjFlbSIgeG1sOnNwYWNlPSJwcmVzZXJ2ZSI+5Y+R6YCBSFRUUOivt+axgjwvdHNwYW4+PC90ZXh0PjwvZz48L2c+PC9nPjxnIHN0eWxlPSJvcGFjaXR5OiAxOyIgdHJhbnNmb3JtPSJ0cmFuc2xhdGUoMjQxLjc0Njg3NTc2MjkzOTQ1LDU1OC44MDAwMDQ5NTkxMDY0KSIgaWQ9ImZsb3djaGFydC1GLTI5IiBjbGFzcz0ibm9kZSBkZWZhdWx0Ij48cmVjdCBjbGFzcz0ibGFiZWwtY29udGFpbmVyIiBoZWlnaHQ9IjM4LjM5OTk5OTYxODUzMDI3IiB3aWR0aD0iMTM3LjExMjUwMzA1MTc1NzgiIHk9Ii0xOS4xOTk5OTk4MDkyNjUxMzciIHg9Ii02OC41NTYyNTE1MjU4Nzg5IiByeT0iMCIgcng9IjAiPjwvcmVjdD48ZyB0cmFuc2Zvcm09InRyYW5zbGF0ZSgwLDApIiBjbGFzcz0ibGFiZWwiPjxnIHRyYW5zZm9ybT0idHJhbnNsYXRlKC01OC41NTYyNTE1MjU4Nzg5MDYsLTkuMTk5OTk5ODA5MjY1MTM3KSI+PHRleHQgc3R5bGU9IiI+PHRzcGFuIHg9IjEiIGR5PSIxZW0iIHhtbDpzcGFjZT0icHJlc2VydmUiPui9rOaNouS4ukpTT07moLzlvI88L3RzcGFuPjwvdGV4dD48L2c+PC9nPjwvZz48ZyBzdHlsZT0ib3BhY2l0eTogMTsiIHRyYW5zZm9ybT0idHJhbnNsYXRlKDI0MS43NDY4NzU3NjI5Mzk0NSw2NDcuMjAwMDA2NDg0OTg1NCkiIGlkPSJmbG93Y2hhcnQtRy0zMSIgY2xhc3M9Im5vZGUgZGVmYXVsdCI+PHJlY3QgY2xhc3M9ImxhYmVsLWNvbnRhaW5lciIgaGVpZ2h0PSIzOC4zOTk5OTk2MTg1MzAyNyIgd2lkdGg9IjE0Ni44NzM0MzU5NzQxMjExIiB5PSItMTkuMTk5OTk5ODA5MjY1MTM3IiB4PSItNzMuNDM2NzE3OTg3MDYwNTUiIHJ5PSIwIiByeD0iMCI+PC9yZWN0PjxnIHRyYW5zZm9ybT0idHJhbnNsYXRlKDAsMCkiIGNsYXNzPSJsYWJlbCI+PGcgdHJhbnNmb3JtPSJ0cmFuc2xhdGUoLTYzLjQzNjcxNzk4NzA2MDU1LC05LjE5OTk5OTgwOTI2NTEzNykiPjx0ZXh0IHN0eWxlPSIiPjx0c3BhbiB4PSIxIiBkeT0iMWVtIiB4bWw6c3BhY2U9InByZXNlcnZlIj7ovazmjaLkuLpEYXRhRnJhbWU8L3RzcGFuPjwvdGV4dD48L2c+PC9nPjwvZz48ZyBzdHlsZT0ib3BhY2l0eTogMTsiIHRyYW5zZm9ybT0idHJhbnNsYXRlKDI0MS43NDY4NzU3NjI5Mzk0NSw3MzUuNjAwMDA4MDEwODY0MykiIGlkPSJmbG93Y2hhcnQtSC0zMyIgY2xhc3M9Im5vZGUgZGVmYXVsdCI+PHJlY3QgY2xhc3M9ImxhYmVsLWNvbnRhaW5lciIgaGVpZ2h0PSIzOC4zOTk5OTk2MTg1MzAyNyIgd2lkdGg9IjkwLjgzNDM3MzQ3NDEyMTEiIHk9Ii0xOS4xOTk5OTk4MDkyNjUxMzciIHg9Ii00NS40MTcxODY3MzcwNjA1NSIgcnk9IjAiIHJ4PSIwIj48L3JlY3Q+PGcgdHJhbnNmb3JtPSJ0cmFuc2xhdGUoMCwwKSIgY2xhc3M9ImxhYmVsIj48ZyB0cmFuc2Zvcm09InRyYW5zbGF0ZSgtMzUuNDE3MTg2NzM3MDYwNTUsLTkuMTk5OTk5ODA5MjY1MTM3KSI+PHRleHQgc3R5bGU9IiI+PHRzcGFuIHg9IjEiIGR5PSIxZW0iIHhtbDpzcGFjZT0icHJlc2VydmUiPuWtmOWFpUV4Y2VsPC90c3Bhbj48L3RleHQ+PC9nPjwvZz48L2c+PGcgc3R5bGU9Im9wYWNpdHk6IDE7IiB0cmFuc2Zvcm09InRyYW5zbGF0ZSgzNDguNDQ2ODc2NTI1ODc4OSw4MjQuMDAwMDA5NTM2NzQzMikiIGlkPSJmbG93Y2hhcnQtSS0zNSIgY2xhc3M9Im5vZGUgZGVmYXVsdCI+PHJlY3QgY2xhc3M9ImxhYmVsLWNvbnRhaW5lciIgaGVpZ2h0PSIzOC4zOTk5OTk2MTg1MzAyNyIgd2lkdGg9IjExNy41OTk5OTg0NzQxMjExIiB5PSItMTkuMTk5OTk5ODA5MjY1MTM3IiB4PSItNTguNzk5OTk5MjM3MDYwNTUiIHJ5PSIwIiByeD0iMCI+PC9yZWN0PjxnIHRyYW5zZm9ybT0idHJhbnNsYXRlKDAsMCkiIGNsYXNzPSJsYWJlbCI+PGcgdHJhbnNmb3JtPSJ0cmFuc2xhdGUoLTQ4Ljc5OTk5OTIzNzA2MDU1LC05LjE5OTk5OTgwOTI2NTEzNykiPjx0ZXh0IHN0eWxlPSIiPjx0c3BhbiB4PSIxIiBkeT0iMWVtIiB4bWw6c3BhY2U9InByZXNlcnZlIj7miZPljbDmlbDmja7kuKrmlbA8L3RzcGFuPjwvdGV4dD48L2c+PC9nPjwvZz48ZyBzdHlsZT0ib3BhY2l0eTogMTsiIHRyYW5zZm9ybT0idHJhbnNsYXRlKDM0MC44NjUyMzgxODk2OTcyNywzODIuMDAwMDAxOTA3MzQ4NjMpIiBpZD0iZmxvd2NoYXJ0LUotMzkiIGNsYXNzPSJub2RlIGRlZmF1bHQiPjxyZWN0IGNsYXNzPSJsYWJlbC1jb250YWluZXIiIGhlaWdodD0iMzguMzk5OTk5NjE4NTMwMjciIHdpZHRoPSI1My42MDAwMDIyODg4MTgzNiIgeT0iLTE5LjE5OTk5OTgwOTI2NTEzNyIgeD0iLTI2LjgwMDAwMTE0NDQwOTE4IiByeT0iMCIgcng9IjAiPjwvcmVjdD48ZyB0cmFuc2Zvcm09InRyYW5zbGF0ZSgwLDApIiBjbGFzcz0ibGFiZWwiPjxnIHRyYW5zZm9ybT0idHJhbnNsYXRlKC0xNi44MDAwMDExNDQ0MDkxOCwtOS4xOTk5OTk4MDkyNjUxMzcpIj48dGV4dCBzdHlsZT0iIj48dHNwYW4geD0iMSIgZHk9IjFlbSIgeG1sOnNwYWNlPSJwcmVzZXJ2ZSI+57uT5p2fPC90c3Bhbj48L3RleHQ+PC9nPjwvZz48L2c+PC9nPjwvZz48L2c+PC9zdmc+;" vertex="1" parent="1">
                        <mxGeometry x="370" y="-110" width="370" height="851.2" as="geometry"/>
                    </mxCell>
                </UserObject>
                <UserObject label="" mermaidData="{&#10;  &quot;data&quot;: &quot;graph TD;\n    Start[开始] --&gt; Loop[循环每只股票名称];\n    Loop --&gt; Request[发送HTTP请求获取股票历史数据];\n    Request --&gt; |成功| JSONConversion[将请求到的数据转换为JSON格式];\n    Request -.-&gt; |失败| ErrorHandler[处理请求失败情况];\n    JSONConversion --&gt; DataFrameConversion[将获取的JSON数据转换为DataFrame对象];\n    DataFrameConversion --&gt; ExcelWriter[将DataFrame数据存入Excel文件];\n    ExcelWriter --&gt; End[结束当前股票数据获取];\n    ErrorHandler --&gt; End[结束当前股票数据获取];\n    End --&gt; Done[完成所有股票数据获取];\n&quot;,&#10;  &quot;config&quot;: {&#10;    &quot;theme&quot;: &quot;neutral&quot;,&#10;    &quot;arrowMarkerAbsolute&quot;: false,&#10;    &quot;flowchart&quot;: {&#10;      &quot;htmlLabels&quot;: false&#10;    },&#10;    &quot;sequence&quot;: {&#10;      &quot;diagramMarginX&quot;: 50,&#10;      &quot;diagramMarginY&quot;: 10,&#10;      &quot;actorMargin&quot;: 50,&#10;      &quot;width&quot;: 150,&#10;      &quot;height&quot;: 65,&#10;      &quot;boxMargin&quot;: 10,&#10;      &quot;boxTextMargin&quot;: 5,&#10;      &quot;noteMargin&quot;: 10,&#10;      &quot;messageMargin&quot;: 35,&#10;      &quot;mirrorActors&quot;: true,&#10;      &quot;bottomMarginAdj&quot;: 1,&#10;      &quot;useMaxWidth&quot;: true,&#10;      &quot;rightAngles&quot;: false,&#10;      &quot;showSequenceNumbers&quot;: false&#10;    },&#10;    &quot;gantt&quot;: {&#10;      &quot;titleTopMargin&quot;: 25,&#10;      &quot;barHeight&quot;: 20,&#10;      &quot;barGap&quot;: 4,&#10;      &quot;topPadding&quot;: 50,&#10;      &quot;leftPadding&quot;: 75,&#10;      &quot;gridLineStartPadding&quot;: 35,&#10;      &quot;fontSize&quot;: 11,&#10;      &quot;fontFamily&quot;: &quot;\&quot;Open-Sans\&quot;, \&quot;sans-serif\&quot;&quot;,&#10;      &quot;numberSectionStyles&quot;: 4,&#10;      &quot;axisFormat&quot;: &quot;%Y-%m-%d&quot;&#10;    }&#10;  }&#10;}" id="9">
                    <mxCell style="shape=image;noLabel=1;verticalAlign=top;imageAspect=1;image=data:image/svg+xml,PHN2ZyB2aWV3Qm94PSIwIDAgNDk1LjUzMjgyMTY1NTI3MzQ0IDcxMC4wMDAwMTE0NDQwOTE4IiBzdHlsZT0ibWF4LXdpZHRoOiA0OTUuNTMyODIxNjU1MjczNDRweDsiIGhlaWdodD0iNzEwLjAwMDAxMTQ0NDA5MTgiIGFyaWEtbGFiZWxsZWRieT0iY2hhcnQtdGl0bGUtZ2VNZXJtYWlkT3V0cHV0LTE3MTM4NDI2ODY0NjkgY2hhcnQtZGVzYy1nZU1lcm1haWRPdXRwdXQtMTcxMzg0MjY4NjQ2OSIgcm9sZT0iaW1nIiB4bWxuczp4bGluaz0iaHR0cDovL3d3dy53My5vcmcvMTk5OS94bGluayIgeG1sbnM9Imh0dHA6Ly93d3cudzMub3JnLzIwMDAvc3ZnIiB3aWR0aD0iMTAwJSIgaWQ9ImdlTWVybWFpZE91dHB1dC0xNzEzODQyNjg2NDY5Ij48dGl0bGUgaWQ9ImNoYXJ0LXRpdGxlLWdlTWVybWFpZE91dHB1dC0xNzEzODQyNjg2NDY5Ij48L3RpdGxlPjxkZXNjIGlkPSJjaGFydC1kZXNjLWdlTWVybWFpZE91dHB1dC0xNzEzODQyNjg2NDY5Ij48L2Rlc2M+PHN0eWxlPiNnZU1lcm1haWRPdXRwdXQtMTcxMzg0MjY4NjQ2OSB7Zm9udC1mYW1pbHk6InRyZWJ1Y2hldCBtcyIsdmVyZGFuYSxhcmlhbCxzYW5zLXNlcmlmO2ZvbnQtc2l6ZToxNnB4O2ZpbGw6IzAwMDAwMDt9I2dlTWVybWFpZE91dHB1dC0xNzEzODQyNjg2NDY5IC5lcnJvci1pY29ue2ZpbGw6IzU1MjIyMjt9I2dlTWVybWFpZE91dHB1dC0xNzEzODQyNjg2NDY5IC5lcnJvci10ZXh0e2ZpbGw6IzU1MjIyMjtzdHJva2U6IzU1MjIyMjt9I2dlTWVybWFpZE91dHB1dC0xNzEzODQyNjg2NDY5IC5lZGdlLXRoaWNrbmVzcy1ub3JtYWx7c3Ryb2tlLXdpZHRoOjJweDt9I2dlTWVybWFpZE91dHB1dC0xNzEzODQyNjg2NDY5IC5lZGdlLXRoaWNrbmVzcy10aGlja3tzdHJva2Utd2lkdGg6My41cHg7fSNnZU1lcm1haWRPdXRwdXQtMTcxMzg0MjY4NjQ2OSAuZWRnZS1wYXR0ZXJuLXNvbGlke3N0cm9rZS1kYXNoYXJyYXk6MDt9I2dlTWVybWFpZE91dHB1dC0xNzEzODQyNjg2NDY5IC5lZGdlLXBhdHRlcm4tZGFzaGVke3N0cm9rZS1kYXNoYXJyYXk6Mzt9I2dlTWVybWFpZE91dHB1dC0xNzEzODQyNjg2NDY5IC5lZGdlLXBhdHRlcm4tZG90dGVke3N0cm9rZS1kYXNoYXJyYXk6Mjt9I2dlTWVybWFpZE91dHB1dC0xNzEzODQyNjg2NDY5IC5tYXJrZXJ7ZmlsbDojNjY2O3N0cm9rZTojNjY2O30jZ2VNZXJtYWlkT3V0cHV0LTE3MTM4NDI2ODY0NjkgLm1hcmtlci5jcm9zc3tzdHJva2U6IzY2Njt9I2dlTWVybWFpZE91dHB1dC0xNzEzODQyNjg2NDY5IHN2Z3tmb250LWZhbWlseToidHJlYnVjaGV0IG1zIix2ZXJkYW5hLGFyaWFsLHNhbnMtc2VyaWY7Zm9udC1zaXplOjE2cHg7fSNnZU1lcm1haWRPdXRwdXQtMTcxMzg0MjY4NjQ2OSAubGFiZWx7Zm9udC1mYW1pbHk6InRyZWJ1Y2hldCBtcyIsdmVyZGFuYSxhcmlhbCxzYW5zLXNlcmlmO2NvbG9yOiMwMDAwMDA7fSNnZU1lcm1haWRPdXRwdXQtMTcxMzg0MjY4NjQ2OSAuY2x1c3Rlci1sYWJlbCB0ZXh0e2ZpbGw6IzMzMzt9I2dlTWVybWFpZE91dHB1dC0xNzEzODQyNjg2NDY5IC5jbHVzdGVyLWxhYmVsIHNwYW57Y29sb3I6IzMzMzt9I2dlTWVybWFpZE91dHB1dC0xNzEzODQyNjg2NDY5IC5sYWJlbCB0ZXh0LCNnZU1lcm1haWRPdXRwdXQtMTcxMzg0MjY4NjQ2OSBzcGFue2ZpbGw6IzAwMDAwMDtjb2xvcjojMDAwMDAwO30jZ2VNZXJtYWlkT3V0cHV0LTE3MTM4NDI2ODY0NjkgLm5vZGUgcmVjdCwjZ2VNZXJtYWlkT3V0cHV0LTE3MTM4NDI2ODY0NjkgLm5vZGUgY2lyY2xlLCNnZU1lcm1haWRPdXRwdXQtMTcxMzg0MjY4NjQ2OSAubm9kZSBlbGxpcHNlLCNnZU1lcm1haWRPdXRwdXQtMTcxMzg0MjY4NjQ2OSAubm9kZSBwb2x5Z29uLCNnZU1lcm1haWRPdXRwdXQtMTcxMzg0MjY4NjQ2OSAubm9kZSBwYXRoe2ZpbGw6I2VlZTtzdHJva2U6Izk5OTtzdHJva2Utd2lkdGg6MXB4O30jZ2VNZXJtYWlkT3V0cHV0LTE3MTM4NDI2ODY0NjkgLm5vZGUgLmxhYmVse3RleHQtYWxpZ246Y2VudGVyO30jZ2VNZXJtYWlkT3V0cHV0LTE3MTM4NDI2ODY0NjkgLm5vZGUuY2xpY2thYmxle2N1cnNvcjpwb2ludGVyO30jZ2VNZXJtYWlkT3V0cHV0LTE3MTM4NDI2ODY0NjkgLmFycm93aGVhZFBhdGh7ZmlsbDojMzMzMzMzO30jZ2VNZXJtYWlkT3V0cHV0LTE3MTM4NDI2ODY0NjkgLmVkZ2VQYXRoIC5wYXRoe3N0cm9rZTojNjY2O3N0cm9rZS13aWR0aDoyLjBweDt9I2dlTWVybWFpZE91dHB1dC0xNzEzODQyNjg2NDY5IC5mbG93Y2hhcnQtbGlua3tzdHJva2U6IzY2NjtmaWxsOm5vbmU7fSNnZU1lcm1haWRPdXRwdXQtMTcxMzg0MjY4NjQ2OSAuZWRnZUxhYmVse2JhY2tncm91bmQtY29sb3I6d2hpdGU7dGV4dC1hbGlnbjpjZW50ZXI7fSNnZU1lcm1haWRPdXRwdXQtMTcxMzg0MjY4NjQ2OSAuZWRnZUxhYmVsIHJlY3R7b3BhY2l0eTowLjU7YmFja2dyb3VuZC1jb2xvcjp3aGl0ZTtmaWxsOndoaXRlO30jZ2VNZXJtYWlkT3V0cHV0LTE3MTM4NDI2ODY0NjkgLmNsdXN0ZXIgcmVjdHtmaWxsOmhzbCgwLCAwJSwgOTguOTIxNTY4NjI3NSUpO3N0cm9rZTojNzA3MDcwO3N0cm9rZS13aWR0aDoxcHg7fSNnZU1lcm1haWRPdXRwdXQtMTcxMzg0MjY4NjQ2OSAuY2x1c3RlciB0ZXh0e2ZpbGw6IzMzMzt9I2dlTWVybWFpZE91dHB1dC0xNzEzODQyNjg2NDY5IC5jbHVzdGVyIHNwYW57Y29sb3I6IzMzMzt9I2dlTWVybWFpZE91dHB1dC0xNzEzODQyNjg2NDY5IGRpdi5tZXJtYWlkVG9vbHRpcHtwb3NpdGlvbjphYnNvbHV0ZTt0ZXh0LWFsaWduOmNlbnRlcjttYXgtd2lkdGg6MjAwcHg7cGFkZGluZzoycHg7Zm9udC1mYW1pbHk6InRyZWJ1Y2hldCBtcyIsdmVyZGFuYSxhcmlhbCxzYW5zLXNlcmlmO2ZvbnQtc2l6ZToxMnB4O2JhY2tncm91bmQ6aHNsKC0xNjAsIDAlLCA5My4zMzMzMzMzMzMzJSk7Ym9yZGVyOjFweCBzb2xpZCAjNzA3MDcwO2JvcmRlci1yYWRpdXM6MnB4O3BvaW50ZXItZXZlbnRzOm5vbmU7ei1pbmRleDoxMDA7fSNnZU1lcm1haWRPdXRwdXQtMTcxMzg0MjY4NjQ2OSA6cm9vdHstLW1lcm1haWQtZm9udC1mYW1pbHk6InRyZWJ1Y2hldCBtcyIsdmVyZGFuYSxhcmlhbCxzYW5zLXNlcmlmO308L3N0eWxlPjxnIHRyYW5zZm9ybT0idHJhbnNsYXRlKDAsIDApIj48ZyBjbGFzcz0ib3V0cHV0Ij48ZyBjbGFzcz0iY2x1c3RlcnMiPjwvZz48ZyBjbGFzcz0iZWRnZVBhdGhzIj48ZyBzdHlsZT0ib3BhY2l0eTogMTsiIGlkPSJMLVN0YXJ0LUxvb3AiIGNsYXNzPSJlZGdlUGF0aCBMUy1TdGFydCBMRS1Mb29wIj48cGF0aCBzdHlsZT0iZmlsbDpub25lIiBtYXJrZXItZW5kPSJ1cmwoI2Fycm93aGVhZDEwNykiIGQ9Ik0yODguNTQ0NTM2NTkwNTc2Miw0Ni40MDAwMDE1MjU4Nzg5MDZMMjg4LjU0NDUzNjU5MDU3NjIsNTAuNTY2NjY4MTkyNTQ1NTdDMjg4LjU0NDUzNjU5MDU3NjIsNTQuNzMzMzM0ODU5MjEyMjQsMjg4LjU0NDUzNjU5MDU3NjIsNjMuMDY2NjY4MTkyNTQ1NTcsMjg4LjU0NDUzNjU5MDU3NjIsNzEuNDAwMDAxNTI1ODc4OUMyODguNTQ0NTM2NTkwNTc2Miw3OS43MzMzMzQ4NTkyMTIyMywyODguNTQ0NTM2NTkwNTc2Miw4OC4wNjY2NjgxOTI1NDU1OCwyODguNTQ0NTM2NTkwNTc2Miw5Mi4yMzMzMzQ4NTkyMTIyM0wyODguNTQ0NTM2NTkwNTc2Miw5Ni40MDAwMDE1MjU4Nzg5IiBjbGFzcz0icGF0aCI+PC9wYXRoPjxkZWZzPjxtYXJrZXIgb3JpZW50PSJhdXRvIiBtYXJrZXJIZWlnaHQ9IjYiIG1hcmtlcldpZHRoPSI4IiBtYXJrZXJVbml0cz0ic3Ryb2tlV2lkdGgiIHJlZlk9IjUiIHJlZlg9IjkiIHZpZXdCb3g9IjAgMCAxMCAxMCIgaWQ9ImFycm93aGVhZDEwNyI+PHBhdGggc3R5bGU9InN0cm9rZS13aWR0aDogMTsgc3Ryb2tlLWRhc2hhcnJheTogMSwgMDsiIGNsYXNzPSJhcnJvd2hlYWRQYXRoIiBkPSJNIDAgMCBMIDEwIDUgTCAwIDEwIHoiPjwvcGF0aD48L21hcmtlcj48L2RlZnM+PC9nPjxnIHN0eWxlPSJvcGFjaXR5OiAxOyIgaWQ9IkwtTG9vcC1SZXF1ZXN0IiBjbGFzcz0iZWRnZVBhdGggTFMtTG9vcCBMRS1SZXF1ZXN0Ij48cGF0aCBzdHlsZT0iZmlsbDpub25lIiBtYXJrZXItZW5kPSJ1cmwoI2Fycm93aGVhZDEwOCkiIGQ9Ik0yODguNTQ0NTM2NTkwNTc2MiwxMzQuODAwMDAzMDUxNzU3OEwyODguNTQ0NTM2NTkwNTc2MiwxMzguOTY2NjY5NzE4NDI0NDdDMjg4LjU0NDUzNjU5MDU3NjIsMTQzLjEzMzMzNjM4NTA5MTE2LDI4OC41NDQ1MzY1OTA1NzYyLDE1MS40NjY2Njk3MTg0MjQ0NywyODguNTQ0NTM2NTkwNTc2MiwxNTkuODAwMDAzMDUxNzU3OEMyODguNTQ0NTM2NTkwNTc2MiwxNjguMTMzMzM2Mzg1MDkxMTYsMjg4LjU0NDUzNjU5MDU3NjIsMTc2LjQ2NjY2OTcxODQyNDQ3LDI4OC41NDQ1MzY1OTA1NzYyLDE4MC42MzMzMzYzODUwOTExNkwyODguNTQ0NTM2NTkwNTc2MiwxODQuODAwMDAzMDUxNzU3OCIgY2xhc3M9InBhdGgiPjwvcGF0aD48ZGVmcz48bWFya2VyIG9yaWVudD0iYXV0byIgbWFya2VySGVpZ2h0PSI2IiBtYXJrZXJXaWR0aD0iOCIgbWFya2VyVW5pdHM9InN0cm9rZVdpZHRoIiByZWZZPSI1IiByZWZYPSI5IiB2aWV3Qm94PSIwIDAgMTAgMTAiIGlkPSJhcnJvd2hlYWQxMDgiPjxwYXRoIHN0eWxlPSJzdHJva2Utd2lkdGg6IDE7IHN0cm9rZS1kYXNoYXJyYXk6IDEsIDA7IiBjbGFzcz0iYXJyb3doZWFkUGF0aCIgZD0iTSAwIDAgTCAxMCA1IEwgMCAxMCB6Ij48L3BhdGg+PC9tYXJrZXI+PC9kZWZzPjwvZz48ZyBzdHlsZT0ib3BhY2l0eTogMTsiIGlkPSJMLVJlcXVlc3QtSlNPTkNvbnZlcnNpb24iIGNsYXNzPSJlZGdlUGF0aCBMUy1SZXF1ZXN0IExFLUpTT05Db252ZXJzaW9uIj48cGF0aCBzdHlsZT0iZmlsbDpub25lIiBtYXJrZXItZW5kPSJ1cmwoI2Fycm93aGVhZDEwOSkiIGQ9Ik0yNDMuNzQ4NzQ3OTUwNzU4MzEsMjIzLjIwMDAwNDU3NzYzNjcyTDIzMC40NDk5OTg4MDA5MjQ4NywyMjguOTAwMDA0NTQ1ODQ3NTdDMjE3LjE1MTI0OTY1MTA5MTUsMjM0LjYwMDAwNDUxNDA1ODQ0LDE5MC41NTM3NTEzNTE0MjQ2NywyNDYuMDAwMDA0NDUwNDgwMTMsMTc3LjI1NTAwMjIwMTU5MTIyLDI1Ny40MDAwMDQzODY5MDE4NkMxNjMuOTU2MjUzMDUxNzU3OCwyNjguODAwMDA0MzIzMzIzNTUsMTYzLjk1NjI1MzA1MTc1NzgsMjgwLjIwMDAwNDI1OTc0NTMsMTYzLjk1NjI1MzA1MTc1NzgsMjg1LjkwMDAwNDIyNzk1NjFMMTYzLjk1NjI1MzA1MTc1NzgsMjkxLjYwMDAwNDE5NjE2NyIgY2xhc3M9InBhdGgiPjwvcGF0aD48ZGVmcz48bWFya2VyIG9yaWVudD0iYXV0byIgbWFya2VySGVpZ2h0PSI2IiBtYXJrZXJXaWR0aD0iOCIgbWFya2VyVW5pdHM9InN0cm9rZVdpZHRoIiByZWZZPSI1IiByZWZYPSI5IiB2aWV3Qm94PSIwIDAgMTAgMTAiIGlkPSJhcnJvd2hlYWQxMDkiPjxwYXRoIHN0eWxlPSJzdHJva2Utd2lkdGg6IDE7IHN0cm9rZS1kYXNoYXJyYXk6IDEsIDA7IiBjbGFzcz0iYXJyb3doZWFkUGF0aCIgZD0iTSAwIDAgTCAxMCA1IEwgMCAxMCB6Ij48L3BhdGg+PC9tYXJrZXI+PC9kZWZzPjwvZz48ZyBzdHlsZT0ib3BhY2l0eTogMTsiIGlkPSJMLVJlcXVlc3QtRXJyb3JIYW5kbGVyIiBjbGFzcz0iZWRnZVBhdGggTFMtUmVxdWVzdCBMRS1FcnJvckhhbmRsZXIiPjxwYXRoIHN0eWxlPSJmaWxsOm5vbmU7c3Ryb2tlLXdpZHRoOjJweDtzdHJva2UtZGFzaGFycmF5OjM7IiBtYXJrZXItZW5kPSJ1cmwoI2Fycm93aGVhZDExMCkiIGQ9Ik0zMzMuMzQwMzI1MjMwMzk0LDIyMy4yMDAwMDQ1Nzc2MzY3MkwzNDYuNjM5MDc0MzgwMjI3NDQsMjI4LjkwMDAwNDU0NTg0NzU3QzM1OS45Mzc4MjM1MzAwNjA4LDIzNC42MDAwMDQ1MTQwNTg0NCwzODYuNTM1MzIxODI5NzI3NywyNDYuMDAwMDA0NDUwNDgwMTMsMzk5LjgzNDA3MDk3OTU2MTE1LDI2MC42MDAwMDQ1MTQwNTg0QzQxMy4xMzI4MjAxMjkzOTQ1MywyNzUuMjAwMDA0NTc3NjM2Nyw0MTMuMTMyODIwMTI5Mzk0NTMsMjkzLjAwMDAwNDc2ODM3MTYsNDEzLjEzMjgyMDEyOTM5NDUzLDMxMC44MDAwMDQ5NTkxMDY0NUM0MTMuMTMyODIwMTI5Mzk0NTMsMzI4LjYwMDAwNTE0OTg0MTMsNDEzLjEzMjgyMDEyOTM5NDUzLDM0Ni40MDAwMDUzNDA1NzYyLDQxMy4xMzI4MjAxMjkzOTQ1MywzNjQuMjAwMDA1NTMxMzExMDRDNDEzLjEzMjgyMDEyOTM5NDUzLDM4Mi4wMDAwMDU3MjIwNDU5LDQxMy4xMzI4MjAxMjkzOTQ1MywzOTkuODAwMDA1OTEyNzgwNzYsNDEzLjEzMjgyMDEyOTM5NDUzLDQxNi4wNjY2NzI4MDE5NzE0NEM0MTMuMTMyODIwMTI5Mzk0NTMsNDMyLjMzMzMzOTY5MTE2MjEsNDEzLjEzMjgyMDEyOTM5NDUzLDQ0Ny4wNjY2NzMyNzg4MDg2LDQxMy4xMzI4MjAxMjkzOTQ1Myw0NTguNjAwMDA2NzM5Mjk4NUM0MTMuMTMyODIwMTI5Mzk0NTMsNDcwLjEzMzM0MDE5OTc4ODQsNDEzLjEzMjgyMDEyOTM5NDUzLDQ3OC40NjY2NzM1MzMxMjE3Niw0MTMuMTMyODIwMTI5Mzk0NTMsNDgyLjYzMzM0MDE5OTc4ODRMNDEzLjEzMjgyMDEyOTM5NDUzLDQ4Ni44MDAwMDY4NjY0NTUxIiBjbGFzcz0icGF0aCI+PC9wYXRoPjxkZWZzPjxtYXJrZXIgb3JpZW50PSJhdXRvIiBtYXJrZXJIZWlnaHQ9IjYiIG1hcmtlcldpZHRoPSI4IiBtYXJrZXJVbml0cz0ic3Ryb2tlV2lkdGgiIHJlZlk9IjUiIHJlZlg9IjkiIHZpZXdCb3g9IjAgMCAxMCAxMCIgaWQ9ImFycm93aGVhZDExMCI+PHBhdGggc3R5bGU9InN0cm9rZS13aWR0aDogMTsgc3Ryb2tlLWRhc2hhcnJheTogMSwgMDsiIGNsYXNzPSJhcnJvd2hlYWRQYXRoIiBkPSJNIDAgMCBMIDEwIDUgTCAwIDEwIHoiPjwvcGF0aD48L21hcmtlcj48L2RlZnM+PC9nPjxnIHN0eWxlPSJvcGFjaXR5OiAxOyIgaWQ9IkwtSlNPTkNvbnZlcnNpb24tRGF0YUZyYW1lQ29udmVyc2lvbiIgY2xhc3M9ImVkZ2VQYXRoIExTLUpTT05Db252ZXJzaW9uIExFLURhdGFGcmFtZUNvbnZlcnNpb24iPjxwYXRoIHN0eWxlPSJmaWxsOm5vbmUiIG1hcmtlci1lbmQ9InVybCgjYXJyb3doZWFkMTExKSIgZD0iTTE2My45NTYyNTMwNTE3NTc4LDMzMC4wMDAwMDU3MjIwNDU5TDE2My45NTYyNTMwNTE3NTc4LDMzNS43MDAwMDU2OTAyNTY4QzE2My45NTYyNTMwNTE3NTc4LDM0MS40MDAwMDU2NTg0Njc2LDE2My45NTYyNTMwNTE3NTc4LDM1Mi44MDAwMDU1OTQ4ODkzNCwxNjMuOTU2MjUzMDUxNzU3OCwzNjQuMjAwMDA1NTMxMzExMDRDMTYzLjk1NjI1MzA1MTc1NzgsMzc1LjYwMDAwNTQ2NzczMjczLDE2My45NTYyNTMwNTE3NTc4LDM4Ny4wMDAwMDU0MDQxNTQ1LDE2My45NTYyNTMwNTE3NTc4LDM5Mi43MDAwMDUzNzIzNjUzTDE2My45NTYyNTMwNTE3NTc4LDM5OC40MDAwMDUzNDA1NzYyIiBjbGFzcz0icGF0aCI+PC9wYXRoPjxkZWZzPjxtYXJrZXIgb3JpZW50PSJhdXRvIiBtYXJrZXJIZWlnaHQ9IjYiIG1hcmtlcldpZHRoPSI4IiBtYXJrZXJVbml0cz0ic3Ryb2tlV2lkdGgiIHJlZlk9IjUiIHJlZlg9IjkiIHZpZXdCb3g9IjAgMCAxMCAxMCIgaWQ9ImFycm93aGVhZDExMSI+PHBhdGggc3R5bGU9InN0cm9rZS13aWR0aDogMTsgc3Ryb2tlLWRhc2hhcnJheTogMSwgMDsiIGNsYXNzPSJhcnJvd2hlYWRQYXRoIiBkPSJNIDAgMCBMIDEwIDUgTCAwIDEwIHoiPjwvcGF0aD48L21hcmtlcj48L2RlZnM+PC9nPjxnIHN0eWxlPSJvcGFjaXR5OiAxOyIgaWQ9IkwtRGF0YUZyYW1lQ29udmVyc2lvbi1FeGNlbFdyaXRlciIgY2xhc3M9ImVkZ2VQYXRoIExTLURhdGFGcmFtZUNvbnZlcnNpb24gTEUtRXhjZWxXcml0ZXIiPjxwYXRoIHN0eWxlPSJmaWxsOm5vbmUiIG1hcmtlci1lbmQ9InVybCgjYXJyb3doZWFkMTEyKSIgZD0iTTE2My45NTYyNTMwNTE3NTc4LDQzNi44MDAwMDY4NjY0NTUxTDE2My45NTYyNTMwNTE3NTc4LDQ0MC45NjY2NzM1MzMxMjE3NkMxNjMuOTU2MjUzMDUxNzU3OCw0NDUuMTMzMzQwMTk5Nzg4NCwxNjMuOTU2MjUzMDUxNzU3OCw0NTMuNDY2NjczNTMzMTIxNzYsMTYzLjk1NjI1MzA1MTc1NzgsNDYxLjgwMDAwNjg2NjQ1NTFDMTYzLjk1NjI1MzA1MTc1NzgsNDcwLjEzMzM0MDE5OTc4ODQsMTYzLjk1NjI1MzA1MTc1NzgsNDc4LjQ2NjY3MzUzMzEyMTc2LDE2My45NTYyNTMwNTE3NTc4LDQ4Mi42MzMzNDAxOTk3ODg0TDE2My45NTYyNTMwNTE3NTc4LDQ4Ni44MDAwMDY4NjY0NTUxIiBjbGFzcz0icGF0aCI+PC9wYXRoPjxkZWZzPjxtYXJrZXIgb3JpZW50PSJhdXRvIiBtYXJrZXJIZWlnaHQ9IjYiIG1hcmtlcldpZHRoPSI4IiBtYXJrZXJVbml0cz0ic3Ryb2tlV2lkdGgiIHJlZlk9IjUiIHJlZlg9IjkiIHZpZXdCb3g9IjAgMCAxMCAxMCIgaWQ9ImFycm93aGVhZDExMiI+PHBhdGggc3R5bGU9InN0cm9rZS13aWR0aDogMTsgc3Ryb2tlLWRhc2hhcnJheTogMSwgMDsiIGNsYXNzPSJhcnJvd2hlYWRQYXRoIiBkPSJNIDAgMCBMIDEwIDUgTCAwIDEwIHoiPjwvcGF0aD48L21hcmtlcj48L2RlZnM+PC9nPjxnIHN0eWxlPSJvcGFjaXR5OiAxOyIgaWQ9IkwtRXhjZWxXcml0ZXItRW5kIiBjbGFzcz0iZWRnZVBhdGggTFMtRXhjZWxXcml0ZXIgTEUtRW5kIj48cGF0aCBzdHlsZT0iZmlsbDpub25lIiBtYXJrZXItZW5kPSJ1cmwoI2Fycm93aGVhZDExMykiIGQ9Ik0xNjMuOTU2MjUzMDUxNzU3OCw1MjUuMjAwMDA4MzkyMzM0TDE2My45NTYyNTMwNTE3NTc4LDUyOS4zNjY2NzUwNTkwMDA2QzE2My45NTYyNTMwNTE3NTc4LDUzMy41MzMzNDE3MjU2Njc0LDE2My45NTYyNTMwNTE3NTc4LDU0MS44NjY2NzUwNTkwMDA2LDE3NS43MDEwMDA1NDMxMTI1LDU1MC4yMDAwMDgzOTIzMzRDMTg3LjQ0NTc0ODAzNDQ2NzI0LDU1OC41MzMzNDE3MjU2Njc0LDIxMC45MzUyNDMwMTcxNzY3LDU2Ni44NjY2NzUwNTkwMDA2LDIyMi42Nzk5OTA1MDg1MzE0LDU3MS4wMzMzNDE3MjU2Njc0TDIzNC40MjQ3Mzc5OTk4ODYxMyw1NzUuMjAwMDA4MzkyMzM0IiBjbGFzcz0icGF0aCI+PC9wYXRoPjxkZWZzPjxtYXJrZXIgb3JpZW50PSJhdXRvIiBtYXJrZXJIZWlnaHQ9IjYiIG1hcmtlcldpZHRoPSI4IiBtYXJrZXJVbml0cz0ic3Ryb2tlV2lkdGgiIHJlZlk9IjUiIHJlZlg9IjkiIHZpZXdCb3g9IjAgMCAxMCAxMCIgaWQ9ImFycm93aGVhZDExMyI+PHBhdGggc3R5bGU9InN0cm9rZS13aWR0aDogMTsgc3Ryb2tlLWRhc2hhcnJheTogMSwgMDsiIGNsYXNzPSJhcnJvd2hlYWRQYXRoIiBkPSJNIDAgMCBMIDEwIDUgTCAwIDEwIHoiPjwvcGF0aD48L21hcmtlcj48L2RlZnM+PC9nPjxnIHN0eWxlPSJvcGFjaXR5OiAxOyIgaWQ9IkwtRXJyb3JIYW5kbGVyLUVuZCIgY2xhc3M9ImVkZ2VQYXRoIExTLUVycm9ySGFuZGxlciBMRS1FbmQiPjxwYXRoIHN0eWxlPSJmaWxsOm5vbmUiIG1hcmtlci1lbmQ9InVybCgjYXJyb3doZWFkMTE0KSIgZD0iTTQxMy4xMzI4MjAxMjkzOTQ1Myw1MjUuMjAwMDA4MzkyMzM0TDQxMy4xMzI4MjAxMjkzOTQ1Myw1MjkuMzY2Njc1MDU5MDAwNkM0MTMuMTMyODIwMTI5Mzk0NTMsNTMzLjUzMzM0MTcyNTY2NzQsNDEzLjEzMjgyMDEyOTM5NDUzLDU0MS44NjY2NzUwNTkwMDA2LDQwMS4zODgwNzI2MzgwMzk4Myw1NTAuMjAwMDA4MzkyMzM0QzM4OS42NDMzMjUxNDY2ODUxMyw1NTguNTMzMzQxNzI1NjY3NCwzNjYuMTUzODMwMTYzOTc1NjcsNTY2Ljg2NjY3NTA1OTAwMDYsMzU0LjQwOTA4MjY3MjYyMDk3LDU3MS4wMzMzNDE3MjU2Njc0TDM0Mi42NjQzMzUxODEyNjYyLDU3NS4yMDAwMDgzOTIzMzQiIGNsYXNzPSJwYXRoIj48L3BhdGg+PGRlZnM+PG1hcmtlciBvcmllbnQ9ImF1dG8iIG1hcmtlckhlaWdodD0iNiIgbWFya2VyV2lkdGg9IjgiIG1hcmtlclVuaXRzPSJzdHJva2VXaWR0aCIgcmVmWT0iNSIgcmVmWD0iOSIgdmlld0JveD0iMCAwIDEwIDEwIiBpZD0iYXJyb3doZWFkMTE0Ij48cGF0aCBzdHlsZT0ic3Ryb2tlLXdpZHRoOiAxOyBzdHJva2UtZGFzaGFycmF5OiAxLCAwOyIgY2xhc3M9ImFycm93aGVhZFBhdGgiIGQ9Ik0gMCAwIEwgMTAgNSBMIDAgMTAgeiI+PC9wYXRoPjwvbWFya2VyPjwvZGVmcz48L2c+PGcgc3R5bGU9Im9wYWNpdHk6IDE7IiBpZD0iTC1FbmQtRG9uZSIgY2xhc3M9ImVkZ2VQYXRoIExTLUVuZCBMRS1Eb25lIj48cGF0aCBzdHlsZT0iZmlsbDpub25lIiBtYXJrZXItZW5kPSJ1cmwoI2Fycm93aGVhZDExNSkiIGQ9Ik0yODguNTQ0NTM2NTkwNTc2Miw2MTMuNjAwMDA5OTE4MjEyOUwyODguNTQ0NTM2NTkwNTc2Miw2MTcuNzY2Njc2NTg0ODc5NUMyODguNTQ0NTM2NTkwNTc2Miw2MjEuOTMzMzQzMjUxNTQ2MywyODguNTQ0NTM2NTkwNTc2Miw2MzAuMjY2Njc2NTg0ODc5NSwyODguNTQ0NTM2NTkwNTc2Miw2MzguNjAwMDA5OTE4MjEyOUMyODguNTQ0NTM2NTkwNTc2Miw2NDYuOTMzMzQzMjUxNTQ2MywyODguNTQ0NTM2NTkwNTc2Miw2NTUuMjY2Njc2NTg0ODc5NSwyODguNTQ0NTM2NTkwNTc2Miw2NTkuNDMzMzQzMjUxNTQ2M0wyODguNTQ0NTM2NTkwNTc2Miw2NjMuNjAwMDA5OTE4MjEyOSIgY2xhc3M9InBhdGgiPjwvcGF0aD48ZGVmcz48bWFya2VyIG9yaWVudD0iYXV0byIgbWFya2VySGVpZ2h0PSI2IiBtYXJrZXJXaWR0aD0iOCIgbWFya2VyVW5pdHM9InN0cm9rZVdpZHRoIiByZWZZPSI1IiByZWZYPSI5IiB2aWV3Qm94PSIwIDAgMTAgMTAiIGlkPSJhcnJvd2hlYWQxMTUiPjxwYXRoIHN0eWxlPSJzdHJva2Utd2lkdGg6IDE7IHN0cm9rZS1kYXNoYXJyYXk6IDEsIDA7IiBjbGFzcz0iYXJyb3doZWFkUGF0aCIgZD0iTSAwIDAgTCAxMCA1IEwgMCAxMCB6Ij48L3BhdGg+PC9tYXJrZXI+PC9kZWZzPjwvZz48L2c+PGcgY2xhc3M9ImVkZ2VMYWJlbHMiPjxnIHN0eWxlPSJvcGFjaXR5OiAxOyIgdHJhbnNmb3JtPSIiIGNsYXNzPSJlZGdlTGFiZWwiPjxnIGNsYXNzPSJsYWJlbCIgdHJhbnNmb3JtPSJ0cmFuc2xhdGUoMCwwKSI+PHJlY3QgaGVpZ2h0PSIwIiB3aWR0aD0iMCIgcnk9IjAiIHJ4PSIwIj48L3JlY3Q+PHRleHQ+PHRzcGFuIHg9IjEiIGR5PSIxZW0iIHhtbDpzcGFjZT0icHJlc2VydmUiPjwvdHNwYW4+PC90ZXh0PjwvZz48L2c+PGcgc3R5bGU9Im9wYWNpdHk6IDE7IiB0cmFuc2Zvcm09IiIgY2xhc3M9ImVkZ2VMYWJlbCI+PGcgY2xhc3M9ImxhYmVsIiB0cmFuc2Zvcm09InRyYW5zbGF0ZSgwLDApIj48cmVjdCBoZWlnaHQ9IjAiIHdpZHRoPSIwIiByeT0iMCIgcng9IjAiPjwvcmVjdD48dGV4dD48dHNwYW4geD0iMSIgZHk9IjFlbSIgeG1sOnNwYWNlPSJwcmVzZXJ2ZSI+PC90c3Bhbj48L3RleHQ+PC9nPjwvZz48ZyBzdHlsZT0ib3BhY2l0eTogMTsiIHRyYW5zZm9ybT0idHJhbnNsYXRlKDE2My45NTYyNTMwNTE3NTc4LDI1Ny40MDAwMDQzODY5MDE4NikiIGNsYXNzPSJlZGdlTGFiZWwiPjxnIGNsYXNzPSJsYWJlbCIgdHJhbnNmb3JtPSJ0cmFuc2xhdGUoLTE2LjM5OTk5OTYxODUzMDI3MywtOS4xOTk5OTk4MDkyNjUxMzcpIj48cmVjdCBoZWlnaHQ9IjE4LjM5OTk5OTYxODUzMDI3MyIgd2lkdGg9IjMyLjc5OTk5OTIzNzA2MDU1IiByeT0iMCIgcng9IjAiPjwvcmVjdD48dGV4dD48dHNwYW4geD0iMSIgZHk9IjFlbSIgeG1sOnNwYWNlPSJwcmVzZXJ2ZSI+5oiQ5YqfPC90c3Bhbj48L3RleHQ+PC9nPjwvZz48ZyBzdHlsZT0ib3BhY2l0eTogMTsiIHRyYW5zZm9ybT0idHJhbnNsYXRlKDQxMy4xMzI4MjAxMjkzOTQ1MywzNjQuMjAwMDA1NTMxMzExMDQpIiBjbGFzcz0iZWRnZUxhYmVsIj48ZyBjbGFzcz0ibGFiZWwiIHRyYW5zZm9ybT0idHJhbnNsYXRlKC0xNi4zOTk5OTk2MTg1MzAyNzMsLTkuMTk5OTk5ODA5MjY1MTM3KSI+PHJlY3QgaGVpZ2h0PSIxOC4zOTk5OTk2MTg1MzAyNzMiIHdpZHRoPSIzMi43OTk5OTkyMzcwNjA1NSIgcnk9IjAiIHJ4PSIwIj48L3JlY3Q+PHRleHQ+PHRzcGFuIHg9IjEiIGR5PSIxZW0iIHhtbDpzcGFjZT0icHJlc2VydmUiPuWksei0pTwvdHNwYW4+PC90ZXh0PjwvZz48L2c+PGcgc3R5bGU9Im9wYWNpdHk6IDE7IiB0cmFuc2Zvcm09IiIgY2xhc3M9ImVkZ2VMYWJlbCI+PGcgY2xhc3M9ImxhYmVsIiB0cmFuc2Zvcm09InRyYW5zbGF0ZSgwLDApIj48cmVjdCBoZWlnaHQ9IjAiIHdpZHRoPSIwIiByeT0iMCIgcng9IjAiPjwvcmVjdD48dGV4dD48dHNwYW4geD0iMSIgZHk9IjFlbSIgeG1sOnNwYWNlPSJwcmVzZXJ2ZSI+PC90c3Bhbj48L3RleHQ+PC9nPjwvZz48ZyBzdHlsZT0ib3BhY2l0eTogMTsiIHRyYW5zZm9ybT0iIiBjbGFzcz0iZWRnZUxhYmVsIj48ZyBjbGFzcz0ibGFiZWwiIHRyYW5zZm9ybT0idHJhbnNsYXRlKDAsMCkiPjxyZWN0IGhlaWdodD0iMCIgd2lkdGg9IjAiIHJ5PSIwIiByeD0iMCI+PC9yZWN0Pjx0ZXh0Pjx0c3BhbiB4PSIxIiBkeT0iMWVtIiB4bWw6c3BhY2U9InByZXNlcnZlIj48L3RzcGFuPjwvdGV4dD48L2c+PC9nPjxnIHN0eWxlPSJvcGFjaXR5OiAxOyIgdHJhbnNmb3JtPSIiIGNsYXNzPSJlZGdlTGFiZWwiPjxnIGNsYXNzPSJsYWJlbCIgdHJhbnNmb3JtPSJ0cmFuc2xhdGUoMCwwKSI+PHJlY3QgaGVpZ2h0PSIwIiB3aWR0aD0iMCIgcnk9IjAiIHJ4PSIwIj48L3JlY3Q+PHRleHQ+PHRzcGFuIHg9IjEiIGR5PSIxZW0iIHhtbDpzcGFjZT0icHJlc2VydmUiPjwvdHNwYW4+PC90ZXh0PjwvZz48L2c+PGcgc3R5bGU9Im9wYWNpdHk6IDE7IiB0cmFuc2Zvcm09IiIgY2xhc3M9ImVkZ2VMYWJlbCI+PGcgY2xhc3M9ImxhYmVsIiB0cmFuc2Zvcm09InRyYW5zbGF0ZSgwLDApIj48cmVjdCBoZWlnaHQ9IjAiIHdpZHRoPSIwIiByeT0iMCIgcng9IjAiPjwvcmVjdD48dGV4dD48dHNwYW4geD0iMSIgZHk9IjFlbSIgeG1sOnNwYWNlPSJwcmVzZXJ2ZSI+PC90c3Bhbj48L3RleHQ+PC9nPjwvZz48ZyBzdHlsZT0ib3BhY2l0eTogMTsiIHRyYW5zZm9ybT0iIiBjbGFzcz0iZWRnZUxhYmVsIj48ZyBjbGFzcz0ibGFiZWwiIHRyYW5zZm9ybT0idHJhbnNsYXRlKDAsMCkiPjxyZWN0IGhlaWdodD0iMCIgd2lkdGg9IjAiIHJ5PSIwIiByeD0iMCI+PC9yZWN0Pjx0ZXh0Pjx0c3BhbiB4PSIxIiBkeT0iMWVtIiB4bWw6c3BhY2U9InByZXNlcnZlIj48L3RzcGFuPjwvdGV4dD48L2c+PC9nPjwvZz48ZyBjbGFzcz0ibm9kZXMiPjxnIHN0eWxlPSJvcGFjaXR5OiAxOyIgdHJhbnNmb3JtPSJ0cmFuc2xhdGUoMjg4LjU0NDUzNjU5MDU3NjIsMjcuMjAwMDAwNzYyOTM5NDUzKSIgaWQ9ImZsb3djaGFydC1TdGFydC01OCIgY2xhc3M9Im5vZGUgZGVmYXVsdCI+PHJlY3QgY2xhc3M9ImxhYmVsLWNvbnRhaW5lciIgaGVpZ2h0PSIzOC4zOTk5OTk2MTg1MzAyNyIgd2lkdGg9IjUyLjc5OTk5OTIzNzA2MDU1IiB5PSItMTkuMTk5OTk5ODA5MjY1MTM3IiB4PSItMjYuMzk5OTk5NjE4NTMwMjczIiByeT0iMCIgcng9IjAiPjwvcmVjdD48ZyB0cmFuc2Zvcm09InRyYW5zbGF0ZSgwLDApIiBjbGFzcz0ibGFiZWwiPjxnIHRyYW5zZm9ybT0idHJhbnNsYXRlKC0xNi4zOTk5OTk2MTg1MzAyNzMsLTkuMTk5OTk5ODA5MjY1MTM3KSI+PHRleHQgc3R5bGU9IiI+PHRzcGFuIHg9IjEiIGR5PSIxZW0iIHhtbDpzcGFjZT0icHJlc2VydmUiPuW8gOWnizwvdHNwYW4+PC90ZXh0PjwvZz48L2c+PC9nPjxnIHN0eWxlPSJvcGFjaXR5OiAxOyIgdHJhbnNmb3JtPSJ0cmFuc2xhdGUoMjg4LjU0NDUzNjU5MDU3NjIsMTE1LjYwMDAwMjI4ODgxODM2KSIgaWQ9ImZsb3djaGFydC1Mb29wLTU5IiBjbGFzcz0ibm9kZSBkZWZhdWx0Ij48cmVjdCBjbGFzcz0ibGFiZWwtY29udGFpbmVyIiBoZWlnaHQ9IjM4LjM5OTk5OTYxODUzMDI3IiB3aWR0aD0iMTQ4LjgwMDAwMzA1MTc1NzgiIHk9Ii0xOS4xOTk5OTk4MDkyNjUxMzciIHg9Ii03NC40MDAwMDE1MjU4Nzg5IiByeT0iMCIgcng9IjAiPjwvcmVjdD48ZyB0cmFuc2Zvcm09InRyYW5zbGF0ZSgwLDApIiBjbGFzcz0ibGFiZWwiPjxnIHRyYW5zZm9ybT0idHJhbnNsYXRlKC02NC40MDAwMDE1MjU4Nzg5LC05LjE5OTk5OTgwOTI2NTEzNykiPjx0ZXh0IHN0eWxlPSIiPjx0c3BhbiB4PSIxIiBkeT0iMWVtIiB4bWw6c3BhY2U9InByZXNlcnZlIj7lvqrnjq/mr4/lj6rogqHnpajlkI3np7A8L3RzcGFuPjwvdGV4dD48L2c+PC9nPjwvZz48ZyBzdHlsZT0ib3BhY2l0eTogMTsiIHRyYW5zZm9ybT0idHJhbnNsYXRlKDI4OC41NDQ1MzY1OTA1NzYyLDIwNC4wMDAwMDM4MTQ2OTcyNykiIGlkPSJmbG93Y2hhcnQtUmVxdWVzdC02MSIgY2xhc3M9Im5vZGUgZGVmYXVsdCI+PHJlY3QgY2xhc3M9ImxhYmVsLWNvbnRhaW5lciIgaGVpZ2h0PSIzOC4zOTk5OTk2MTg1MzAyNyIgd2lkdGg9IjI1MS41Njg3NTYxMDM1MTU2MiIgeT0iLTE5LjE5OTk5OTgwOTI2NTEzNyIgeD0iLTEyNS43ODQzNzgwNTE3NTc4MSIgcnk9IjAiIHJ4PSIwIj48L3JlY3Q+PGcgdHJhbnNmb3JtPSJ0cmFuc2xhdGUoMCwwKSIgY2xhc3M9ImxhYmVsIj48ZyB0cmFuc2Zvcm09InRyYW5zbGF0ZSgtMTE1Ljc4NDM3ODA1MTc1NzgxLC05LjE5OTk5OTgwOTI2NTEzNykiPjx0ZXh0IHN0eWxlPSIiPjx0c3BhbiB4PSIxIiBkeT0iMWVtIiB4bWw6c3BhY2U9InByZXNlcnZlIj7lj5HpgIFIVFRQ6K+35rGC6I635Y+W6IKh56Wo5Y6G5Y+y5pWw5o2uPC90c3Bhbj48L3RleHQ+PC9nPjwvZz48L2c+PGcgc3R5bGU9Im9wYWNpdHk6IDE7IiB0cmFuc2Zvcm09InRyYW5zbGF0ZSgxNjMuOTU2MjUzMDUxNzU3OCwzMTAuODAwMDA0OTU5MTA2NDUpIiBpZD0iZmxvd2NoYXJ0LUpTT05Db252ZXJzaW9uLTYzIiBjbGFzcz0ibm9kZSBkZWZhdWx0Ij48cmVjdCBjbGFzcz0ibGFiZWwtY29udGFpbmVyIiBoZWlnaHQ9IjM4LjM5OTk5OTYxODUzMDI3IiB3aWR0aD0iMjQ5LjExMjUwMzA1MTc1NzgiIHk9Ii0xOS4xOTk5OTk4MDkyNjUxMzciIHg9Ii0xMjQuNTU2MjUxNTI1ODc4OSIgcnk9IjAiIHJ4PSIwIj48L3JlY3Q+PGcgdHJhbnNmb3JtPSJ0cmFuc2xhdGUoMCwwKSIgY2xhc3M9ImxhYmVsIj48ZyB0cmFuc2Zvcm09InRyYW5zbGF0ZSgtMTE0LjU1NjI1MTUyNTg3ODksLTkuMTk5OTk5ODA5MjY1MTM3KSI+PHRleHQgc3R5bGU9IiI+PHRzcGFuIHg9IjEiIGR5PSIxZW0iIHhtbDpzcGFjZT0icHJlc2VydmUiPuWwhuivt+axguWIsOeahOaVsOaNrui9rOaNouS4ukpTT07moLzlvI88L3RzcGFuPjwvdGV4dD48L2c+PC9nPjwvZz48ZyBzdHlsZT0ib3BhY2l0eTogMTsiIHRyYW5zZm9ybT0idHJhbnNsYXRlKDQxMy4xMzI4MjAxMjkzOTQ1Myw1MDYuMDAwMDA3NjI5Mzk0NTMpIiBpZD0iZmxvd2NoYXJ0LUVycm9ySGFuZGxlci02NSIgY2xhc3M9Im5vZGUgZGVmYXVsdCI+PHJlY3QgY2xhc3M9ImxhYmVsLWNvbnRhaW5lciIgaGVpZ2h0PSIzOC4zOTk5OTk2MTg1MzAyNyIgd2lkdGg9IjE0OC44MDAwMDMwNTE3NTc4IiB5PSItMTkuMTk5OTk5ODA5MjY1MTM3IiB4PSItNzQuNDAwMDAxNTI1ODc4OSIgcnk9IjAiIHJ4PSIwIj48L3JlY3Q+PGcgdHJhbnNmb3JtPSJ0cmFuc2xhdGUoMCwwKSIgY2xhc3M9ImxhYmVsIj48ZyB0cmFuc2Zvcm09InRyYW5zbGF0ZSgtNjQuNDAwMDAxNTI1ODc4OSwtOS4xOTk5OTk4MDkyNjUxMzcpIj48dGV4dCBzdHlsZT0iIj48dHNwYW4geD0iMSIgZHk9IjFlbSIgeG1sOnNwYWNlPSJwcmVzZXJ2ZSI+5aSE55CG6K+35rGC5aSx6LSl5oOF5Ya1PC90c3Bhbj48L3RleHQ+PC9nPjwvZz48L2c+PGcgc3R5bGU9Im9wYWNpdHk6IDE7IiB0cmFuc2Zvcm09InRyYW5zbGF0ZSgxNjMuOTU2MjUzMDUxNzU3OCw0MTcuNjAwMDA2MTAzNTE1NikiIGlkPSJmbG93Y2hhcnQtRGF0YUZyYW1lQ29udmVyc2lvbi02NyIgY2xhc3M9Im5vZGUgZGVmYXVsdCI+PHJlY3QgY2xhc3M9ImxhYmVsLWNvbnRhaW5lciIgaGVpZ2h0PSIzOC4zOTk5OTk2MTg1MzAyNyIgd2lkdGg9IjMxMS45MTI1MDYxMDM1MTU2IiB5PSItMTkuMTk5OTk5ODA5MjY1MTM3IiB4PSItMTU1Ljk1NjI1MzA1MTc1NzgiIHJ5PSIwIiByeD0iMCI+PC9yZWN0PjxnIHRyYW5zZm9ybT0idHJhbnNsYXRlKDAsMCkiIGNsYXNzPSJsYWJlbCI+PGcgdHJhbnNmb3JtPSJ0cmFuc2xhdGUoLTE0NS45NTYyNTMwNTE3NTc4LC05LjE5OTk5OTgwOTI2NTEzNykiPjx0ZXh0IHN0eWxlPSIiPjx0c3BhbiB4PSIxIiBkeT0iMWVtIiB4bWw6c3BhY2U9InByZXNlcnZlIj7lsIbojrflj5bnmoRKU09O5pWw5o2u6L2s5o2i5Li6RGF0YUZyYW1l5a+56LGhPC90c3Bhbj48L3RleHQ+PC9nPjwvZz48L2c+PGcgc3R5bGU9Im9wYWNpdHk6IDE7IiB0cmFuc2Zvcm09InRyYW5zbGF0ZSgxNjMuOTU2MjUzMDUxNzU3OCw1MDYuMDAwMDA3NjI5Mzk0NTMpIiBpZD0iZmxvd2NoYXJ0LUV4Y2VsV3JpdGVyLTY5IiBjbGFzcz0ibm9kZSBkZWZhdWx0Ij48cmVjdCBjbGFzcz0ibGFiZWwtY29udGFpbmVyIiBoZWlnaHQ9IjM4LjM5OTk5OTYxODUzMDI3IiB3aWR0aD0iMjQ5LjU1MzEzMTEwMzUxNTYyIiB5PSItMTkuMTk5OTk5ODA5MjY1MTM3IiB4PSItMTI0Ljc3NjU2NTU1MTc1NzgxIiByeT0iMCIgcng9IjAiPjwvcmVjdD48ZyB0cmFuc2Zvcm09InRyYW5zbGF0ZSgwLDApIiBjbGFzcz0ibGFiZWwiPjxnIHRyYW5zZm9ybT0idHJhbnNsYXRlKC0xMTQuNzc2NTY1NTUxNzU3ODEsLTkuMTk5OTk5ODA5MjY1MTM3KSI+PHRleHQgc3R5bGU9IiI+PHRzcGFuIHg9IjEiIGR5PSIxZW0iIHhtbDpzcGFjZT0icHJlc2VydmUiPuWwhkRhdGFGcmFtZeaVsOaNruWtmOWFpUV4Y2Vs5paH5Lu2PC90c3Bhbj48L3RleHQ+PC9nPjwvZz48L2c+PGcgc3R5bGU9Im9wYWNpdHk6IDE7IiB0cmFuc2Zvcm09InRyYW5zbGF0ZSgyODguNTQ0NTM2NTkwNTc2Miw1OTQuNDAwMDA5MTU1MjczNCkiIGlkPSJmbG93Y2hhcnQtRW5kLTcxIiBjbGFzcz0ibm9kZSBkZWZhdWx0Ij48cmVjdCBjbGFzcz0ibGFiZWwtY29udGFpbmVyIiBoZWlnaHQ9IjM4LjM5OTk5OTYxODUzMDI3IiB3aWR0aD0iMTgxLjYwMDAwNjEwMzUxNTYyIiB5PSItMTkuMTk5OTk5ODA5MjY1MTM3IiB4PSItOTAuODAwMDAzMDUxNzU3ODEiIHJ5PSIwIiByeD0iMCI+PC9yZWN0PjxnIHRyYW5zZm9ybT0idHJhbnNsYXRlKDAsMCkiIGNsYXNzPSJsYWJlbCI+PGcgdHJhbnNmb3JtPSJ0cmFuc2xhdGUoLTgwLjgwMDAwMzA1MTc1NzgxLC05LjE5OTk5OTgwOTI2NTEzNykiPjx0ZXh0IHN0eWxlPSIiPjx0c3BhbiB4PSIxIiBkeT0iMWVtIiB4bWw6c3BhY2U9InByZXNlcnZlIj7nu5PmnZ/lvZPliY3ogqHnpajmlbDmja7ojrflj5Y8L3RzcGFuPjwvdGV4dD48L2c+PC9nPjwvZz48ZyBzdHlsZT0ib3BhY2l0eTogMTsiIHRyYW5zZm9ybT0idHJhbnNsYXRlKDI4OC41NDQ1MzY1OTA1NzYyLDY4Mi44MDAwMTA2ODExNTIzKSIgaWQ9ImZsb3djaGFydC1Eb25lLTc1IiBjbGFzcz0ibm9kZSBkZWZhdWx0Ij48cmVjdCBjbGFzcz0ibGFiZWwtY29udGFpbmVyIiBoZWlnaHQ9IjM4LjM5OTk5OTYxODUzMDI3IiB3aWR0aD0iMTgwLjgwMDAwMzA1MTc1NzgiIHk9Ii0xOS4xOTk5OTk4MDkyNjUxMzciIHg9Ii05MC40MDAwMDE1MjU4Nzg5IiByeT0iMCIgcng9IjAiPjwvcmVjdD48ZyB0cmFuc2Zvcm09InRyYW5zbGF0ZSgwLDApIiBjbGFzcz0ibGFiZWwiPjxnIHRyYW5zZm9ybT0idHJhbnNsYXRlKC04MC40MDAwMDE1MjU4Nzg5LC05LjE5OTk5OTgwOTI2NTEzNykiPjx0ZXh0IHN0eWxlPSIiPjx0c3BhbiB4PSIxIiBkeT0iMWVtIiB4bWw6c3BhY2U9InByZXNlcnZlIj7lrozmiJDmiYDmnInogqHnpajmlbDmja7ojrflj5Y8L3RzcGFuPjwvdGV4dD48L2c+PC9nPjwvZz48L2c+PC9nPjwvZz48L3N2Zz4=;" vertex="1" parent="1">
                        <mxGeometry x="414" y="1440" width="376" height="690" as="geometry"/>
                    </mxCell>
                </UserObject>
            </root>
        </mxGraphModel>
    </diagram>
    <diagram id="6xpeNjNDscS2dzHYWb_x" name="第 2 页">
        <mxGraphModel dx="744" dy="571" grid="1" gridSize="10" guides="1" tooltips="1" connect="1" arrows="1" fold="1" page="1" pageScale="1" pageWidth="827" pageHeight="1169" math="0" shadow="0">
            <root>
                <mxCell id="0"/>
                <mxCell id="1" parent="0"/>
                <mxCell id="treM6X1P2ePtszUKwlTU-11" value="" style="group" vertex="1" connectable="0" parent="1">
                    <mxGeometry x="110" y="340" width="400" height="280" as="geometry"/>
                </mxCell>
                <mxCell id="u3CRmIkBeVfYCJGPqnaK-1" value="走势图" style="rounded=0;whiteSpace=wrap;html=1;" vertex="1" parent="treM6X1P2ePtszUKwlTU-11">
                    <mxGeometry x="13.157894736842104" width="105.26315789473684" height="36.52173913043479" as="geometry"/>
                </mxCell>
                <mxCell id="treM6X1P2ePtszUKwlTU-1" style="edgeStyle=none;html=1;exitX=0.5;exitY=1;exitDx=0;exitDy=0;" edge="1" parent="treM6X1P2ePtszUKwlTU-11" source="eY2Q_bx5KR829iDS9lDy-1">
                    <mxGeometry relative="1" as="geometry">
                        <mxPoint x="210.52631578947367" y="109.56521739130436" as="targetPoint"/>
                    </mxGeometry>
                </mxCell>
                <mxCell id="eY2Q_bx5KR829iDS9lDy-1" value="成交额" style="rounded=0;whiteSpace=wrap;html=1;" vertex="1" parent="treM6X1P2ePtszUKwlTU-11">
                    <mxGeometry x="157.89473684210526" width="105.26315789473684" height="36.52173913043479" as="geometry"/>
                </mxCell>
                <mxCell id="treM6X1P2ePtszUKwlTU-3" style="edgeStyle=none;html=1;" edge="1" parent="treM6X1P2ePtszUKwlTU-11" source="eY2Q_bx5KR829iDS9lDy-2">
                    <mxGeometry relative="1" as="geometry">
                        <mxPoint x="347.3684210526316" y="109.56521739130436" as="targetPoint"/>
                    </mxGeometry>
                </mxCell>
                <mxCell id="eY2Q_bx5KR829iDS9lDy-2" value="分析" style="rounded=0;whiteSpace=wrap;html=1;" vertex="1" parent="treM6X1P2ePtszUKwlTU-11">
                    <mxGeometry x="294.7368421052631" width="105.26315789473684" height="36.52173913043479" as="geometry"/>
                </mxCell>
                <mxCell id="eY2Q_bx5KR829iDS9lDy-4" value="" style="endArrow=classic;html=1;" edge="1" parent="treM6X1P2ePtszUKwlTU-11">
                    <mxGeometry width="50" height="50" relative="1" as="geometry">
                        <mxPoint x="26.31578947368421" y="60.869565217391305" as="sourcePoint"/>
                        <mxPoint x="26.31578947368421" y="109.56521739130436" as="targetPoint"/>
                    </mxGeometry>
                </mxCell>
                <mxCell id="eY2Q_bx5KR829iDS9lDy-6" value="" style="endArrow=classic;html=1;" edge="1" parent="treM6X1P2ePtszUKwlTU-11">
                    <mxGeometry width="50" height="50" relative="1" as="geometry">
                        <mxPoint x="105.26315789473684" y="60.869565217391305" as="sourcePoint"/>
                        <mxPoint x="105.26315789473684" y="109.56521739130436" as="targetPoint"/>
                    </mxGeometry>
                </mxCell>
                <mxCell id="eY2Q_bx5KR829iDS9lDy-8" value="" style="endArrow=none;html=1;" edge="1" parent="treM6X1P2ePtszUKwlTU-11">
                    <mxGeometry width="50" height="50" relative="1" as="geometry">
                        <mxPoint x="26.31578947368421" y="60.869565217391305" as="sourcePoint"/>
                        <mxPoint x="105.26315789473684" y="60.869565217391305" as="targetPoint"/>
                        <Array as="points">
                            <mxPoint x="62.50000000000001" y="60.869565217391305"/>
                        </Array>
                    </mxGeometry>
                </mxCell>
                <mxCell id="eY2Q_bx5KR829iDS9lDy-9" value="" style="endArrow=none;html=1;entryX=0.5;entryY=1;entryDx=0;entryDy=0;" edge="1" parent="treM6X1P2ePtszUKwlTU-11" target="u3CRmIkBeVfYCJGPqnaK-1">
                    <mxGeometry width="50" height="50" relative="1" as="geometry">
                        <mxPoint x="65.78947368421052" y="60.869565217391305" as="sourcePoint"/>
                        <mxPoint x="342.10526315789474" y="170.43478260869566" as="targetPoint"/>
                    </mxGeometry>
                </mxCell>
                <mxCell id="eY2Q_bx5KR829iDS9lDy-10" value="折线图" style="rounded=0;whiteSpace=wrap;html=1;direction=south;verticalAlign=middle;horizontal=1;fontStyle=0;" vertex="1" parent="treM6X1P2ePtszUKwlTU-11">
                    <mxGeometry y="109.56521739130436" width="65.78947368421052" height="170.43478260869566" as="geometry"/>
                </mxCell>
                <mxCell id="eY2Q_bx5KR829iDS9lDy-11" value="柱状图" style="rounded=0;whiteSpace=wrap;html=1;direction=south;" vertex="1" parent="treM6X1P2ePtszUKwlTU-11">
                    <mxGeometry x="78.94736842105263" y="109.56521739130436" width="65.78947368421052" height="170.43478260869566" as="geometry"/>
                </mxCell>
                <mxCell id="treM6X1P2ePtszUKwlTU-2" value="折线图" style="rounded=0;whiteSpace=wrap;html=1;direction=south;" vertex="1" parent="treM6X1P2ePtszUKwlTU-11">
                    <mxGeometry x="177.6315789473684" y="109.56521739130436" width="65.78947368421052" height="170.43478260869566" as="geometry"/>
                </mxCell>
                <mxCell id="treM6X1P2ePtszUKwlTU-4" value="柱状图" style="rounded=0;whiteSpace=wrap;html=1;direction=south;" vertex="1" parent="treM6X1P2ePtszUKwlTU-11">
                    <mxGeometry x="314.4736842105263" y="109.56521739130436" width="65.78947368421052" height="170.43478260869566" as="geometry"/>
                </mxCell>
                <mxCell id="treM6X1P2ePtszUKwlTU-5" value="" style="endArrow=none;html=1;entryX=0;entryY=0.5;entryDx=0;entryDy=0;" edge="1" parent="treM6X1P2ePtszUKwlTU-11" target="eY2Q_bx5KR829iDS9lDy-1">
                    <mxGeometry width="50" height="50" relative="1" as="geometry">
                        <mxPoint x="118.42105263157896" y="18.260869565217394" as="sourcePoint"/>
                        <mxPoint x="171.05263157894737" y="-24.347826086956523" as="targetPoint"/>
                    </mxGeometry>
                </mxCell>
                <mxCell id="treM6X1P2ePtszUKwlTU-10" value="" style="endArrow=none;html=1;entryX=0;entryY=0.5;entryDx=0;entryDy=0;exitX=1;exitY=0.5;exitDx=0;exitDy=0;exitPerimeter=0;" edge="1" parent="treM6X1P2ePtszUKwlTU-11" source="eY2Q_bx5KR829iDS9lDy-1" target="eY2Q_bx5KR829iDS9lDy-2">
                    <mxGeometry width="50" height="50" relative="1" as="geometry">
                        <mxPoint x="263.1578947368421" y="24.347826086956523" as="sourcePoint"/>
                        <mxPoint x="328.94736842105266" y="-36.52173913043479" as="targetPoint"/>
                    </mxGeometry>
                </mxCell>
            </root>
        </mxGraphModel>
    </diagram>
</mxfile>